SplineFontDB: 3.2
FontName: MiscFixed4x6
FullName: Misc Fixed 4x6
FamilyName: Misc Fixed 4x6
Weight: Medium
Copyright: Public domain font.  Share and enjoy.
UComments: "2020-2-13: Created with FontForge (http://fontforge.org)"
Version: 001.000
ItalicAngle: 0
UnderlinePosition: -100
UnderlineWidth: 50
Ascent: 750
Descent: 250
InvalidEm: 0
LayerCount: 2
Layer: 0 0 "Back" 1
Layer: 1 0 "Fore" 0
XUID: [1021 543 1864289622 12280838]
StyleMap: 0x0000
FSType: 0
OS2Version: 0
OS2_WeightWidthSlopeOnly: 0
OS2_UseTypoMetrics: 1
CreationTime: 1581571875
ModificationTime: 1581571880
OS2TypoAscent: 0
OS2TypoAOffset: 1
OS2TypoDescent: 0
OS2TypoDOffset: 1
OS2TypoLinegap: 90
OS2WinAscent: 0
OS2WinAOffset: 1
OS2WinDescent: 0
OS2WinDOffset: 1
HheadAscent: 0
HheadAOffset: 1
HheadDescent: 0
HheadDOffset: 1
DEI: 91125
Encoding: UnicodeBmp
UnicodeInterp: none
NameList: AGL For New Fonts
DisplaySize: 6
AntiAlias: 1
FitToEm: 0
BeginChars: 65536 919

StartChar: char0
Encoding: 0 0 0
Width: 500
VWidth: 0
Flags: HW
LayerCount: 2
Back
Fore
SplineSet
0 499.75 m 1
 125 499.75 l 1
 125 624.75 l 1
 0 624.75 l 1
 0 499.75 l 1025
250 499.75 m 1
 375 499.75 l 1
 375 624.75 l 1
 250 624.75 l 1
 250 499.75 l 1025
0 249.75 m 1
 125 249.75 l 1
 125 374.75 l 1
 0 374.75 l 1
 0 249.75 l 1025
250 249.75 m 1
 375 249.75 l 1
 375 374.75 l 1
 250 374.75 l 1
 250 249.75 l 1025
0 -0.25 m 1
 125 -0.25 l 1
 125 124.75 l 1
 0 124.75 l 1
 0 -0.25 l 1025
250 -0.25 m 1
 375 -0.25 l 1
 375 124.75 l 1
 250 124.75 l 1
 250 -0.25 l 1
EndSplineSet
EndChar

StartChar: exclam
Encoding: 33 33 2
Width: 500
VWidth: 0
Flags: HW
LayerCount: 2
Back
Fore
SplineSet
125 499.75 m 1
 250 499.75 l 1
 250 624.75 l 1
 125 624.75 l 1
 125 499.75 l 1025
125 374.75 m 1
 250 374.75 l 1
 250 499.75 l 1
 125 499.75 l 1
 125 374.75 l 1025
125 249.75 m 1
 250 249.75 l 1
 250 374.75 l 1
 125 374.75 l 1
 125 249.75 l 1025
125 -0.25 m 1
 250 -0.25 l 1
 250 124.75 l 1
 125 124.75 l 1
 125 -0.25 l 1
EndSplineSet
EndChar

StartChar: quotedbl
Encoding: 34 34 3
Width: 500
VWidth: 0
Flags: HW
LayerCount: 2
Back
Fore
SplineSet
0 499.75 m 1
 125 499.75 l 1
 125 624.75 l 1
 0 624.75 l 1
 0 499.75 l 1025
250 499.75 m 1
 375 499.75 l 1
 375 624.75 l 1
 250 624.75 l 1
 250 499.75 l 1025
0 374.75 m 1
 125 374.75 l 1
 125 499.75 l 1
 0 499.75 l 1
 0 374.75 l 1025
250 374.75 m 1
 375 374.75 l 1
 375 499.75 l 1
 250 499.75 l 1
 250 374.75 l 1
EndSplineSet
EndChar

StartChar: numbersign
Encoding: 35 35 4
Width: 500
VWidth: 0
Flags: HW
LayerCount: 2
Back
Fore
SplineSet
0 499.75 m 1
 125 499.75 l 1
 125 624.75 l 1
 0 624.75 l 1
 0 499.75 l 1025
250 499.75 m 1
 375 499.75 l 1
 375 624.75 l 1
 250 624.75 l 1
 250 499.75 l 1025
0 374.75 m 1
 500 374.75 l 1
 500 499.75 l 1
 0 499.75 l 1
 0 374.75 l 1025
0 249.75 m 1
 125 249.75 l 1
 125 374.75 l 1
 0 374.75 l 1
 0 249.75 l 1025
250 249.75 m 1
 375 249.75 l 1
 375 374.75 l 1
 250 374.75 l 1
 250 249.75 l 1025
0 124.75 m 1
 500 124.75 l 1
 500 249.75 l 1
 0 249.75 l 1
 0 124.75 l 1025
0 -0.25 m 1
 125 -0.25 l 1
 125 124.75 l 1
 0 124.75 l 1
 0 -0.25 l 1025
250 -0.25 m 1
 375 -0.25 l 1
 375 124.75 l 1
 250 124.75 l 1
 250 -0.25 l 1
EndSplineSet
EndChar

StartChar: dollar
Encoding: 36 36 5
Width: 500
VWidth: 0
Flags: HW
LayerCount: 2
Back
Fore
SplineSet
125 499.75 m 1
 250 499.75 l 1
 250 624.75 l 1
 125 624.75 l 1
 125 499.75 l 1025
0 374.75 m 1
 375 374.75 l 1
 375 499.75 l 1
 0 499.75 l 1
 0 374.75 l 1025
0 249.75 m 1
 250 249.75 l 1
 250 374.75 l 1
 0 374.75 l 1
 0 249.75 l 1025
250 124.75 m 1
 375 124.75 l 1
 375 249.75 l 1
 250 249.75 l 1
 250 124.75 l 1025
0 -0.25 m 1
 375 -0.25 l 1
 375 124.75 l 1
 0 124.75 l 1
 0 -0.25 l 1025
125 -125.25 m 1
 250 -125.25 l 1
 250 -0.25 l 1
 125 -0.25 l 1
 125 -125.25 l 1
EndSplineSet
EndChar

StartChar: percent
Encoding: 37 37 6
Width: 500
VWidth: 0
Flags: HW
LayerCount: 2
Back
Fore
SplineSet
0 499.75 m 1
 125 499.75 l 1
 125 624.75 l 1
 0 624.75 l 1
 0 499.75 l 1025
250 374.75 m 1
 375 374.75 l 1
 375 499.75 l 1
 250 499.75 l 1
 250 374.75 l 1025
125 249.75 m 1
 250 249.75 l 1
 250 374.75 l 1
 125 374.75 l 1
 125 249.75 l 1025
0 124.75 m 1
 125 124.75 l 1
 125 249.75 l 1
 0 249.75 l 1
 0 124.75 l 1025
250 -0.25 m 1
 375 -0.25 l 1
 375 124.75 l 1
 250 124.75 l 1
 250 -0.25 l 1
EndSplineSet
EndChar

StartChar: ampersand
Encoding: 38 38 7
Width: 500
VWidth: 0
Flags: HW
LayerCount: 2
Back
Fore
SplineSet
125 499.75 m 1
 250 499.75 l 1
 250 624.75 l 1
 125 624.75 l 1
 125 499.75 l 1025
0 374.75 m 1
 125 374.75 l 1
 125 499.75 l 1
 0 499.75 l 1
 0 374.75 l 1025
250 374.75 m 1
 375 374.75 l 1
 375 499.75 l 1
 250 499.75 l 1
 250 374.75 l 1025
125 249.75 m 1
 250 249.75 l 1
 250 374.75 l 1
 125 374.75 l 1
 125 249.75 l 1025
0 124.75 m 1
 125 124.75 l 1
 125 249.75 l 1
 0 249.75 l 1
 0 124.75 l 1025
250 124.75 m 1
 375 124.75 l 1
 375 249.75 l 1
 250 249.75 l 1
 250 124.75 l 1025
125 -0.25 m 1
 250 -0.25 l 1
 250 124.75 l 1
 125 124.75 l 1
 125 -0.25 l 1025
375 -0.25 m 1
 500 -0.25 l 1
 500 124.75 l 1
 375 124.75 l 1
 375 -0.25 l 1
EndSplineSet
EndChar

StartChar: quotesingle
Encoding: 39 39 8
Width: 500
VWidth: 0
Flags: HW
LayerCount: 2
Back
Fore
SplineSet
125 499.75 m 1
 250 499.75 l 1
 250 624.75 l 1
 125 624.75 l 1
 125 499.75 l 1025
125 374.75 m 1
 250 374.75 l 1
 250 499.75 l 1
 125 499.75 l 1
 125 374.75 l 1
EndSplineSet
EndChar

StartChar: parenleft
Encoding: 40 40 9
Width: 500
VWidth: 0
Flags: HW
LayerCount: 2
Back
Fore
SplineSet
250 499.75 m 1
 375 499.75 l 1
 375 624.75 l 1
 250 624.75 l 1
 250 499.75 l 1025
125 374.75 m 1
 250 374.75 l 1
 250 499.75 l 1
 125 499.75 l 1
 125 374.75 l 1025
125 249.75 m 1
 250 249.75 l 1
 250 374.75 l 1
 125 374.75 l 1
 125 249.75 l 1025
125 124.75 m 1
 250 124.75 l 1
 250 249.75 l 1
 125 249.75 l 1
 125 124.75 l 1025
125 -0.25 m 1
 250 -0.25 l 1
 250 124.75 l 1
 125 124.75 l 1
 125 -0.25 l 1025
250 -125.25 m 1
 375 -125.25 l 1
 375 -0.25 l 1
 250 -0.25 l 1
 250 -125.25 l 1
EndSplineSet
EndChar

StartChar: parenright
Encoding: 41 41 10
Width: 500
VWidth: 0
Flags: HW
LayerCount: 2
Back
Fore
SplineSet
0 499.75 m 1
 125 499.75 l 1
 125 624.75 l 1
 0 624.75 l 1
 0 499.75 l 1025
125 374.75 m 1
 250 374.75 l 1
 250 499.75 l 1
 125 499.75 l 1
 125 374.75 l 1025
125 249.75 m 1
 250 249.75 l 1
 250 374.75 l 1
 125 374.75 l 1
 125 249.75 l 1025
125 124.75 m 1
 250 124.75 l 1
 250 249.75 l 1
 125 249.75 l 1
 125 124.75 l 1025
125 -0.25 m 1
 250 -0.25 l 1
 250 124.75 l 1
 125 124.75 l 1
 125 -0.25 l 1025
0 -125.25 m 1
 125 -125.25 l 1
 125 -0.25 l 1
 0 -0.25 l 1
 0 -125.25 l 1
EndSplineSet
EndChar

StartChar: asterisk
Encoding: 42 42 11
Width: 500
VWidth: 0
Flags: HW
LayerCount: 2
Back
Fore
SplineSet
0 499.75 m 1
 125 499.75 l 1
 125 624.75 l 1
 0 624.75 l 1
 0 499.75 l 1025
250 499.75 m 1
 375 499.75 l 1
 375 624.75 l 1
 250 624.75 l 1
 250 499.75 l 1025
125 374.75 m 1
 250 374.75 l 1
 250 499.75 l 1
 125 499.75 l 1
 125 374.75 l 1025
0 249.75 m 1
 375 249.75 l 1
 375 374.75 l 1
 0 374.75 l 1
 0 249.75 l 1025
125 124.75 m 1
 250 124.75 l 1
 250 249.75 l 1
 125 249.75 l 1
 125 124.75 l 1025
0 -0.25 m 1
 125 -0.25 l 1
 125 124.75 l 1
 0 124.75 l 1
 0 -0.25 l 1025
250 -0.25 m 1
 375 -0.25 l 1
 375 124.75 l 1
 250 124.75 l 1
 250 -0.25 l 1
EndSplineSet
EndChar

StartChar: plus
Encoding: 43 43 12
Width: 500
VWidth: 0
Flags: HW
LayerCount: 2
Back
Fore
SplineSet
125 499.75 m 1
 250 499.75 l 1
 250 624.75 l 1
 125 624.75 l 1
 125 499.75 l 1025
125 374.75 m 1
 250 374.75 l 1
 250 499.75 l 1
 125 499.75 l 1
 125 374.75 l 1025
0 249.75 m 1
 375 249.75 l 1
 375 374.75 l 1
 0 374.75 l 1
 0 249.75 l 1025
125 124.75 m 1
 250 124.75 l 1
 250 249.75 l 1
 125 249.75 l 1
 125 124.75 l 1025
125 -0.25 m 1
 250 -0.25 l 1
 250 124.75 l 1
 125 124.75 l 1
 125 -0.25 l 1
EndSplineSet
EndChar

StartChar: comma
Encoding: 44 44 13
Width: 500
VWidth: 0
Flags: HW
LayerCount: 2
Back
Fore
SplineSet
125 -0.25 m 1
 250 -0.25 l 1
 250 124.75 l 1
 125 124.75 l 1
 125 -0.25 l 1025
0 -125.25 m 1
 125 -125.25 l 1
 125 -0.25 l 1
 0 -0.25 l 1
 0 -125.25 l 1
EndSplineSet
EndChar

StartChar: hyphen
Encoding: 45 45 14
Width: 500
VWidth: 0
Flags: HW
LayerCount: 2
Back
Fore
SplineSet
0 249.75 m 1
 375 249.75 l 1
 375 374.75 l 1
 0 374.75 l 1
 0 249.75 l 1
EndSplineSet
EndChar

StartChar: period
Encoding: 46 46 15
Width: 500
VWidth: 0
Flags: HW
LayerCount: 2
Back
Fore
SplineSet
125 -0.25 m 1
 250 -0.25 l 1
 250 124.75 l 1
 125 124.75 l 1
 125 -0.25 l 1
EndSplineSet
EndChar

StartChar: slash
Encoding: 47 47 16
Width: 500
VWidth: 0
Flags: HW
LayerCount: 2
Back
Fore
SplineSet
250 499.75 m 1
 375 499.75 l 1
 375 624.75 l 1
 250 624.75 l 1
 250 499.75 l 1025
250 374.75 m 1
 375 374.75 l 1
 375 499.75 l 1
 250 499.75 l 1
 250 374.75 l 1025
125 249.75 m 1
 250 249.75 l 1
 250 374.75 l 1
 125 374.75 l 1
 125 249.75 l 1025
0 124.75 m 1
 125 124.75 l 1
 125 249.75 l 1
 0 249.75 l 1
 0 124.75 l 1025
0 -0.25 m 1
 125 -0.25 l 1
 125 124.75 l 1
 0 124.75 l 1
 0 -0.25 l 1
EndSplineSet
EndChar

StartChar: zero
Encoding: 48 48 17
Width: 500
VWidth: 0
Flags: HW
LayerCount: 2
Back
Fore
SplineSet
125 499.75 m 1
 250 499.75 l 1
 250 624.75 l 1
 125 624.75 l 1
 125 499.75 l 1025
0 374.75 m 1
 125 374.75 l 1
 125 499.75 l 1
 0 499.75 l 1
 0 374.75 l 1025
250 374.75 m 1
 375 374.75 l 1
 375 499.75 l 1
 250 499.75 l 1
 250 374.75 l 1025
0 249.75 m 1
 375 249.75 l 1
 375 374.75 l 1
 0 374.75 l 1
 0 249.75 l 1025
0 124.75 m 1
 125 124.75 l 1
 125 249.75 l 1
 0 249.75 l 1
 0 124.75 l 1025
250 124.75 m 1
 375 124.75 l 1
 375 249.75 l 1
 250 249.75 l 1
 250 124.75 l 1025
125 -0.25 m 1
 250 -0.25 l 1
 250 124.75 l 1
 125 124.75 l 1
 125 -0.25 l 1
EndSplineSet
EndChar

StartChar: one
Encoding: 49 49 18
Width: 500
VWidth: 0
Flags: HW
LayerCount: 2
Back
Fore
SplineSet
125 499.75 m 1
 250 499.75 l 1
 250 624.75 l 1
 125 624.75 l 1
 125 499.75 l 1025
0 374.75 m 1
 250 374.75 l 1
 250 499.75 l 1
 0 499.75 l 1
 0 374.75 l 1025
125 249.75 m 1
 250 249.75 l 1
 250 374.75 l 1
 125 374.75 l 1
 125 249.75 l 1025
125 124.75 m 1
 250 124.75 l 1
 250 249.75 l 1
 125 249.75 l 1
 125 124.75 l 1025
0 -0.25 m 1
 375 -0.25 l 1
 375 124.75 l 1
 0 124.75 l 1
 0 -0.25 l 1
EndSplineSet
EndChar

StartChar: two
Encoding: 50 50 19
Width: 500
VWidth: 0
Flags: HW
LayerCount: 2
Back
Fore
SplineSet
125 499.75 m 1
 250 499.75 l 1
 250 624.75 l 1
 125 624.75 l 1
 125 499.75 l 1025
0 374.75 m 1
 125 374.75 l 1
 125 499.75 l 1
 0 499.75 l 1
 0 374.75 l 1025
250 374.75 m 1
 375 374.75 l 1
 375 499.75 l 1
 250 499.75 l 1
 250 374.75 l 1025
250 249.75 m 1
 375 249.75 l 1
 375 374.75 l 1
 250 374.75 l 1
 250 249.75 l 1025
125 124.75 m 1
 250 124.75 l 1
 250 249.75 l 1
 125 249.75 l 1
 125 124.75 l 1025
0 -0.25 m 1
 375 -0.25 l 1
 375 124.75 l 1
 0 124.75 l 1
 0 -0.25 l 1
EndSplineSet
EndChar

StartChar: three
Encoding: 51 51 20
Width: 500
VWidth: 0
Flags: HW
LayerCount: 2
Back
Fore
SplineSet
0 499.75 m 1
 375 499.75 l 1
 375 624.75 l 1
 0 624.75 l 1
 0 499.75 l 1025
250 374.75 m 1
 375 374.75 l 1
 375 499.75 l 1
 250 499.75 l 1
 250 374.75 l 1025
125 249.75 m 1
 250 249.75 l 1
 250 374.75 l 1
 125 374.75 l 1
 125 249.75 l 1025
250 124.75 m 1
 375 124.75 l 1
 375 249.75 l 1
 250 249.75 l 1
 250 124.75 l 1025
0 -0.25 m 1
 250 -0.25 l 1
 250 124.75 l 1
 0 124.75 l 1
 0 -0.25 l 1
EndSplineSet
EndChar

StartChar: four
Encoding: 52 52 21
Width: 500
VWidth: 0
Flags: HW
LayerCount: 2
Back
Fore
SplineSet
0 499.75 m 1
 125 499.75 l 1
 125 624.75 l 1
 0 624.75 l 1
 0 499.75 l 1025
250 499.75 m 1
 375 499.75 l 1
 375 624.75 l 1
 250 624.75 l 1
 250 499.75 l 1025
0 374.75 m 1
 125 374.75 l 1
 125 499.75 l 1
 0 499.75 l 1
 0 374.75 l 1025
250 374.75 m 1
 375 374.75 l 1
 375 499.75 l 1
 250 499.75 l 1
 250 374.75 l 1025
0 249.75 m 1
 375 249.75 l 1
 375 374.75 l 1
 0 374.75 l 1
 0 249.75 l 1025
250 124.75 m 1
 375 124.75 l 1
 375 249.75 l 1
 250 249.75 l 1
 250 124.75 l 1025
250 -0.25 m 1
 375 -0.25 l 1
 375 124.75 l 1
 250 124.75 l 1
 250 -0.25 l 1
EndSplineSet
EndChar

StartChar: five
Encoding: 53 53 22
Width: 500
VWidth: 0
Flags: HW
LayerCount: 2
Back
Fore
SplineSet
0 499.75 m 1
 375 499.75 l 1
 375 624.75 l 1
 0 624.75 l 1
 0 499.75 l 1025
0 374.75 m 1
 125 374.75 l 1
 125 499.75 l 1
 0 499.75 l 1
 0 374.75 l 1025
0 249.75 m 1
 250 249.75 l 1
 250 374.75 l 1
 0 374.75 l 1
 0 249.75 l 1025
250 124.75 m 1
 375 124.75 l 1
 375 249.75 l 1
 250 249.75 l 1
 250 124.75 l 1025
0 -0.25 m 1
 250 -0.25 l 1
 250 124.75 l 1
 0 124.75 l 1
 0 -0.25 l 1
EndSplineSet
EndChar

StartChar: six
Encoding: 54 54 23
Width: 500
VWidth: 0
Flags: HW
LayerCount: 2
Back
Fore
SplineSet
125 499.75 m 1
 375 499.75 l 1
 375 624.75 l 1
 125 624.75 l 1
 125 499.75 l 1025
0 374.75 m 1
 125 374.75 l 1
 125 499.75 l 1
 0 499.75 l 1
 0 374.75 l 1025
0 249.75 m 1
 250 249.75 l 1
 250 374.75 l 1
 0 374.75 l 1
 0 249.75 l 1025
0 124.75 m 1
 125 124.75 l 1
 125 249.75 l 1
 0 249.75 l 1
 0 124.75 l 1025
250 124.75 m 1
 375 124.75 l 1
 375 249.75 l 1
 250 249.75 l 1
 250 124.75 l 1025
125 -0.25 m 1
 250 -0.25 l 1
 250 124.75 l 1
 125 124.75 l 1
 125 -0.25 l 1
EndSplineSet
EndChar

StartChar: seven
Encoding: 55 55 24
Width: 500
VWidth: 0
Flags: HW
LayerCount: 2
Back
Fore
SplineSet
0 499.75 m 1
 375 499.75 l 1
 375 624.75 l 1
 0 624.75 l 1
 0 499.75 l 1025
250 374.75 m 1
 375 374.75 l 1
 375 499.75 l 1
 250 499.75 l 1
 250 374.75 l 1025
125 249.75 m 1
 250 249.75 l 1
 250 374.75 l 1
 125 374.75 l 1
 125 249.75 l 1025
0 124.75 m 1
 125 124.75 l 1
 125 249.75 l 1
 0 249.75 l 1
 0 124.75 l 1025
0 -0.25 m 1
 125 -0.25 l 1
 125 124.75 l 1
 0 124.75 l 1
 0 -0.25 l 1
EndSplineSet
EndChar

StartChar: eight
Encoding: 56 56 25
Width: 500
VWidth: 0
Flags: HW
LayerCount: 2
Back
Fore
SplineSet
125 499.75 m 1
 375 499.75 l 1
 375 624.75 l 1
 125 624.75 l 1
 125 499.75 l 1025
0 374.75 m 1
 125 374.75 l 1
 125 499.75 l 1
 0 499.75 l 1
 0 374.75 l 1025
250 374.75 m 1
 375 374.75 l 1
 375 499.75 l 1
 250 499.75 l 1
 250 374.75 l 1025
125 249.75 m 1
 250 249.75 l 1
 250 374.75 l 1
 125 374.75 l 1
 125 249.75 l 1025
0 124.75 m 1
 125 124.75 l 1
 125 249.75 l 1
 0 249.75 l 1
 0 124.75 l 1025
250 124.75 m 1
 375 124.75 l 1
 375 249.75 l 1
 250 249.75 l 1
 250 124.75 l 1025
0 -0.25 m 1
 250 -0.25 l 1
 250 124.75 l 1
 0 124.75 l 1
 0 -0.25 l 1
EndSplineSet
EndChar

StartChar: nine
Encoding: 57 57 26
Width: 500
VWidth: 0
Flags: HW
LayerCount: 2
Back
Fore
SplineSet
125 499.75 m 1
 250 499.75 l 1
 250 624.75 l 1
 125 624.75 l 1
 125 499.75 l 1025
0 374.75 m 1
 125 374.75 l 1
 125 499.75 l 1
 0 499.75 l 1
 0 374.75 l 1025
250 374.75 m 1
 375 374.75 l 1
 375 499.75 l 1
 250 499.75 l 1
 250 374.75 l 1025
125 249.75 m 1
 375 249.75 l 1
 375 374.75 l 1
 125 374.75 l 1
 125 249.75 l 1025
250 124.75 m 1
 375 124.75 l 1
 375 249.75 l 1
 250 249.75 l 1
 250 124.75 l 1025
0 -0.25 m 1
 250 -0.25 l 1
 250 124.75 l 1
 0 124.75 l 1
 0 -0.25 l 1
EndSplineSet
EndChar

StartChar: colon
Encoding: 58 58 27
Width: 500
VWidth: 0
Flags: HW
LayerCount: 2
Back
Fore
SplineSet
125 374.75 m 1
 250 374.75 l 1
 250 499.75 l 1
 125 499.75 l 1
 125 374.75 l 1025
125 -0.25 m 1
 250 -0.25 l 1
 250 124.75 l 1
 125 124.75 l 1
 125 -0.25 l 1
EndSplineSet
EndChar

StartChar: semicolon
Encoding: 59 59 28
Width: 500
VWidth: 0
Flags: HW
LayerCount: 2
Back
Fore
SplineSet
125 374.75 m 1
 250 374.75 l 1
 250 499.75 l 1
 125 499.75 l 1
 125 374.75 l 1025
125 -0.25 m 1
 250 -0.25 l 1
 250 124.75 l 1
 125 124.75 l 1
 125 -0.25 l 1025
0 -125.25 m 1
 125 -125.25 l 1
 125 -0.25 l 1
 0 -0.25 l 1
 0 -125.25 l 1
EndSplineSet
EndChar

StartChar: less
Encoding: 60 60 29
Width: 500
VWidth: 0
Flags: HW
LayerCount: 2
Back
Fore
SplineSet
250 499.75 m 1
 375 499.75 l 1
 375 624.75 l 1
 250 624.75 l 1
 250 499.75 l 1025
125 374.75 m 1
 250 374.75 l 1
 250 499.75 l 1
 125 499.75 l 1
 125 374.75 l 1025
0 249.75 m 1
 125 249.75 l 1
 125 374.75 l 1
 0 374.75 l 1
 0 249.75 l 1025
125 124.75 m 1
 250 124.75 l 1
 250 249.75 l 1
 125 249.75 l 1
 125 124.75 l 1025
250 -0.25 m 1
 375 -0.25 l 1
 375 124.75 l 1
 250 124.75 l 1
 250 -0.25 l 1
EndSplineSet
EndChar

StartChar: equal
Encoding: 61 61 30
Width: 500
VWidth: 0
Flags: HW
LayerCount: 2
Back
Fore
SplineSet
0 374.75 m 1
 375 374.75 l 1
 375 499.75 l 1
 0 499.75 l 1
 0 374.75 l 1025
0 124.75 m 1
 375 124.75 l 1
 375 249.75 l 1
 0 249.75 l 1
 0 124.75 l 1
EndSplineSet
EndChar

StartChar: greater
Encoding: 62 62 31
Width: 500
VWidth: 0
Flags: HW
LayerCount: 2
Back
Fore
SplineSet
0 499.75 m 1
 125 499.75 l 1
 125 624.75 l 1
 0 624.75 l 1
 0 499.75 l 1025
125 374.75 m 1
 250 374.75 l 1
 250 499.75 l 1
 125 499.75 l 1
 125 374.75 l 1025
250 249.75 m 1
 375 249.75 l 1
 375 374.75 l 1
 250 374.75 l 1
 250 249.75 l 1025
125 124.75 m 1
 250 124.75 l 1
 250 249.75 l 1
 125 249.75 l 1
 125 124.75 l 1025
0 -0.25 m 1
 125 -0.25 l 1
 125 124.75 l 1
 0 124.75 l 1
 0 -0.25 l 1
EndSplineSet
EndChar

StartChar: question
Encoding: 63 63 32
Width: 500
VWidth: 0
Flags: HW
LayerCount: 2
Back
Fore
SplineSet
0 499.75 m 1
 250 499.75 l 1
 250 624.75 l 1
 0 624.75 l 1
 0 499.75 l 1025
250 374.75 m 1
 375 374.75 l 1
 375 499.75 l 1
 250 499.75 l 1
 250 374.75 l 1025
125 249.75 m 1
 250 249.75 l 1
 250 374.75 l 1
 125 374.75 l 1
 125 249.75 l 1025
125 -0.25 m 1
 250 -0.25 l 1
 250 124.75 l 1
 125 124.75 l 1
 125 -0.25 l 1
EndSplineSet
EndChar

StartChar: at
Encoding: 64 64 33
Width: 500
VWidth: 0
Flags: HW
LayerCount: 2
Back
Fore
SplineSet
125 499.75 m 1
 375 499.75 l 1
 375 624.75 l 1
 125 624.75 l 1
 125 499.75 l 1025
0 374.75 m 1
 125 374.75 l 1
 125 499.75 l 1
 0 499.75 l 1
 0 374.75 l 1025
250 374.75 m 1
 375 374.75 l 1
 375 499.75 l 1
 250 499.75 l 1
 250 374.75 l 1025
0 249.75 m 1
 125 249.75 l 1
 125 374.75 l 1
 0 374.75 l 1
 0 249.75 l 1025
250 249.75 m 1
 375 249.75 l 1
 375 374.75 l 1
 250 374.75 l 1
 250 249.75 l 1025
0 124.75 m 1
 125 124.75 l 1
 125 249.75 l 1
 0 249.75 l 1
 0 124.75 l 1025
125 -0.25 m 1
 375 -0.25 l 1
 375 124.75 l 1
 125 124.75 l 1
 125 -0.25 l 1
EndSplineSet
EndChar

StartChar: A
Encoding: 65 65 34
Width: 500
VWidth: 0
Flags: HW
LayerCount: 2
Back
Fore
SplineSet
125 499.75 m 1
 250 499.75 l 1
 250 624.75 l 1
 125 624.75 l 1
 125 499.75 l 1025
0 374.75 m 1
 125 374.75 l 1
 125 499.75 l 1
 0 499.75 l 1
 0 374.75 l 1025
250 374.75 m 1
 375 374.75 l 1
 375 499.75 l 1
 250 499.75 l 1
 250 374.75 l 1025
0 249.75 m 1
 375 249.75 l 1
 375 374.75 l 1
 0 374.75 l 1
 0 249.75 l 1025
0 124.75 m 1
 125 124.75 l 1
 125 249.75 l 1
 0 249.75 l 1
 0 124.75 l 1025
250 124.75 m 1
 375 124.75 l 1
 375 249.75 l 1
 250 249.75 l 1
 250 124.75 l 1025
0 -0.25 m 1
 125 -0.25 l 1
 125 124.75 l 1
 0 124.75 l 1
 0 -0.25 l 1025
250 -0.25 m 1
 375 -0.25 l 1
 375 124.75 l 1
 250 124.75 l 1
 250 -0.25 l 1
EndSplineSet
EndChar

StartChar: B
Encoding: 66 66 35
Width: 500
VWidth: 0
Flags: HW
LayerCount: 2
Back
Fore
SplineSet
0 499.75 m 1
 250 499.75 l 1
 250 624.75 l 1
 0 624.75 l 1
 0 499.75 l 1025
0 374.75 m 1
 125 374.75 l 1
 125 499.75 l 1
 0 499.75 l 1
 0 374.75 l 1025
250 374.75 m 1
 375 374.75 l 1
 375 499.75 l 1
 250 499.75 l 1
 250 374.75 l 1025
0 249.75 m 1
 250 249.75 l 1
 250 374.75 l 1
 0 374.75 l 1
 0 249.75 l 1025
0 124.75 m 1
 125 124.75 l 1
 125 249.75 l 1
 0 249.75 l 1
 0 124.75 l 1025
250 124.75 m 1
 375 124.75 l 1
 375 249.75 l 1
 250 249.75 l 1
 250 124.75 l 1025
0 -0.25 m 1
 250 -0.25 l 1
 250 124.75 l 1
 0 124.75 l 1
 0 -0.25 l 1
EndSplineSet
EndChar

StartChar: C
Encoding: 67 67 36
Width: 500
VWidth: 0
Flags: HW
LayerCount: 2
Back
Fore
SplineSet
125 499.75 m 1
 250 499.75 l 1
 250 624.75 l 1
 125 624.75 l 1
 125 499.75 l 1025
0 374.75 m 1
 125 374.75 l 1
 125 499.75 l 1
 0 499.75 l 1
 0 374.75 l 1025
250 374.75 m 1
 375 374.75 l 1
 375 499.75 l 1
 250 499.75 l 1
 250 374.75 l 1025
0 249.75 m 1
 125 249.75 l 1
 125 374.75 l 1
 0 374.75 l 1
 0 249.75 l 1025
0 124.75 m 1
 125 124.75 l 1
 125 249.75 l 1
 0 249.75 l 1
 0 124.75 l 1025
250 124.75 m 1
 375 124.75 l 1
 375 249.75 l 1
 250 249.75 l 1
 250 124.75 l 1025
125 -0.25 m 1
 250 -0.25 l 1
 250 124.75 l 1
 125 124.75 l 1
 125 -0.25 l 1
EndSplineSet
EndChar

StartChar: D
Encoding: 68 68 37
Width: 500
VWidth: 0
Flags: HW
LayerCount: 2
Back
Fore
SplineSet
0 499.75 m 1
 250 499.75 l 1
 250 624.75 l 1
 0 624.75 l 1
 0 499.75 l 1025
0 374.75 m 1
 125 374.75 l 1
 125 499.75 l 1
 0 499.75 l 1
 0 374.75 l 1025
250 374.75 m 1
 375 374.75 l 1
 375 499.75 l 1
 250 499.75 l 1
 250 374.75 l 1025
0 249.75 m 1
 125 249.75 l 1
 125 374.75 l 1
 0 374.75 l 1
 0 249.75 l 1025
250 249.75 m 1
 375 249.75 l 1
 375 374.75 l 1
 250 374.75 l 1
 250 249.75 l 1025
0 124.75 m 1
 125 124.75 l 1
 125 249.75 l 1
 0 249.75 l 1
 0 124.75 l 1025
250 124.75 m 1
 375 124.75 l 1
 375 249.75 l 1
 250 249.75 l 1
 250 124.75 l 1025
0 -0.25 m 1
 250 -0.25 l 1
 250 124.75 l 1
 0 124.75 l 1
 0 -0.25 l 1
EndSplineSet
EndChar

StartChar: E
Encoding: 69 69 38
Width: 500
VWidth: 0
Flags: HW
LayerCount: 2
Back
Fore
SplineSet
0 499.75 m 1
 375 499.75 l 1
 375 624.75 l 1
 0 624.75 l 1
 0 499.75 l 1025
0 374.75 m 1
 125 374.75 l 1
 125 499.75 l 1
 0 499.75 l 1
 0 374.75 l 1025
0 249.75 m 1
 250 249.75 l 1
 250 374.75 l 1
 0 374.75 l 1
 0 249.75 l 1025
0 124.75 m 1
 125 124.75 l 1
 125 249.75 l 1
 0 249.75 l 1
 0 124.75 l 1025
0 -0.25 m 1
 375 -0.25 l 1
 375 124.75 l 1
 0 124.75 l 1
 0 -0.25 l 1
EndSplineSet
EndChar

StartChar: F
Encoding: 70 70 39
Width: 500
VWidth: 0
Flags: HW
LayerCount: 2
Back
Fore
SplineSet
0 499.75 m 1
 375 499.75 l 1
 375 624.75 l 1
 0 624.75 l 1
 0 499.75 l 1025
0 374.75 m 1
 125 374.75 l 1
 125 499.75 l 1
 0 499.75 l 1
 0 374.75 l 1025
0 249.75 m 1
 250 249.75 l 1
 250 374.75 l 1
 0 374.75 l 1
 0 249.75 l 1025
0 124.75 m 1
 125 124.75 l 1
 125 249.75 l 1
 0 249.75 l 1
 0 124.75 l 1025
0 -0.25 m 1
 125 -0.25 l 1
 125 124.75 l 1
 0 124.75 l 1
 0 -0.25 l 1
EndSplineSet
EndChar

StartChar: G
Encoding: 71 71 40
Width: 500
VWidth: 0
Flags: HW
LayerCount: 2
Back
Fore
SplineSet
125 499.75 m 1
 375 499.75 l 1
 375 624.75 l 1
 125 624.75 l 1
 125 499.75 l 1025
0 374.75 m 1
 125 374.75 l 1
 125 499.75 l 1
 0 499.75 l 1
 0 374.75 l 1025
0 249.75 m 1
 125 249.75 l 1
 125 374.75 l 1
 0 374.75 l 1
 0 249.75 l 1025
250 249.75 m 1
 375 249.75 l 1
 375 374.75 l 1
 250 374.75 l 1
 250 249.75 l 1025
0 124.75 m 1
 125 124.75 l 1
 125 249.75 l 1
 0 249.75 l 1
 0 124.75 l 1025
250 124.75 m 1
 375 124.75 l 1
 375 249.75 l 1
 250 249.75 l 1
 250 124.75 l 1025
125 -0.25 m 1
 375 -0.25 l 1
 375 124.75 l 1
 125 124.75 l 1
 125 -0.25 l 1
EndSplineSet
EndChar

StartChar: H
Encoding: 72 72 41
Width: 500
VWidth: 0
Flags: HW
LayerCount: 2
Back
Fore
SplineSet
0 499.75 m 1
 125 499.75 l 1
 125 624.75 l 1
 0 624.75 l 1
 0 499.75 l 1025
250 499.75 m 1
 375 499.75 l 1
 375 624.75 l 1
 250 624.75 l 1
 250 499.75 l 1025
0 374.75 m 1
 125 374.75 l 1
 125 499.75 l 1
 0 499.75 l 1
 0 374.75 l 1025
250 374.75 m 1
 375 374.75 l 1
 375 499.75 l 1
 250 499.75 l 1
 250 374.75 l 1025
0 249.75 m 1
 375 249.75 l 1
 375 374.75 l 1
 0 374.75 l 1
 0 249.75 l 1025
0 124.75 m 1
 125 124.75 l 1
 125 249.75 l 1
 0 249.75 l 1
 0 124.75 l 1025
250 124.75 m 1
 375 124.75 l 1
 375 249.75 l 1
 250 249.75 l 1
 250 124.75 l 1025
0 -0.25 m 1
 125 -0.25 l 1
 125 124.75 l 1
 0 124.75 l 1
 0 -0.25 l 1025
250 -0.25 m 1
 375 -0.25 l 1
 375 124.75 l 1
 250 124.75 l 1
 250 -0.25 l 1
EndSplineSet
EndChar

StartChar: I
Encoding: 73 73 42
Width: 500
VWidth: 0
Flags: HW
LayerCount: 2
Back
Fore
SplineSet
0 499.75 m 1
 375 499.75 l 1
 375 624.75 l 1
 0 624.75 l 1
 0 499.75 l 1025
125 374.75 m 1
 250 374.75 l 1
 250 499.75 l 1
 125 499.75 l 1
 125 374.75 l 1025
125 249.75 m 1
 250 249.75 l 1
 250 374.75 l 1
 125 374.75 l 1
 125 249.75 l 1025
125 124.75 m 1
 250 124.75 l 1
 250 249.75 l 1
 125 249.75 l 1
 125 124.75 l 1025
0 -0.25 m 1
 375 -0.25 l 1
 375 124.75 l 1
 0 124.75 l 1
 0 -0.25 l 1
EndSplineSet
EndChar

StartChar: J
Encoding: 74 74 43
Width: 500
VWidth: 0
Flags: HW
LayerCount: 2
Back
Fore
SplineSet
250 499.75 m 1
 375 499.75 l 1
 375 624.75 l 1
 250 624.75 l 1
 250 499.75 l 1025
250 374.75 m 1
 375 374.75 l 1
 375 499.75 l 1
 250 499.75 l 1
 250 374.75 l 1025
250 249.75 m 1
 375 249.75 l 1
 375 374.75 l 1
 250 374.75 l 1
 250 249.75 l 1025
0 124.75 m 1
 125 124.75 l 1
 125 249.75 l 1
 0 249.75 l 1
 0 124.75 l 1025
250 124.75 m 1
 375 124.75 l 1
 375 249.75 l 1
 250 249.75 l 1
 250 124.75 l 1025
125 -0.25 m 1
 250 -0.25 l 1
 250 124.75 l 1
 125 124.75 l 1
 125 -0.25 l 1
EndSplineSet
EndChar

StartChar: K
Encoding: 75 75 44
Width: 500
VWidth: 0
Flags: HW
LayerCount: 2
Back
Fore
SplineSet
0 499.75 m 1
 125 499.75 l 1
 125 624.75 l 1
 0 624.75 l 1
 0 499.75 l 1025
250 499.75 m 1
 375 499.75 l 1
 375 624.75 l 1
 250 624.75 l 1
 250 499.75 l 1025
0 374.75 m 1
 125 374.75 l 1
 125 499.75 l 1
 0 499.75 l 1
 0 374.75 l 1025
250 374.75 m 1
 375 374.75 l 1
 375 499.75 l 1
 250 499.75 l 1
 250 374.75 l 1025
0 249.75 m 1
 250 249.75 l 1
 250 374.75 l 1
 0 374.75 l 1
 0 249.75 l 1025
0 124.75 m 1
 125 124.75 l 1
 125 249.75 l 1
 0 249.75 l 1
 0 124.75 l 1025
250 124.75 m 1
 375 124.75 l 1
 375 249.75 l 1
 250 249.75 l 1
 250 124.75 l 1025
0 -0.25 m 1
 125 -0.25 l 1
 125 124.75 l 1
 0 124.75 l 1
 0 -0.25 l 1025
250 -0.25 m 1
 375 -0.25 l 1
 375 124.75 l 1
 250 124.75 l 1
 250 -0.25 l 1
EndSplineSet
EndChar

StartChar: L
Encoding: 76 76 45
Width: 500
VWidth: 0
Flags: HW
LayerCount: 2
Back
Fore
SplineSet
0 499.75 m 1
 125 499.75 l 1
 125 624.75 l 1
 0 624.75 l 1
 0 499.75 l 1025
0 374.75 m 1
 125 374.75 l 1
 125 499.75 l 1
 0 499.75 l 1
 0 374.75 l 1025
0 249.75 m 1
 125 249.75 l 1
 125 374.75 l 1
 0 374.75 l 1
 0 249.75 l 1025
0 124.75 m 1
 125 124.75 l 1
 125 249.75 l 1
 0 249.75 l 1
 0 124.75 l 1025
0 -0.25 m 1
 375 -0.25 l 1
 375 124.75 l 1
 0 124.75 l 1
 0 -0.25 l 1
EndSplineSet
EndChar

StartChar: M
Encoding: 77 77 46
Width: 500
VWidth: 0
Flags: HW
LayerCount: 2
Back
Fore
SplineSet
0 499.75 m 1
 125 499.75 l 1
 125 624.75 l 1
 0 624.75 l 1
 0 499.75 l 1025
250 499.75 m 1
 375 499.75 l 1
 375 624.75 l 1
 250 624.75 l 1
 250 499.75 l 1025
0 374.75 m 1
 375 374.75 l 1
 375 499.75 l 1
 0 499.75 l 1
 0 374.75 l 1025
0 249.75 m 1
 375 249.75 l 1
 375 374.75 l 1
 0 374.75 l 1
 0 249.75 l 1025
0 124.75 m 1
 125 124.75 l 1
 125 249.75 l 1
 0 249.75 l 1
 0 124.75 l 1025
250 124.75 m 1
 375 124.75 l 1
 375 249.75 l 1
 250 249.75 l 1
 250 124.75 l 1025
0 -0.25 m 1
 125 -0.25 l 1
 125 124.75 l 1
 0 124.75 l 1
 0 -0.25 l 1025
250 -0.25 m 1
 375 -0.25 l 1
 375 124.75 l 1
 250 124.75 l 1
 250 -0.25 l 1
EndSplineSet
EndChar

StartChar: N
Encoding: 78 78 47
Width: 500
VWidth: 0
Flags: HW
LayerCount: 2
Back
Fore
SplineSet
250 499.75 m 1
 375 499.75 l 1
 375 624.75 l 1
 250 624.75 l 1
 250 499.75 l 1025
0 374.75 m 1
 125 374.75 l 1
 125 499.75 l 1
 0 499.75 l 1
 0 374.75 l 1025
250 374.75 m 1
 375 374.75 l 1
 375 499.75 l 1
 250 499.75 l 1
 250 374.75 l 1025
0 249.75 m 1
 375 249.75 l 1
 375 374.75 l 1
 0 374.75 l 1
 0 249.75 l 1025
0 124.75 m 1
 125 124.75 l 1
 125 249.75 l 1
 0 249.75 l 1
 0 124.75 l 1025
250 124.75 m 1
 375 124.75 l 1
 375 249.75 l 1
 250 249.75 l 1
 250 124.75 l 1025
0 -0.25 m 1
 125 -0.25 l 1
 125 124.75 l 1
 0 124.75 l 1
 0 -0.25 l 1
EndSplineSet
EndChar

StartChar: O
Encoding: 79 79 48
Width: 500
VWidth: 0
Flags: HW
LayerCount: 2
Back
Fore
SplineSet
125 499.75 m 1
 250 499.75 l 1
 250 624.75 l 1
 125 624.75 l 1
 125 499.75 l 1025
0 374.75 m 1
 125 374.75 l 1
 125 499.75 l 1
 0 499.75 l 1
 0 374.75 l 1025
250 374.75 m 1
 375 374.75 l 1
 375 499.75 l 1
 250 499.75 l 1
 250 374.75 l 1025
0 249.75 m 1
 125 249.75 l 1
 125 374.75 l 1
 0 374.75 l 1
 0 249.75 l 1025
250 249.75 m 1
 375 249.75 l 1
 375 374.75 l 1
 250 374.75 l 1
 250 249.75 l 1025
0 124.75 m 1
 125 124.75 l 1
 125 249.75 l 1
 0 249.75 l 1
 0 124.75 l 1025
250 124.75 m 1
 375 124.75 l 1
 375 249.75 l 1
 250 249.75 l 1
 250 124.75 l 1025
125 -0.25 m 1
 250 -0.25 l 1
 250 124.75 l 1
 125 124.75 l 1
 125 -0.25 l 1
EndSplineSet
EndChar

StartChar: P
Encoding: 80 80 49
Width: 500
VWidth: 0
Flags: HW
LayerCount: 2
Back
Fore
SplineSet
0 499.75 m 1
 250 499.75 l 1
 250 624.75 l 1
 0 624.75 l 1
 0 499.75 l 1025
0 374.75 m 1
 125 374.75 l 1
 125 499.75 l 1
 0 499.75 l 1
 0 374.75 l 1025
250 374.75 m 1
 375 374.75 l 1
 375 499.75 l 1
 250 499.75 l 1
 250 374.75 l 1025
0 249.75 m 1
 250 249.75 l 1
 250 374.75 l 1
 0 374.75 l 1
 0 249.75 l 1025
0 124.75 m 1
 125 124.75 l 1
 125 249.75 l 1
 0 249.75 l 1
 0 124.75 l 1025
0 -0.25 m 1
 125 -0.25 l 1
 125 124.75 l 1
 0 124.75 l 1
 0 -0.25 l 1
EndSplineSet
EndChar

StartChar: Q
Encoding: 81 81 50
Width: 500
VWidth: 0
Flags: HW
LayerCount: 2
Back
Fore
SplineSet
125 499.75 m 1
 250 499.75 l 1
 250 624.75 l 1
 125 624.75 l 1
 125 499.75 l 1025
0 374.75 m 1
 125 374.75 l 1
 125 499.75 l 1
 0 499.75 l 1
 0 374.75 l 1025
250 374.75 m 1
 375 374.75 l 1
 375 499.75 l 1
 250 499.75 l 1
 250 374.75 l 1025
0 249.75 m 1
 125 249.75 l 1
 125 374.75 l 1
 0 374.75 l 1
 0 249.75 l 1025
250 249.75 m 1
 375 249.75 l 1
 375 374.75 l 1
 250 374.75 l 1
 250 249.75 l 1025
0 124.75 m 1
 125 124.75 l 1
 125 249.75 l 1
 0 249.75 l 1
 0 124.75 l 1025
250 124.75 m 1
 375 124.75 l 1
 375 249.75 l 1
 250 249.75 l 1
 250 124.75 l 1025
125 -0.25 m 1
 250 -0.25 l 1
 250 124.75 l 1
 125 124.75 l 1
 125 -0.25 l 1025
250 -125.25 m 1
 375 -125.25 l 1
 375 -0.25 l 1
 250 -0.25 l 1
 250 -125.25 l 1
EndSplineSet
EndChar

StartChar: R
Encoding: 82 82 51
Width: 500
VWidth: 0
Flags: HW
LayerCount: 2
Back
Fore
SplineSet
0 499.75 m 1
 250 499.75 l 1
 250 624.75 l 1
 0 624.75 l 1
 0 499.75 l 1025
0 374.75 m 1
 125 374.75 l 1
 125 499.75 l 1
 0 499.75 l 1
 0 374.75 l 1025
250 374.75 m 1
 375 374.75 l 1
 375 499.75 l 1
 250 499.75 l 1
 250 374.75 l 1025
0 249.75 m 1
 250 249.75 l 1
 250 374.75 l 1
 0 374.75 l 1
 0 249.75 l 1025
0 124.75 m 1
 125 124.75 l 1
 125 249.75 l 1
 0 249.75 l 1
 0 124.75 l 1025
250 124.75 m 1
 375 124.75 l 1
 375 249.75 l 1
 250 249.75 l 1
 250 124.75 l 1025
0 -0.25 m 1
 125 -0.25 l 1
 125 124.75 l 1
 0 124.75 l 1
 0 -0.25 l 1025
250 -0.25 m 1
 375 -0.25 l 1
 375 124.75 l 1
 250 124.75 l 1
 250 -0.25 l 1
EndSplineSet
EndChar

StartChar: S
Encoding: 83 83 52
Width: 500
VWidth: 0
Flags: HW
LayerCount: 2
Back
Fore
SplineSet
125 499.75 m 1
 375 499.75 l 1
 375 624.75 l 1
 125 624.75 l 1
 125 499.75 l 1025
0 374.75 m 1
 125 374.75 l 1
 125 499.75 l 1
 0 499.75 l 1
 0 374.75 l 1025
125 249.75 m 1
 250 249.75 l 1
 250 374.75 l 1
 125 374.75 l 1
 125 249.75 l 1025
250 124.75 m 1
 375 124.75 l 1
 375 249.75 l 1
 250 249.75 l 1
 250 124.75 l 1025
0 -0.25 m 1
 250 -0.25 l 1
 250 124.75 l 1
 0 124.75 l 1
 0 -0.25 l 1
EndSplineSet
EndChar

StartChar: T
Encoding: 84 84 53
Width: 500
VWidth: 0
Flags: HW
LayerCount: 2
Back
Fore
SplineSet
0 499.75 m 1
 375 499.75 l 1
 375 624.75 l 1
 0 624.75 l 1
 0 499.75 l 1025
125 374.75 m 1
 250 374.75 l 1
 250 499.75 l 1
 125 499.75 l 1
 125 374.75 l 1025
125 249.75 m 1
 250 249.75 l 1
 250 374.75 l 1
 125 374.75 l 1
 125 249.75 l 1025
125 124.75 m 1
 250 124.75 l 1
 250 249.75 l 1
 125 249.75 l 1
 125 124.75 l 1025
125 -0.25 m 1
 250 -0.25 l 1
 250 124.75 l 1
 125 124.75 l 1
 125 -0.25 l 1
EndSplineSet
EndChar

StartChar: U
Encoding: 85 85 54
Width: 500
VWidth: 0
Flags: HW
LayerCount: 2
Back
Fore
SplineSet
0 499.75 m 1
 125 499.75 l 1
 125 624.75 l 1
 0 624.75 l 1
 0 499.75 l 1025
250 499.75 m 1
 375 499.75 l 1
 375 624.75 l 1
 250 624.75 l 1
 250 499.75 l 1025
0 374.75 m 1
 125 374.75 l 1
 125 499.75 l 1
 0 499.75 l 1
 0 374.75 l 1025
250 374.75 m 1
 375 374.75 l 1
 375 499.75 l 1
 250 499.75 l 1
 250 374.75 l 1025
0 249.75 m 1
 125 249.75 l 1
 125 374.75 l 1
 0 374.75 l 1
 0 249.75 l 1025
250 249.75 m 1
 375 249.75 l 1
 375 374.75 l 1
 250 374.75 l 1
 250 249.75 l 1025
0 124.75 m 1
 125 124.75 l 1
 125 249.75 l 1
 0 249.75 l 1
 0 124.75 l 1025
250 124.75 m 1
 375 124.75 l 1
 375 249.75 l 1
 250 249.75 l 1
 250 124.75 l 1025
0 -0.25 m 1
 375 -0.25 l 1
 375 124.75 l 1
 0 124.75 l 1
 0 -0.25 l 1
EndSplineSet
EndChar

StartChar: V
Encoding: 86 86 55
Width: 500
VWidth: 0
Flags: HW
LayerCount: 2
Back
Fore
SplineSet
0 499.75 m 1
 125 499.75 l 1
 125 624.75 l 1
 0 624.75 l 1
 0 499.75 l 1025
250 499.75 m 1
 375 499.75 l 1
 375 624.75 l 1
 250 624.75 l 1
 250 499.75 l 1025
0 374.75 m 1
 125 374.75 l 1
 125 499.75 l 1
 0 499.75 l 1
 0 374.75 l 1025
250 374.75 m 1
 375 374.75 l 1
 375 499.75 l 1
 250 499.75 l 1
 250 374.75 l 1025
0 249.75 m 1
 125 249.75 l 1
 125 374.75 l 1
 0 374.75 l 1
 0 249.75 l 1025
250 249.75 m 1
 375 249.75 l 1
 375 374.75 l 1
 250 374.75 l 1
 250 249.75 l 1025
0 124.75 m 1
 375 124.75 l 1
 375 249.75 l 1
 0 249.75 l 1
 0 124.75 l 1025
125 -0.25 m 1
 250 -0.25 l 1
 250 124.75 l 1
 125 124.75 l 1
 125 -0.25 l 1
EndSplineSet
EndChar

StartChar: W
Encoding: 87 87 56
Width: 500
VWidth: 0
Flags: HW
LayerCount: 2
Back
Fore
SplineSet
0 499.75 m 1
 125 499.75 l 1
 125 624.75 l 1
 0 624.75 l 1
 0 499.75 l 1025
250 499.75 m 1
 375 499.75 l 1
 375 624.75 l 1
 250 624.75 l 1
 250 499.75 l 1025
0 374.75 m 1
 125 374.75 l 1
 125 499.75 l 1
 0 499.75 l 1
 0 374.75 l 1025
250 374.75 m 1
 375 374.75 l 1
 375 499.75 l 1
 250 499.75 l 1
 250 374.75 l 1025
0 249.75 m 1
 375 249.75 l 1
 375 374.75 l 1
 0 374.75 l 1
 0 249.75 l 1025
0 124.75 m 1
 375 124.75 l 1
 375 249.75 l 1
 0 249.75 l 1
 0 124.75 l 1025
0 -0.25 m 1
 125 -0.25 l 1
 125 124.75 l 1
 0 124.75 l 1
 0 -0.25 l 1025
250 -0.25 m 1
 375 -0.25 l 1
 375 124.75 l 1
 250 124.75 l 1
 250 -0.25 l 1
EndSplineSet
EndChar

StartChar: X
Encoding: 88 88 57
Width: 500
VWidth: 0
Flags: HW
LayerCount: 2
Back
Fore
SplineSet
0 499.75 m 1
 125 499.75 l 1
 125 624.75 l 1
 0 624.75 l 1
 0 499.75 l 1025
250 499.75 m 1
 375 499.75 l 1
 375 624.75 l 1
 250 624.75 l 1
 250 499.75 l 1025
0 374.75 m 1
 125 374.75 l 1
 125 499.75 l 1
 0 499.75 l 1
 0 374.75 l 1025
250 374.75 m 1
 375 374.75 l 1
 375 499.75 l 1
 250 499.75 l 1
 250 374.75 l 1025
125 249.75 m 1
 250 249.75 l 1
 250 374.75 l 1
 125 374.75 l 1
 125 249.75 l 1025
0 124.75 m 1
 125 124.75 l 1
 125 249.75 l 1
 0 249.75 l 1
 0 124.75 l 1025
250 124.75 m 1
 375 124.75 l 1
 375 249.75 l 1
 250 249.75 l 1
 250 124.75 l 1025
0 -0.25 m 1
 125 -0.25 l 1
 125 124.75 l 1
 0 124.75 l 1
 0 -0.25 l 1025
250 -0.25 m 1
 375 -0.25 l 1
 375 124.75 l 1
 250 124.75 l 1
 250 -0.25 l 1
EndSplineSet
EndChar

StartChar: Y
Encoding: 89 89 58
Width: 500
VWidth: 0
Flags: HW
LayerCount: 2
Back
Fore
SplineSet
0 499.75 m 1
 125 499.75 l 1
 125 624.75 l 1
 0 624.75 l 1
 0 499.75 l 1025
250 499.75 m 1
 375 499.75 l 1
 375 624.75 l 1
 250 624.75 l 1
 250 499.75 l 1025
0 374.75 m 1
 125 374.75 l 1
 125 499.75 l 1
 0 499.75 l 1
 0 374.75 l 1025
250 374.75 m 1
 375 374.75 l 1
 375 499.75 l 1
 250 499.75 l 1
 250 374.75 l 1025
125 249.75 m 1
 250 249.75 l 1
 250 374.75 l 1
 125 374.75 l 1
 125 249.75 l 1025
125 124.75 m 1
 250 124.75 l 1
 250 249.75 l 1
 125 249.75 l 1
 125 124.75 l 1025
125 -0.25 m 1
 250 -0.25 l 1
 250 124.75 l 1
 125 124.75 l 1
 125 -0.25 l 1
EndSplineSet
EndChar

StartChar: Z
Encoding: 90 90 59
Width: 500
VWidth: 0
Flags: HW
LayerCount: 2
Back
Fore
SplineSet
0 499.75 m 1
 375 499.75 l 1
 375 624.75 l 1
 0 624.75 l 1
 0 499.75 l 1025
250 374.75 m 1
 375 374.75 l 1
 375 499.75 l 1
 250 499.75 l 1
 250 374.75 l 1025
125 249.75 m 1
 250 249.75 l 1
 250 374.75 l 1
 125 374.75 l 1
 125 249.75 l 1025
0 124.75 m 1
 125 124.75 l 1
 125 249.75 l 1
 0 249.75 l 1
 0 124.75 l 1025
0 -0.25 m 1
 375 -0.25 l 1
 375 124.75 l 1
 0 124.75 l 1
 0 -0.25 l 1
EndSplineSet
EndChar

StartChar: bracketleft
Encoding: 91 91 60
Width: 500
VWidth: 0
Flags: HW
LayerCount: 2
Back
Fore
SplineSet
125 499.75 m 1
 375 499.75 l 1
 375 624.75 l 1
 125 624.75 l 1
 125 499.75 l 1025
125 374.75 m 1
 250 374.75 l 1
 250 499.75 l 1
 125 499.75 l 1
 125 374.75 l 1025
125 249.75 m 1
 250 249.75 l 1
 250 374.75 l 1
 125 374.75 l 1
 125 249.75 l 1025
125 124.75 m 1
 250 124.75 l 1
 250 249.75 l 1
 125 249.75 l 1
 125 124.75 l 1025
125 -0.25 m 1
 375 -0.25 l 1
 375 124.75 l 1
 125 124.75 l 1
 125 -0.25 l 1
EndSplineSet
EndChar

StartChar: backslash
Encoding: 92 92 61
Width: 500
VWidth: 0
Flags: HW
LayerCount: 2
Back
Fore
SplineSet
0 499.75 m 1
 125 499.75 l 1
 125 624.75 l 1
 0 624.75 l 1
 0 499.75 l 1025
0 374.75 m 1
 125 374.75 l 1
 125 499.75 l 1
 0 499.75 l 1
 0 374.75 l 1025
125 249.75 m 1
 250 249.75 l 1
 250 374.75 l 1
 125 374.75 l 1
 125 249.75 l 1025
250 124.75 m 1
 375 124.75 l 1
 375 249.75 l 1
 250 249.75 l 1
 250 124.75 l 1025
250 -0.25 m 1
 375 -0.25 l 1
 375 124.75 l 1
 250 124.75 l 1
 250 -0.25 l 1
EndSplineSet
EndChar

StartChar: bracketright
Encoding: 93 93 62
Width: 500
VWidth: 0
Flags: HW
LayerCount: 2
Back
Fore
SplineSet
0 499.75 m 1
 250 499.75 l 1
 250 624.75 l 1
 0 624.75 l 1
 0 499.75 l 1025
125 374.75 m 1
 250 374.75 l 1
 250 499.75 l 1
 125 499.75 l 1
 125 374.75 l 1025
125 249.75 m 1
 250 249.75 l 1
 250 374.75 l 1
 125 374.75 l 1
 125 249.75 l 1025
125 124.75 m 1
 250 124.75 l 1
 250 249.75 l 1
 125 249.75 l 1
 125 124.75 l 1025
0 -0.25 m 1
 250 -0.25 l 1
 250 124.75 l 1
 0 124.75 l 1
 0 -0.25 l 1
EndSplineSet
EndChar

StartChar: asciicircum
Encoding: 94 94 63
Width: 500
VWidth: 0
Flags: HW
LayerCount: 2
Back
Fore
SplineSet
125 499.75 m 1
 250 499.75 l 1
 250 624.75 l 1
 125 624.75 l 1
 125 499.75 l 1025
0 374.75 m 1
 125 374.75 l 1
 125 499.75 l 1
 0 499.75 l 1
 0 374.75 l 1025
250 374.75 m 1
 375 374.75 l 1
 375 499.75 l 1
 250 499.75 l 1
 250 374.75 l 1
EndSplineSet
EndChar

StartChar: underscore
Encoding: 95 95 64
Width: 500
VWidth: 0
Flags: HW
LayerCount: 2
Back
Fore
SplineSet
0 -125.25 m 1
 375 -125.25 l 1
 375 -0.25 l 1
 0 -0.25 l 1
 0 -125.25 l 1
EndSplineSet
EndChar

StartChar: grave
Encoding: 96 96 65
Width: 500
VWidth: 0
Flags: HW
LayerCount: 2
Back
Fore
SplineSet
125 499.75 m 1
 250 499.75 l 1
 250 624.75 l 1
 125 624.75 l 1
 125 499.75 l 1025
250 374.75 m 1
 375 374.75 l 1
 375 499.75 l 1
 250 499.75 l 1
 250 374.75 l 1
EndSplineSet
EndChar

StartChar: a
Encoding: 97 97 66
Width: 500
VWidth: 0
Flags: HW
LayerCount: 2
Back
Fore
SplineSet
125 374.75 m 1
 375 374.75 l 1
 375 499.75 l 1
 125 499.75 l 1
 125 374.75 l 1025
0 249.75 m 1
 125 249.75 l 1
 125 374.75 l 1
 0 374.75 l 1
 0 249.75 l 1025
250 249.75 m 1
 375 249.75 l 1
 375 374.75 l 1
 250 374.75 l 1
 250 249.75 l 1025
0 124.75 m 1
 125 124.75 l 1
 125 249.75 l 1
 0 249.75 l 1
 0 124.75 l 1025
250 124.75 m 1
 375 124.75 l 1
 375 249.75 l 1
 250 249.75 l 1
 250 124.75 l 1025
125 -0.25 m 1
 375 -0.25 l 1
 375 124.75 l 1
 125 124.75 l 1
 125 -0.25 l 1
EndSplineSet
EndChar

StartChar: b
Encoding: 98 98 67
Width: 500
VWidth: 0
Flags: HW
LayerCount: 2
Back
Fore
SplineSet
0 499.75 m 1
 125 499.75 l 1
 125 624.75 l 1
 0 624.75 l 1
 0 499.75 l 1025
0 374.75 m 1
 250 374.75 l 1
 250 499.75 l 1
 0 499.75 l 1
 0 374.75 l 1025
0 249.75 m 1
 125 249.75 l 1
 125 374.75 l 1
 0 374.75 l 1
 0 249.75 l 1025
250 249.75 m 1
 375 249.75 l 1
 375 374.75 l 1
 250 374.75 l 1
 250 249.75 l 1025
0 124.75 m 1
 125 124.75 l 1
 125 249.75 l 1
 0 249.75 l 1
 0 124.75 l 1025
250 124.75 m 1
 375 124.75 l 1
 375 249.75 l 1
 250 249.75 l 1
 250 124.75 l 1025
0 -0.25 m 1
 250 -0.25 l 1
 250 124.75 l 1
 0 124.75 l 1
 0 -0.25 l 1
EndSplineSet
EndChar

StartChar: c
Encoding: 99 99 68
Width: 500
VWidth: 0
Flags: HW
LayerCount: 2
Back
Fore
SplineSet
125 374.75 m 1
 375 374.75 l 1
 375 499.75 l 1
 125 499.75 l 1
 125 374.75 l 1025
0 249.75 m 1
 125 249.75 l 1
 125 374.75 l 1
 0 374.75 l 1
 0 249.75 l 1025
0 124.75 m 1
 125 124.75 l 1
 125 249.75 l 1
 0 249.75 l 1
 0 124.75 l 1025
125 -0.25 m 1
 375 -0.25 l 1
 375 124.75 l 1
 125 124.75 l 1
 125 -0.25 l 1
EndSplineSet
EndChar

StartChar: d
Encoding: 100 100 69
Width: 500
VWidth: 0
Flags: HW
LayerCount: 2
Back
Fore
SplineSet
250 499.75 m 1
 375 499.75 l 1
 375 624.75 l 1
 250 624.75 l 1
 250 499.75 l 1025
125 374.75 m 1
 375 374.75 l 1
 375 499.75 l 1
 125 499.75 l 1
 125 374.75 l 1025
0 249.75 m 1
 125 249.75 l 1
 125 374.75 l 1
 0 374.75 l 1
 0 249.75 l 1025
250 249.75 m 1
 375 249.75 l 1
 375 374.75 l 1
 250 374.75 l 1
 250 249.75 l 1025
0 124.75 m 1
 125 124.75 l 1
 125 249.75 l 1
 0 249.75 l 1
 0 124.75 l 1025
250 124.75 m 1
 375 124.75 l 1
 375 249.75 l 1
 250 249.75 l 1
 250 124.75 l 1025
125 -0.25 m 1
 375 -0.25 l 1
 375 124.75 l 1
 125 124.75 l 1
 125 -0.25 l 1
EndSplineSet
EndChar

StartChar: e
Encoding: 101 101 70
Width: 500
VWidth: 0
Flags: HW
LayerCount: 2
Back
Fore
SplineSet
125 374.75 m 1
 250 374.75 l 1
 250 499.75 l 1
 125 499.75 l 1
 125 374.75 l 1025
0 249.75 m 1
 125 249.75 l 1
 125 374.75 l 1
 0 374.75 l 1
 0 249.75 l 1025
250 249.75 m 1
 375 249.75 l 1
 375 374.75 l 1
 250 374.75 l 1
 250 249.75 l 1025
0 124.75 m 1
 250 124.75 l 1
 250 249.75 l 1
 0 249.75 l 1
 0 124.75 l 1025
125 -0.25 m 1
 375 -0.25 l 1
 375 124.75 l 1
 125 124.75 l 1
 125 -0.25 l 1
EndSplineSet
EndChar

StartChar: f
Encoding: 102 102 71
Width: 500
VWidth: 0
Flags: HW
LayerCount: 2
Back
Fore
SplineSet
250 499.75 m 1
 375 499.75 l 1
 375 624.75 l 1
 250 624.75 l 1
 250 499.75 l 1025
125 374.75 m 1
 250 374.75 l 1
 250 499.75 l 1
 125 499.75 l 1
 125 374.75 l 1025
0 249.75 m 1
 375 249.75 l 1
 375 374.75 l 1
 0 374.75 l 1
 0 249.75 l 1025
125 124.75 m 1
 250 124.75 l 1
 250 249.75 l 1
 125 249.75 l 1
 125 124.75 l 1025
125 -0.25 m 1
 250 -0.25 l 1
 250 124.75 l 1
 125 124.75 l 1
 125 -0.25 l 1
EndSplineSet
EndChar

StartChar: g
Encoding: 103 103 72
Width: 500
VWidth: 0
Flags: HW
LayerCount: 2
Back
Fore
SplineSet
125 374.75 m 1
 375 374.75 l 1
 375 499.75 l 1
 125 499.75 l 1
 125 374.75 l 1025
0 249.75 m 1
 125 249.75 l 1
 125 374.75 l 1
 0 374.75 l 1
 0 249.75 l 1025
250 249.75 m 1
 375 249.75 l 1
 375 374.75 l 1
 250 374.75 l 1
 250 249.75 l 1025
125 124.75 m 1
 375 124.75 l 1
 375 249.75 l 1
 125 249.75 l 1
 125 124.75 l 1025
250 -0.25 m 1
 375 -0.25 l 1
 375 124.75 l 1
 250 124.75 l 1
 250 -0.25 l 1025
0 -125.25 m 1
 250 -125.25 l 1
 250 -0.25 l 1
 0 -0.25 l 1
 0 -125.25 l 1
EndSplineSet
EndChar

StartChar: h
Encoding: 104 104 73
Width: 500
VWidth: 0
Flags: HW
LayerCount: 2
Back
Fore
SplineSet
0 499.75 m 1
 125 499.75 l 1
 125 624.75 l 1
 0 624.75 l 1
 0 499.75 l 1025
0 374.75 m 1
 250 374.75 l 1
 250 499.75 l 1
 0 499.75 l 1
 0 374.75 l 1025
0 249.75 m 1
 125 249.75 l 1
 125 374.75 l 1
 0 374.75 l 1
 0 249.75 l 1025
250 249.75 m 1
 375 249.75 l 1
 375 374.75 l 1
 250 374.75 l 1
 250 249.75 l 1025
0 124.75 m 1
 125 124.75 l 1
 125 249.75 l 1
 0 249.75 l 1
 0 124.75 l 1025
250 124.75 m 1
 375 124.75 l 1
 375 249.75 l 1
 250 249.75 l 1
 250 124.75 l 1025
0 -0.25 m 1
 125 -0.25 l 1
 125 124.75 l 1
 0 124.75 l 1
 0 -0.25 l 1025
250 -0.25 m 1
 375 -0.25 l 1
 375 124.75 l 1
 250 124.75 l 1
 250 -0.25 l 1
EndSplineSet
EndChar

StartChar: i
Encoding: 105 105 74
Width: 500
VWidth: 0
Flags: HW
LayerCount: 2
Back
Fore
SplineSet
125 499.75 m 1
 250 499.75 l 1
 250 624.75 l 1
 125 624.75 l 1
 125 499.75 l 1025
0 249.75 m 1
 250 249.75 l 1
 250 374.75 l 1
 0 374.75 l 1
 0 249.75 l 1025
125 124.75 m 1
 250 124.75 l 1
 250 249.75 l 1
 125 249.75 l 1
 125 124.75 l 1025
0 -0.25 m 1
 375 -0.25 l 1
 375 124.75 l 1
 0 124.75 l 1
 0 -0.25 l 1
EndSplineSet
EndChar

StartChar: j
Encoding: 106 106 75
Width: 500
VWidth: 0
Flags: HW
LayerCount: 2
Back
Fore
SplineSet
250 499.75 m 1
 375 499.75 l 1
 375 624.75 l 1
 250 624.75 l 1
 250 499.75 l 1025
250 249.75 m 1
 375 249.75 l 1
 375 374.75 l 1
 250 374.75 l 1
 250 249.75 l 1025
250 124.75 m 1
 375 124.75 l 1
 375 249.75 l 1
 250 249.75 l 1
 250 124.75 l 1025
250 -0.25 m 1
 375 -0.25 l 1
 375 124.75 l 1
 250 124.75 l 1
 250 -0.25 l 1025
0 -125.25 m 1
 250 -125.25 l 1
 250 -0.25 l 1
 0 -0.25 l 1
 0 -125.25 l 1
EndSplineSet
EndChar

StartChar: k
Encoding: 107 107 76
Width: 500
VWidth: 0
Flags: HW
LayerCount: 2
Back
Fore
SplineSet
0 499.75 m 1
 125 499.75 l 1
 125 624.75 l 1
 0 624.75 l 1
 0 499.75 l 1025
0 374.75 m 1
 125 374.75 l 1
 125 499.75 l 1
 0 499.75 l 1
 0 374.75 l 1025
250 374.75 m 1
 375 374.75 l 1
 375 499.75 l 1
 250 499.75 l 1
 250 374.75 l 1025
0 249.75 m 1
 250 249.75 l 1
 250 374.75 l 1
 0 374.75 l 1
 0 249.75 l 1025
0 124.75 m 1
 125 124.75 l 1
 125 249.75 l 1
 0 249.75 l 1
 0 124.75 l 1025
250 124.75 m 1
 375 124.75 l 1
 375 249.75 l 1
 250 249.75 l 1
 250 124.75 l 1025
0 -0.25 m 1
 125 -0.25 l 1
 125 124.75 l 1
 0 124.75 l 1
 0 -0.25 l 1025
250 -0.25 m 1
 375 -0.25 l 1
 375 124.75 l 1
 250 124.75 l 1
 250 -0.25 l 1
EndSplineSet
EndChar

StartChar: l
Encoding: 108 108 77
Width: 500
VWidth: 0
Flags: HW
LayerCount: 2
Back
Fore
SplineSet
0 499.75 m 1
 250 499.75 l 1
 250 624.75 l 1
 0 624.75 l 1
 0 499.75 l 1025
125 374.75 m 1
 250 374.75 l 1
 250 499.75 l 1
 125 499.75 l 1
 125 374.75 l 1025
125 249.75 m 1
 250 249.75 l 1
 250 374.75 l 1
 125 374.75 l 1
 125 249.75 l 1025
125 124.75 m 1
 250 124.75 l 1
 250 249.75 l 1
 125 249.75 l 1
 125 124.75 l 1025
0 -0.25 m 1
 375 -0.25 l 1
 375 124.75 l 1
 0 124.75 l 1
 0 -0.25 l 1
EndSplineSet
EndChar

StartChar: m
Encoding: 109 109 78
Width: 500
VWidth: 0
Flags: HW
LayerCount: 2
Back
Fore
SplineSet
0 374.75 m 1
 125 374.75 l 1
 125 499.75 l 1
 0 499.75 l 1
 0 374.75 l 1025
250 374.75 m 1
 375 374.75 l 1
 375 499.75 l 1
 250 499.75 l 1
 250 374.75 l 1025
0 249.75 m 1
 375 249.75 l 1
 375 374.75 l 1
 0 374.75 l 1
 0 249.75 l 1025
0 124.75 m 1
 125 124.75 l 1
 125 249.75 l 1
 0 249.75 l 1
 0 124.75 l 1025
250 124.75 m 1
 375 124.75 l 1
 375 249.75 l 1
 250 249.75 l 1
 250 124.75 l 1025
0 -0.25 m 1
 125 -0.25 l 1
 125 124.75 l 1
 0 124.75 l 1
 0 -0.25 l 1025
250 -0.25 m 1
 375 -0.25 l 1
 375 124.75 l 1
 250 124.75 l 1
 250 -0.25 l 1
EndSplineSet
EndChar

StartChar: n
Encoding: 110 110 79
Width: 500
VWidth: 0
Flags: HW
LayerCount: 2
Back
Fore
SplineSet
0 374.75 m 1
 250 374.75 l 1
 250 499.75 l 1
 0 499.75 l 1
 0 374.75 l 1025
0 249.75 m 1
 125 249.75 l 1
 125 374.75 l 1
 0 374.75 l 1
 0 249.75 l 1025
250 249.75 m 1
 375 249.75 l 1
 375 374.75 l 1
 250 374.75 l 1
 250 249.75 l 1025
0 124.75 m 1
 125 124.75 l 1
 125 249.75 l 1
 0 249.75 l 1
 0 124.75 l 1025
250 124.75 m 1
 375 124.75 l 1
 375 249.75 l 1
 250 249.75 l 1
 250 124.75 l 1025
0 -0.25 m 1
 125 -0.25 l 1
 125 124.75 l 1
 0 124.75 l 1
 0 -0.25 l 1025
250 -0.25 m 1
 375 -0.25 l 1
 375 124.75 l 1
 250 124.75 l 1
 250 -0.25 l 1
EndSplineSet
EndChar

StartChar: o
Encoding: 111 111 80
Width: 500
VWidth: 0
Flags: HW
LayerCount: 2
Back
Fore
SplineSet
125 374.75 m 1
 250 374.75 l 1
 250 499.75 l 1
 125 499.75 l 1
 125 374.75 l 1025
0 249.75 m 1
 125 249.75 l 1
 125 374.75 l 1
 0 374.75 l 1
 0 249.75 l 1025
250 249.75 m 1
 375 249.75 l 1
 375 374.75 l 1
 250 374.75 l 1
 250 249.75 l 1025
0 124.75 m 1
 125 124.75 l 1
 125 249.75 l 1
 0 249.75 l 1
 0 124.75 l 1025
250 124.75 m 1
 375 124.75 l 1
 375 249.75 l 1
 250 249.75 l 1
 250 124.75 l 1025
125 -0.25 m 1
 250 -0.25 l 1
 250 124.75 l 1
 125 124.75 l 1
 125 -0.25 l 1
EndSplineSet
EndChar

StartChar: p
Encoding: 112 112 81
Width: 500
VWidth: 0
Flags: HW
LayerCount: 2
Back
Fore
SplineSet
0 374.75 m 1
 250 374.75 l 1
 250 499.75 l 1
 0 499.75 l 1
 0 374.75 l 1025
0 249.75 m 1
 125 249.75 l 1
 125 374.75 l 1
 0 374.75 l 1
 0 249.75 l 1025
250 249.75 m 1
 375 249.75 l 1
 375 374.75 l 1
 250 374.75 l 1
 250 249.75 l 1025
0 124.75 m 1
 250 124.75 l 1
 250 249.75 l 1
 0 249.75 l 1
 0 124.75 l 1025
0 -0.25 m 1
 125 -0.25 l 1
 125 124.75 l 1
 0 124.75 l 1
 0 -0.25 l 1025
0 -125.25 m 1
 125 -125.25 l 1
 125 -0.25 l 1
 0 -0.25 l 1
 0 -125.25 l 1
EndSplineSet
EndChar

StartChar: q
Encoding: 113 113 82
Width: 500
VWidth: 0
Flags: HW
LayerCount: 2
Back
Fore
SplineSet
125 374.75 m 1
 375 374.75 l 1
 375 499.75 l 1
 125 499.75 l 1
 125 374.75 l 1025
0 249.75 m 1
 125 249.75 l 1
 125 374.75 l 1
 0 374.75 l 1
 0 249.75 l 1025
250 249.75 m 1
 375 249.75 l 1
 375 374.75 l 1
 250 374.75 l 1
 250 249.75 l 1025
0 124.75 m 1
 125 124.75 l 1
 125 249.75 l 1
 0 249.75 l 1
 0 124.75 l 1025
250 124.75 m 1
 375 124.75 l 1
 375 249.75 l 1
 250 249.75 l 1
 250 124.75 l 1025
125 -0.25 m 1
 375 -0.25 l 1
 375 124.75 l 1
 125 124.75 l 1
 125 -0.25 l 1025
250 -125.25 m 1
 375 -125.25 l 1
 375 -0.25 l 1
 250 -0.25 l 1
 250 -125.25 l 1
EndSplineSet
EndChar

StartChar: r
Encoding: 114 114 83
Width: 500
VWidth: 0
Flags: HW
LayerCount: 2
Back
Fore
SplineSet
0 374.75 m 1
 125 374.75 l 1
 125 499.75 l 1
 0 499.75 l 1
 0 374.75 l 1025
250 374.75 m 1
 375 374.75 l 1
 375 499.75 l 1
 250 499.75 l 1
 250 374.75 l 1025
0 249.75 m 1
 250 249.75 l 1
 250 374.75 l 1
 0 374.75 l 1
 0 249.75 l 1025
0 124.75 m 1
 125 124.75 l 1
 125 249.75 l 1
 0 249.75 l 1
 0 124.75 l 1025
0 -0.25 m 1
 125 -0.25 l 1
 125 124.75 l 1
 0 124.75 l 1
 0 -0.25 l 1
EndSplineSet
EndChar

StartChar: s
Encoding: 115 115 84
Width: 500
VWidth: 0
Flags: HW
LayerCount: 2
Back
Fore
SplineSet
125 374.75 m 1
 375 374.75 l 1
 375 499.75 l 1
 125 499.75 l 1
 125 374.75 l 1025
0 249.75 m 1
 250 249.75 l 1
 250 374.75 l 1
 0 374.75 l 1
 0 249.75 l 1025
250 124.75 m 1
 375 124.75 l 1
 375 249.75 l 1
 250 249.75 l 1
 250 124.75 l 1025
0 -0.25 m 1
 250 -0.25 l 1
 250 124.75 l 1
 0 124.75 l 1
 0 -0.25 l 1
EndSplineSet
EndChar

StartChar: t
Encoding: 116 116 85
Width: 500
VWidth: 0
Flags: HW
LayerCount: 2
Back
Fore
SplineSet
125 499.75 m 1
 250 499.75 l 1
 250 624.75 l 1
 125 624.75 l 1
 125 499.75 l 1025
0 374.75 m 1
 375 374.75 l 1
 375 499.75 l 1
 0 499.75 l 1
 0 374.75 l 1025
125 249.75 m 1
 250 249.75 l 1
 250 374.75 l 1
 125 374.75 l 1
 125 249.75 l 1025
125 124.75 m 1
 250 124.75 l 1
 250 249.75 l 1
 125 249.75 l 1
 125 124.75 l 1025
250 -0.25 m 1
 375 -0.25 l 1
 375 124.75 l 1
 250 124.75 l 1
 250 -0.25 l 1
EndSplineSet
EndChar

StartChar: u
Encoding: 117 117 86
Width: 500
VWidth: 0
Flags: HW
LayerCount: 2
Back
Fore
SplineSet
0 374.75 m 1
 125 374.75 l 1
 125 499.75 l 1
 0 499.75 l 1
 0 374.75 l 1025
250 374.75 m 1
 375 374.75 l 1
 375 499.75 l 1
 250 499.75 l 1
 250 374.75 l 1025
0 249.75 m 1
 125 249.75 l 1
 125 374.75 l 1
 0 374.75 l 1
 0 249.75 l 1025
250 249.75 m 1
 375 249.75 l 1
 375 374.75 l 1
 250 374.75 l 1
 250 249.75 l 1025
0 124.75 m 1
 125 124.75 l 1
 125 249.75 l 1
 0 249.75 l 1
 0 124.75 l 1025
250 124.75 m 1
 375 124.75 l 1
 375 249.75 l 1
 250 249.75 l 1
 250 124.75 l 1025
125 -0.25 m 1
 375 -0.25 l 1
 375 124.75 l 1
 125 124.75 l 1
 125 -0.25 l 1
EndSplineSet
EndChar

StartChar: v
Encoding: 118 118 87
Width: 500
VWidth: 0
Flags: HW
LayerCount: 2
Back
Fore
SplineSet
0 374.75 m 1
 125 374.75 l 1
 125 499.75 l 1
 0 499.75 l 1
 0 374.75 l 1025
250 374.75 m 1
 375 374.75 l 1
 375 499.75 l 1
 250 499.75 l 1
 250 374.75 l 1025
0 249.75 m 1
 125 249.75 l 1
 125 374.75 l 1
 0 374.75 l 1
 0 249.75 l 1025
250 249.75 m 1
 375 249.75 l 1
 375 374.75 l 1
 250 374.75 l 1
 250 249.75 l 1025
0 124.75 m 1
 125 124.75 l 1
 125 249.75 l 1
 0 249.75 l 1
 0 124.75 l 1025
250 124.75 m 1
 375 124.75 l 1
 375 249.75 l 1
 250 249.75 l 1
 250 124.75 l 1025
125 -0.25 m 1
 250 -0.25 l 1
 250 124.75 l 1
 125 124.75 l 1
 125 -0.25 l 1
EndSplineSet
EndChar

StartChar: w
Encoding: 119 119 88
Width: 500
VWidth: 0
Flags: HW
LayerCount: 2
Back
Fore
SplineSet
0 374.75 m 1
 125 374.75 l 1
 125 499.75 l 1
 0 499.75 l 1
 0 374.75 l 1025
250 374.75 m 1
 375 374.75 l 1
 375 499.75 l 1
 250 499.75 l 1
 250 374.75 l 1025
0 249.75 m 1
 125 249.75 l 1
 125 374.75 l 1
 0 374.75 l 1
 0 249.75 l 1025
250 249.75 m 1
 375 249.75 l 1
 375 374.75 l 1
 250 374.75 l 1
 250 249.75 l 1025
0 124.75 m 1
 375 124.75 l 1
 375 249.75 l 1
 0 249.75 l 1
 0 124.75 l 1025
0 -0.25 m 1
 125 -0.25 l 1
 125 124.75 l 1
 0 124.75 l 1
 0 -0.25 l 1025
250 -0.25 m 1
 375 -0.25 l 1
 375 124.75 l 1
 250 124.75 l 1
 250 -0.25 l 1
EndSplineSet
EndChar

StartChar: x
Encoding: 120 120 89
Width: 500
VWidth: 0
Flags: HW
LayerCount: 2
Back
Fore
SplineSet
0 374.75 m 1
 125 374.75 l 1
 125 499.75 l 1
 0 499.75 l 1
 0 374.75 l 1025
250 374.75 m 1
 375 374.75 l 1
 375 499.75 l 1
 250 499.75 l 1
 250 374.75 l 1025
125 249.75 m 1
 250 249.75 l 1
 250 374.75 l 1
 125 374.75 l 1
 125 249.75 l 1025
125 124.75 m 1
 250 124.75 l 1
 250 249.75 l 1
 125 249.75 l 1
 125 124.75 l 1025
0 -0.25 m 1
 125 -0.25 l 1
 125 124.75 l 1
 0 124.75 l 1
 0 -0.25 l 1025
250 -0.25 m 1
 375 -0.25 l 1
 375 124.75 l 1
 250 124.75 l 1
 250 -0.25 l 1
EndSplineSet
EndChar

StartChar: y
Encoding: 121 121 90
Width: 500
VWidth: 0
Flags: HW
LayerCount: 2
Back
Fore
SplineSet
0 374.75 m 1
 125 374.75 l 1
 125 499.75 l 1
 0 499.75 l 1
 0 374.75 l 1025
250 374.75 m 1
 375 374.75 l 1
 375 499.75 l 1
 250 499.75 l 1
 250 374.75 l 1025
0 249.75 m 1
 125 249.75 l 1
 125 374.75 l 1
 0 374.75 l 1
 0 249.75 l 1025
250 249.75 m 1
 375 249.75 l 1
 375 374.75 l 1
 250 374.75 l 1
 250 249.75 l 1025
125 124.75 m 1
 375 124.75 l 1
 375 249.75 l 1
 125 249.75 l 1
 125 124.75 l 1025
250 -0.25 m 1
 375 -0.25 l 1
 375 124.75 l 1
 250 124.75 l 1
 250 -0.25 l 1025
0 -125.25 m 1
 250 -125.25 l 1
 250 -0.25 l 1
 0 -0.25 l 1
 0 -125.25 l 1
EndSplineSet
EndChar

StartChar: z
Encoding: 122 122 91
Width: 500
VWidth: 0
Flags: HW
LayerCount: 2
Back
Fore
SplineSet
0 374.75 m 1
 375 374.75 l 1
 375 499.75 l 1
 0 499.75 l 1
 0 374.75 l 1025
250 249.75 m 1
 375 249.75 l 1
 375 374.75 l 1
 250 374.75 l 1
 250 249.75 l 1025
125 124.75 m 1
 250 124.75 l 1
 250 249.75 l 1
 125 249.75 l 1
 125 124.75 l 1025
0 -0.25 m 1
 375 -0.25 l 1
 375 124.75 l 1
 0 124.75 l 1
 0 -0.25 l 1
EndSplineSet
EndChar

StartChar: braceleft
Encoding: 123 123 92
Width: 500
VWidth: 0
Flags: HW
LayerCount: 2
Back
Fore
SplineSet
250 499.75 m 1
 375 499.75 l 1
 375 624.75 l 1
 250 624.75 l 1
 250 499.75 l 1025
125 374.75 m 1
 250 374.75 l 1
 250 499.75 l 1
 125 499.75 l 1
 125 374.75 l 1025
0 249.75 m 1
 250 249.75 l 1
 250 374.75 l 1
 0 374.75 l 1
 0 249.75 l 1025
125 124.75 m 1
 250 124.75 l 1
 250 249.75 l 1
 125 249.75 l 1
 125 124.75 l 1025
125 -0.25 m 1
 250 -0.25 l 1
 250 124.75 l 1
 125 124.75 l 1
 125 -0.25 l 1025
250 -125.25 m 1
 375 -125.25 l 1
 375 -0.25 l 1
 250 -0.25 l 1
 250 -125.25 l 1
EndSplineSet
EndChar

StartChar: bar
Encoding: 124 124 93
Width: 500
VWidth: 0
Flags: HW
LayerCount: 2
Back
Fore
SplineSet
125 499.75 m 1
 250 499.75 l 1
 250 624.75 l 1
 125 624.75 l 1
 125 499.75 l 1025
125 374.75 m 1
 250 374.75 l 1
 250 499.75 l 1
 125 499.75 l 1
 125 374.75 l 1025
125 249.75 m 1
 250 249.75 l 1
 250 374.75 l 1
 125 374.75 l 1
 125 249.75 l 1025
125 124.75 m 1
 250 124.75 l 1
 250 249.75 l 1
 125 249.75 l 1
 125 124.75 l 1025
125 -0.25 m 1
 250 -0.25 l 1
 250 124.75 l 1
 125 124.75 l 1
 125 -0.25 l 1
EndSplineSet
EndChar

StartChar: braceright
Encoding: 125 125 94
Width: 500
VWidth: 0
Flags: HW
LayerCount: 2
Back
Fore
SplineSet
0 499.75 m 1
 125 499.75 l 1
 125 624.75 l 1
 0 624.75 l 1
 0 499.75 l 1025
125 374.75 m 1
 250 374.75 l 1
 250 499.75 l 1
 125 499.75 l 1
 125 374.75 l 1025
125 249.75 m 1
 375 249.75 l 1
 375 374.75 l 1
 125 374.75 l 1
 125 249.75 l 1025
125 124.75 m 1
 250 124.75 l 1
 250 249.75 l 1
 125 249.75 l 1
 125 124.75 l 1025
125 -0.25 m 1
 250 -0.25 l 1
 250 124.75 l 1
 125 124.75 l 1
 125 -0.25 l 1025
0 -125.25 m 1
 125 -125.25 l 1
 125 -0.25 l 1
 0 -0.25 l 1
 0 -125.25 l 1
EndSplineSet
EndChar

StartChar: asciitilde
Encoding: 126 126 95
Width: 500
VWidth: 0
Flags: HW
LayerCount: 2
Back
Fore
SplineSet
125 499.75 m 1
 250 499.75 l 1
 250 624.75 l 1
 125 624.75 l 1
 125 499.75 l 1025
375 499.75 m 1
 500 499.75 l 1
 500 624.75 l 1
 375 624.75 l 1
 375 499.75 l 1025
0 374.75 m 1
 125 374.75 l 1
 125 499.75 l 1
 0 499.75 l 1
 0 374.75 l 1025
250 374.75 m 1
 375 374.75 l 1
 375 499.75 l 1
 250 499.75 l 1
 250 374.75 l 1
EndSplineSet
EndChar

StartChar: exclamdown
Encoding: 161 161 97
Width: 500
VWidth: 0
Flags: HW
LayerCount: 2
Back
Fore
SplineSet
125 499.75 m 1
 250 499.75 l 1
 250 624.75 l 1
 125 624.75 l 1
 125 499.75 l 1025
125 249.75 m 1
 250 249.75 l 1
 250 374.75 l 1
 125 374.75 l 1
 125 249.75 l 1025
125 124.75 m 1
 250 124.75 l 1
 250 249.75 l 1
 125 249.75 l 1
 125 124.75 l 1025
125 -0.25 m 1
 250 -0.25 l 1
 250 124.75 l 1
 125 124.75 l 1
 125 -0.25 l 1
EndSplineSet
EndChar

StartChar: cent
Encoding: 162 162 98
Width: 500
VWidth: 0
Flags: HW
LayerCount: 2
Back
Fore
SplineSet
125 499.75 m 1
 250 499.75 l 1
 250 624.75 l 1
 125 624.75 l 1
 125 499.75 l 1025
0 374.75 m 1
 375 374.75 l 1
 375 499.75 l 1
 0 499.75 l 1
 0 374.75 l 1025
0 249.75 m 1
 125 249.75 l 1
 125 374.75 l 1
 0 374.75 l 1
 0 249.75 l 1025
0 124.75 m 1
 375 124.75 l 1
 375 249.75 l 1
 0 249.75 l 1
 0 124.75 l 1025
125 -0.25 m 1
 250 -0.25 l 1
 250 124.75 l 1
 125 124.75 l 1
 125 -0.25 l 1
EndSplineSet
EndChar

StartChar: sterling
Encoding: 163 163 99
Width: 500
VWidth: 0
Flags: HW
LayerCount: 2
Back
Fore
SplineSet
250 499.75 m 1
 375 499.75 l 1
 375 624.75 l 1
 250 624.75 l 1
 250 499.75 l 1025
125 374.75 m 1
 250 374.75 l 1
 250 499.75 l 1
 125 499.75 l 1
 125 374.75 l 1025
125 249.75 m 1
 375 249.75 l 1
 375 374.75 l 1
 125 374.75 l 1
 125 249.75 l 1025
125 124.75 m 1
 250 124.75 l 1
 250 249.75 l 1
 125 249.75 l 1
 125 124.75 l 1025
0 -0.25 m 1
 125 -0.25 l 1
 125 124.75 l 1
 0 124.75 l 1
 0 -0.25 l 1025
250 -0.25 m 1
 375 -0.25 l 1
 375 124.75 l 1
 250 124.75 l 1
 250 -0.25 l 1
EndSplineSet
EndChar

StartChar: currency
Encoding: 164 164 100
Width: 500
VWidth: 0
Flags: HW
LayerCount: 2
Back
Fore
SplineSet
0 374.75 m 1
 125 374.75 l 1
 125 499.75 l 1
 0 499.75 l 1
 0 374.75 l 1025
375 374.75 m 1
 500 374.75 l 1
 500 499.75 l 1
 375 499.75 l 1
 375 374.75 l 1025
125 249.75 m 1
 375 249.75 l 1
 375 374.75 l 1
 125 374.75 l 1
 125 249.75 l 1025
125 124.75 m 1
 375 124.75 l 1
 375 249.75 l 1
 125 249.75 l 1
 125 124.75 l 1025
0 -0.25 m 1
 125 -0.25 l 1
 125 124.75 l 1
 0 124.75 l 1
 0 -0.25 l 1025
375 -0.25 m 1
 500 -0.25 l 1
 500 124.75 l 1
 375 124.75 l 1
 375 -0.25 l 1
EndSplineSet
EndChar

StartChar: yen
Encoding: 165 165 101
Width: 500
VWidth: 0
Flags: HW
LayerCount: 2
Back
Fore
SplineSet
0 499.75 m 1
 125 499.75 l 1
 125 624.75 l 1
 0 624.75 l 1
 0 499.75 l 1025
250 499.75 m 1
 375 499.75 l 1
 375 624.75 l 1
 250 624.75 l 1
 250 499.75 l 1025
125 374.75 m 1
 250 374.75 l 1
 250 499.75 l 1
 125 499.75 l 1
 125 374.75 l 1025
0 249.75 m 1
 375 249.75 l 1
 375 374.75 l 1
 0 374.75 l 1
 0 249.75 l 1025
125 124.75 m 1
 250 124.75 l 1
 250 249.75 l 1
 125 249.75 l 1
 125 124.75 l 1025
125 -0.25 m 1
 250 -0.25 l 1
 250 124.75 l 1
 125 124.75 l 1
 125 -0.25 l 1
EndSplineSet
EndChar

StartChar: brokenbar
Encoding: 166 166 102
Width: 500
VWidth: 0
Flags: HW
LayerCount: 2
Back
Fore
SplineSet
125 499.75 m 1
 250 499.75 l 1
 250 624.75 l 1
 125 624.75 l 1
 125 499.75 l 1025
125 374.75 m 1
 250 374.75 l 1
 250 499.75 l 1
 125 499.75 l 1
 125 374.75 l 1025
125 124.75 m 1
 250 124.75 l 1
 250 249.75 l 1
 125 249.75 l 1
 125 124.75 l 1025
125 -0.25 m 1
 250 -0.25 l 1
 250 124.75 l 1
 125 124.75 l 1
 125 -0.25 l 1
EndSplineSet
EndChar

StartChar: section
Encoding: 167 167 103
Width: 500
VWidth: 0
Flags: HW
LayerCount: 2
Back
Fore
SplineSet
125 499.75 m 1
 375 499.75 l 1
 375 624.75 l 1
 125 624.75 l 1
 125 499.75 l 1025
0 374.75 m 1
 250 374.75 l 1
 250 499.75 l 1
 0 499.75 l 1
 0 374.75 l 1025
0 249.75 m 1
 125 249.75 l 1
 125 374.75 l 1
 0 374.75 l 1
 0 249.75 l 1025
250 249.75 m 1
 375 249.75 l 1
 375 374.75 l 1
 250 374.75 l 1
 250 249.75 l 1025
125 124.75 m 1
 375 124.75 l 1
 375 249.75 l 1
 125 249.75 l 1
 125 124.75 l 1025
250 -0.25 m 1
 375 -0.25 l 1
 375 124.75 l 1
 250 124.75 l 1
 250 -0.25 l 1025
0 -125.25 m 1
 250 -125.25 l 1
 250 -0.25 l 1
 0 -0.25 l 1
 0 -125.25 l 1
EndSplineSet
EndChar

StartChar: dieresis
Encoding: 168 168 104
Width: 500
VWidth: 0
Flags: HW
LayerCount: 2
Back
Fore
SplineSet
0 499.75 m 1
 125 499.75 l 1
 125 624.75 l 1
 0 624.75 l 1
 0 499.75 l 1025
250 499.75 m 1
 375 499.75 l 1
 375 624.75 l 1
 250 624.75 l 1
 250 499.75 l 1
EndSplineSet
EndChar

StartChar: copyright
Encoding: 169 169 105
Width: 500
VWidth: 0
Flags: HW
LayerCount: 2
Back
Fore
SplineSet
125 499.75 m 1
 375 499.75 l 1
 375 624.75 l 1
 125 624.75 l 1
 125 499.75 l 1025
0 374.75 m 1
 125 374.75 l 1
 125 499.75 l 1
 0 499.75 l 1
 0 374.75 l 1025
375 374.75 m 1
 500 374.75 l 1
 500 499.75 l 1
 375 499.75 l 1
 375 374.75 l 1025
0 249.75 m 1
 250 249.75 l 1
 250 374.75 l 1
 0 374.75 l 1
 0 249.75 l 1025
375 249.75 m 1
 500 249.75 l 1
 500 374.75 l 1
 375 374.75 l 1
 375 249.75 l 1025
0 124.75 m 1
 250 124.75 l 1
 250 249.75 l 1
 0 249.75 l 1
 0 124.75 l 1025
375 124.75 m 1
 500 124.75 l 1
 500 249.75 l 1
 375 249.75 l 1
 375 124.75 l 1025
0 -0.25 m 1
 125 -0.25 l 1
 125 124.75 l 1
 0 124.75 l 1
 0 -0.25 l 1025
375 -0.25 m 1
 500 -0.25 l 1
 500 124.75 l 1
 375 124.75 l 1
 375 -0.25 l 1025
125 -125.25 m 1
 375 -125.25 l 1
 375 -0.25 l 1
 125 -0.25 l 1
 125 -125.25 l 1
EndSplineSet
EndChar

StartChar: ordfeminine
Encoding: 170 170 106
Width: 500
VWidth: 0
Flags: HW
LayerCount: 2
Back
Fore
SplineSet
125 499.75 m 1
 375 499.75 l 1
 375 624.75 l 1
 125 624.75 l 1
 125 499.75 l 1025
0 374.75 m 1
 125 374.75 l 1
 125 499.75 l 1
 0 499.75 l 1
 0 374.75 l 1025
250 374.75 m 1
 375 374.75 l 1
 375 499.75 l 1
 250 499.75 l 1
 250 374.75 l 1025
125 249.75 m 1
 375 249.75 l 1
 375 374.75 l 1
 125 374.75 l 1
 125 249.75 l 1025
0 -0.25 m 1
 375 -0.25 l 1
 375 124.75 l 1
 0 124.75 l 1
 0 -0.25 l 1
EndSplineSet
EndChar

StartChar: guillemotleft
Encoding: 171 171 107
Width: 500
VWidth: 0
Flags: HW
LayerCount: 2
Back
Fore
SplineSet
125 374.75 m 1
 250 374.75 l 1
 250 499.75 l 1
 125 499.75 l 1
 125 374.75 l 1025
375 374.75 m 1
 500 374.75 l 1
 500 499.75 l 1
 375 499.75 l 1
 375 374.75 l 1025
0 249.75 m 1
 125 249.75 l 1
 125 374.75 l 1
 0 374.75 l 1
 0 249.75 l 1025
250 249.75 m 1
 375 249.75 l 1
 375 374.75 l 1
 250 374.75 l 1
 250 249.75 l 1025
125 124.75 m 1
 250 124.75 l 1
 250 249.75 l 1
 125 249.75 l 1
 125 124.75 l 1025
375 124.75 m 1
 500 124.75 l 1
 500 249.75 l 1
 375 249.75 l 1
 375 124.75 l 1
EndSplineSet
EndChar

StartChar: logicalnot
Encoding: 172 172 108
Width: 500
VWidth: 0
Flags: HW
LayerCount: 2
Back
Fore
SplineSet
0 249.75 m 1
 375 249.75 l 1
 375 374.75 l 1
 0 374.75 l 1
 0 249.75 l 1025
250 124.75 m 1
 375 124.75 l 1
 375 249.75 l 1
 250 249.75 l 1
 250 124.75 l 1
EndSplineSet
EndChar

StartChar: hyphen
Encoding: 45 45 109
Width: 500
VWidth: 0
Flags: HW
LayerCount: 2
Back
Fore
SplineSet
0 249.75 m 1
 375 249.75 l 1
 375 374.75 l 1
 0 374.75 l 1
 0 249.75 l 1
EndSplineSet
EndChar

StartChar: registered
Encoding: 174 174 110
Width: 500
VWidth: 0
Flags: HW
LayerCount: 2
Back
Fore
SplineSet
125 499.75 m 1
 375 499.75 l 1
 375 624.75 l 1
 125 624.75 l 1
 125 499.75 l 1025
0 374.75 m 1
 500 374.75 l 1
 500 499.75 l 1
 0 499.75 l 1
 0 374.75 l 1025
0 249.75 m 1
 250 249.75 l 1
 250 374.75 l 1
 0 374.75 l 1
 0 249.75 l 1025
375 249.75 m 1
 500 249.75 l 1
 500 374.75 l 1
 375 374.75 l 1
 375 249.75 l 1025
125 124.75 m 1
 375 124.75 l 1
 375 249.75 l 1
 125 249.75 l 1
 125 124.75 l 1
EndSplineSet
EndChar

StartChar: macron
Encoding: 175 175 111
Width: 500
VWidth: 0
Flags: HW
LayerCount: 2
Back
Fore
SplineSet
0 499.75 m 1
 375 499.75 l 1
 375 624.75 l 1
 0 624.75 l 1
 0 499.75 l 1
EndSplineSet
EndChar

StartChar: degree
Encoding: 176 176 112
Width: 500
VWidth: 0
Flags: HW
LayerCount: 2
Back
Fore
SplineSet
125 499.75 m 1
 250 499.75 l 1
 250 624.75 l 1
 125 624.75 l 1
 125 499.75 l 1025
0 374.75 m 1
 125 374.75 l 1
 125 499.75 l 1
 0 499.75 l 1
 0 374.75 l 1025
250 374.75 m 1
 375 374.75 l 1
 375 499.75 l 1
 250 499.75 l 1
 250 374.75 l 1025
125 249.75 m 1
 250 249.75 l 1
 250 374.75 l 1
 125 374.75 l 1
 125 249.75 l 1
EndSplineSet
EndChar

StartChar: plusminus
Encoding: 177 177 113
Width: 500
VWidth: 0
Flags: HW
LayerCount: 2
Back
Fore
SplineSet
125 499.75 m 1
 250 499.75 l 1
 250 624.75 l 1
 125 624.75 l 1
 125 499.75 l 1025
0 374.75 m 1
 375 374.75 l 1
 375 499.75 l 1
 0 499.75 l 1
 0 374.75 l 1025
125 249.75 m 1
 250 249.75 l 1
 250 374.75 l 1
 125 374.75 l 1
 125 249.75 l 1025
0 -0.25 m 1
 375 -0.25 l 1
 375 124.75 l 1
 0 124.75 l 1
 0 -0.25 l 1
EndSplineSet
EndChar

StartChar: twosuperior
Encoding: 178 178 114
Width: 500
VWidth: 0
Flags: HW
LayerCount: 2
Back
Fore
SplineSet
0 499.75 m 1
 250 499.75 l 1
 250 624.75 l 1
 0 624.75 l 1
 0 499.75 l 1025
125 374.75 m 1
 250 374.75 l 1
 250 499.75 l 1
 125 499.75 l 1
 125 374.75 l 1025
0 249.75 m 1
 125 249.75 l 1
 125 374.75 l 1
 0 374.75 l 1
 0 249.75 l 1025
0 124.75 m 1
 250 124.75 l 1
 250 249.75 l 1
 0 249.75 l 1
 0 124.75 l 1
EndSplineSet
EndChar

StartChar: threesuperior
Encoding: 179 179 115
Width: 500
VWidth: 0
Flags: HW
LayerCount: 2
Back
Fore
SplineSet
0 499.75 m 1
 250 499.75 l 1
 250 624.75 l 1
 0 624.75 l 1
 0 499.75 l 1025
125 374.75 m 1
 250 374.75 l 1
 250 499.75 l 1
 125 499.75 l 1
 125 374.75 l 1025
0 249.75 m 1
 125 249.75 l 1
 125 374.75 l 1
 0 374.75 l 1
 0 249.75 l 1025
125 124.75 m 1
 250 124.75 l 1
 250 249.75 l 1
 125 249.75 l 1
 125 124.75 l 1025
0 -0.25 m 1
 125 -0.25 l 1
 125 124.75 l 1
 0 124.75 l 1
 0 -0.25 l 1
EndSplineSet
EndChar

StartChar: acute
Encoding: 180 180 116
Width: 500
VWidth: 0
Flags: HW
LayerCount: 2
Back
Fore
SplineSet
250 499.75 m 1
 375 499.75 l 1
 375 624.75 l 1
 250 624.75 l 1
 250 499.75 l 1025
125 374.75 m 1
 250 374.75 l 1
 250 499.75 l 1
 125 499.75 l 1
 125 374.75 l 1
EndSplineSet
EndChar

StartChar: mu
Encoding: 181 181 117
Width: 500
VWidth: 0
Flags: HW
LayerCount: 2
Back
Fore
SplineSet
0 374.75 m 1
 125 374.75 l 1
 125 499.75 l 1
 0 499.75 l 1
 0 374.75 l 1025
250 374.75 m 1
 375 374.75 l 1
 375 499.75 l 1
 250 499.75 l 1
 250 374.75 l 1025
0 249.75 m 1
 125 249.75 l 1
 125 374.75 l 1
 0 374.75 l 1
 0 249.75 l 1025
250 249.75 m 1
 375 249.75 l 1
 375 374.75 l 1
 250 374.75 l 1
 250 249.75 l 1025
0 124.75 m 1
 125 124.75 l 1
 125 249.75 l 1
 0 249.75 l 1
 0 124.75 l 1025
250 124.75 m 1
 375 124.75 l 1
 375 249.75 l 1
 250 249.75 l 1
 250 124.75 l 1025
0 -0.25 m 1
 250 -0.25 l 1
 250 124.75 l 1
 0 124.75 l 1
 0 -0.25 l 1025
0 -125.25 m 1
 125 -125.25 l 1
 125 -0.25 l 1
 0 -0.25 l 1
 0 -125.25 l 1
EndSplineSet
EndChar

StartChar: paragraph
Encoding: 182 182 118
Width: 500
VWidth: 0
Flags: HW
LayerCount: 2
Back
Fore
SplineSet
125 499.75 m 1
 500 499.75 l 1
 500 624.75 l 1
 125 624.75 l 1
 125 499.75 l 1025
0 374.75 m 1
 250 374.75 l 1
 250 499.75 l 1
 0 499.75 l 1
 0 374.75 l 1025
375 374.75 m 1
 500 374.75 l 1
 500 499.75 l 1
 375 499.75 l 1
 375 374.75 l 1025
0 249.75 m 1
 250 249.75 l 1
 250 374.75 l 1
 0 374.75 l 1
 0 249.75 l 1025
375 249.75 m 1
 500 249.75 l 1
 500 374.75 l 1
 375 374.75 l 1
 375 249.75 l 1025
125 124.75 m 1
 250 124.75 l 1
 250 249.75 l 1
 125 249.75 l 1
 125 124.75 l 1025
375 124.75 m 1
 500 124.75 l 1
 500 249.75 l 1
 375 249.75 l 1
 375 124.75 l 1025
125 -0.25 m 1
 250 -0.25 l 1
 250 124.75 l 1
 125 124.75 l 1
 125 -0.25 l 1025
375 -0.25 m 1
 500 -0.25 l 1
 500 124.75 l 1
 375 124.75 l 1
 375 -0.25 l 1
EndSplineSet
EndChar

StartChar: periodcentered
Encoding: 183 183 119
Width: 500
VWidth: 0
Flags: HW
LayerCount: 2
Back
Fore
SplineSet
125 249.75 m 1
 250 249.75 l 1
 250 374.75 l 1
 125 374.75 l 1
 125 249.75 l 1
EndSplineSet
EndChar

StartChar: cedilla
Encoding: 184 184 120
Width: 500
VWidth: 0
Flags: HW
LayerCount: 2
Back
Fore
SplineSet
250 124.75 m 1
 375 124.75 l 1
 375 249.75 l 1
 250 249.75 l 1
 250 124.75 l 1025
125 -0.25 m 1
 250 -0.25 l 1
 250 124.75 l 1
 125 124.75 l 1
 125 -0.25 l 1
EndSplineSet
EndChar

StartChar: onesuperior
Encoding: 185 185 121
Width: 500
VWidth: 0
Flags: HW
LayerCount: 2
Back
Fore
SplineSet
125 499.75 m 1
 250 499.75 l 1
 250 624.75 l 1
 125 624.75 l 1
 125 499.75 l 1025
0 374.75 m 1
 250 374.75 l 1
 250 499.75 l 1
 0 499.75 l 1
 0 374.75 l 1025
125 249.75 m 1
 250 249.75 l 1
 250 374.75 l 1
 125 374.75 l 1
 125 249.75 l 1025
125 124.75 m 1
 250 124.75 l 1
 250 249.75 l 1
 125 249.75 l 1
 125 124.75 l 1
EndSplineSet
EndChar

StartChar: ordmasculine
Encoding: 186 186 122
Width: 500
VWidth: 0
Flags: HW
LayerCount: 2
Back
Fore
SplineSet
125 499.75 m 1
 250 499.75 l 1
 250 624.75 l 1
 125 624.75 l 1
 125 499.75 l 1025
0 374.75 m 1
 125 374.75 l 1
 125 499.75 l 1
 0 499.75 l 1
 0 374.75 l 1025
250 374.75 m 1
 375 374.75 l 1
 375 499.75 l 1
 250 499.75 l 1
 250 374.75 l 1025
125 249.75 m 1
 250 249.75 l 1
 250 374.75 l 1
 125 374.75 l 1
 125 249.75 l 1025
0 -0.25 m 1
 375 -0.25 l 1
 375 124.75 l 1
 0 124.75 l 1
 0 -0.25 l 1
EndSplineSet
EndChar

StartChar: guillemotright
Encoding: 187 187 123
Width: 500
VWidth: 0
Flags: HW
LayerCount: 2
Back
Fore
SplineSet
0 374.75 m 1
 125 374.75 l 1
 125 499.75 l 1
 0 499.75 l 1
 0 374.75 l 1025
250 374.75 m 1
 375 374.75 l 1
 375 499.75 l 1
 250 499.75 l 1
 250 374.75 l 1025
125 249.75 m 1
 250 249.75 l 1
 250 374.75 l 1
 125 374.75 l 1
 125 249.75 l 1025
375 249.75 m 1
 500 249.75 l 1
 500 374.75 l 1
 375 374.75 l 1
 375 249.75 l 1025
0 124.75 m 1
 125 124.75 l 1
 125 249.75 l 1
 0 249.75 l 1
 0 124.75 l 1025
250 124.75 m 1
 375 124.75 l 1
 375 249.75 l 1
 250 249.75 l 1
 250 124.75 l 1
EndSplineSet
EndChar

StartChar: onequarter
Encoding: 188 188 124
Width: 500
VWidth: 0
Flags: HW
LayerCount: 2
Back
Fore
SplineSet
0 499.75 m 1
 125 499.75 l 1
 125 624.75 l 1
 0 624.75 l 1
 0 499.75 l 1025
0 374.75 m 1
 125 374.75 l 1
 125 499.75 l 1
 0 499.75 l 1
 0 374.75 l 1025
0 249.75 m 1
 125 249.75 l 1
 125 374.75 l 1
 0 374.75 l 1
 0 249.75 l 1025
125 124.75 m 1
 250 124.75 l 1
 250 249.75 l 1
 125 249.75 l 1
 125 124.75 l 1025
375 124.75 m 1
 500 124.75 l 1
 500 249.75 l 1
 375 249.75 l 1
 375 124.75 l 1025
125 -0.25 m 1
 500 -0.25 l 1
 500 124.75 l 1
 125 124.75 l 1
 125 -0.25 l 1025
375 -125.25 m 1
 500 -125.25 l 1
 500 -0.25 l 1
 375 -0.25 l 1
 375 -125.25 l 1
EndSplineSet
EndChar

StartChar: onehalf
Encoding: 189 189 125
Width: 500
VWidth: 0
Flags: HW
LayerCount: 2
Back
Fore
SplineSet
0 499.75 m 1
 125 499.75 l 1
 125 624.75 l 1
 0 624.75 l 1
 0 499.75 l 1025
0 374.75 m 1
 125 374.75 l 1
 125 499.75 l 1
 0 499.75 l 1
 0 374.75 l 1025
0 249.75 m 1
 125 249.75 l 1
 125 374.75 l 1
 0 374.75 l 1
 0 249.75 l 1025
250 249.75 m 1
 500 249.75 l 1
 500 374.75 l 1
 250 374.75 l 1
 250 249.75 l 1025
375 124.75 m 1
 500 124.75 l 1
 500 249.75 l 1
 375 249.75 l 1
 375 124.75 l 1025
250 -0.25 m 1
 375 -0.25 l 1
 375 124.75 l 1
 250 124.75 l 1
 250 -0.25 l 1025
250 -125.25 m 1
 500 -125.25 l 1
 500 -0.25 l 1
 250 -0.25 l 1
 250 -125.25 l 1
EndSplineSet
EndChar

StartChar: threequarters
Encoding: 190 190 126
Width: 500
VWidth: 0
Flags: HW
LayerCount: 2
Back
Fore
SplineSet
0 499.75 m 1
 250 499.75 l 1
 250 624.75 l 1
 0 624.75 l 1
 0 499.75 l 1025
125 374.75 m 1
 250 374.75 l 1
 250 499.75 l 1
 125 499.75 l 1
 125 374.75 l 1025
0 249.75 m 1
 125 249.75 l 1
 125 374.75 l 1
 0 374.75 l 1
 0 249.75 l 1025
125 124.75 m 1
 250 124.75 l 1
 250 249.75 l 1
 125 249.75 l 1
 125 124.75 l 1025
375 124.75 m 1
 500 124.75 l 1
 500 249.75 l 1
 375 249.75 l 1
 375 124.75 l 1025
0 -0.25 m 1
 125 -0.25 l 1
 125 124.75 l 1
 0 124.75 l 1
 0 -0.25 l 1025
250 -0.25 m 1
 500 -0.25 l 1
 500 124.75 l 1
 250 124.75 l 1
 250 -0.25 l 1025
375 -125.25 m 1
 500 -125.25 l 1
 500 -0.25 l 1
 375 -0.25 l 1
 375 -125.25 l 1
EndSplineSet
EndChar

StartChar: questiondown
Encoding: 191 191 127
Width: 500
VWidth: 0
Flags: HW
LayerCount: 2
Back
Fore
SplineSet
125 499.75 m 1
 250 499.75 l 1
 250 624.75 l 1
 125 624.75 l 1
 125 499.75 l 1025
125 249.75 m 1
 250 249.75 l 1
 250 374.75 l 1
 125 374.75 l 1
 125 249.75 l 1025
0 124.75 m 1
 125 124.75 l 1
 125 249.75 l 1
 0 249.75 l 1
 0 124.75 l 1025
125 -0.25 m 1
 375 -0.25 l 1
 375 124.75 l 1
 125 124.75 l 1
 125 -0.25 l 1
EndSplineSet
EndChar

StartChar: Agrave
Encoding: 192 192 128
Width: 500
VWidth: 0
Flags: HW
LayerCount: 2
Back
Fore
SplineSet
0 499.75 m 1
 125 499.75 l 1
 125 624.75 l 1
 0 624.75 l 1
 0 499.75 l 1025
125 374.75 m 1
 250 374.75 l 1
 250 499.75 l 1
 125 499.75 l 1
 125 374.75 l 1025
0 249.75 m 1
 125 249.75 l 1
 125 374.75 l 1
 0 374.75 l 1
 0 249.75 l 1025
250 249.75 m 1
 375 249.75 l 1
 375 374.75 l 1
 250 374.75 l 1
 250 249.75 l 1025
0 124.75 m 1
 375 124.75 l 1
 375 249.75 l 1
 0 249.75 l 1
 0 124.75 l 1025
0 -0.25 m 1
 125 -0.25 l 1
 125 124.75 l 1
 0 124.75 l 1
 0 -0.25 l 1025
250 -0.25 m 1
 375 -0.25 l 1
 375 124.75 l 1
 250 124.75 l 1
 250 -0.25 l 1
EndSplineSet
EndChar

StartChar: Aacute
Encoding: 193 193 129
Width: 500
VWidth: 0
Flags: HW
LayerCount: 2
Back
Fore
SplineSet
250 499.75 m 1
 375 499.75 l 1
 375 624.75 l 1
 250 624.75 l 1
 250 499.75 l 1025
125 374.75 m 1
 250 374.75 l 1
 250 499.75 l 1
 125 499.75 l 1
 125 374.75 l 1025
0 249.75 m 1
 125 249.75 l 1
 125 374.75 l 1
 0 374.75 l 1
 0 249.75 l 1025
250 249.75 m 1
 375 249.75 l 1
 375 374.75 l 1
 250 374.75 l 1
 250 249.75 l 1025
0 124.75 m 1
 375 124.75 l 1
 375 249.75 l 1
 0 249.75 l 1
 0 124.75 l 1025
0 -0.25 m 1
 125 -0.25 l 1
 125 124.75 l 1
 0 124.75 l 1
 0 -0.25 l 1025
250 -0.25 m 1
 375 -0.25 l 1
 375 124.75 l 1
 250 124.75 l 1
 250 -0.25 l 1
EndSplineSet
EndChar

StartChar: Acircumflex
Encoding: 194 194 130
Width: 500
VWidth: 0
Flags: HW
LayerCount: 2
Back
Fore
SplineSet
0 499.75 m 1
 250 499.75 l 1
 250 624.75 l 1
 0 624.75 l 1
 0 499.75 l 1025
125 374.75 m 1
 250 374.75 l 1
 250 499.75 l 1
 125 499.75 l 1
 125 374.75 l 1025
0 249.75 m 1
 125 249.75 l 1
 125 374.75 l 1
 0 374.75 l 1
 0 249.75 l 1025
250 249.75 m 1
 375 249.75 l 1
 375 374.75 l 1
 250 374.75 l 1
 250 249.75 l 1025
0 124.75 m 1
 375 124.75 l 1
 375 249.75 l 1
 0 249.75 l 1
 0 124.75 l 1025
0 -0.25 m 1
 125 -0.25 l 1
 125 124.75 l 1
 0 124.75 l 1
 0 -0.25 l 1025
250 -0.25 m 1
 375 -0.25 l 1
 375 124.75 l 1
 250 124.75 l 1
 250 -0.25 l 1
EndSplineSet
EndChar

StartChar: Atilde
Encoding: 195 195 131
Width: 500
VWidth: 0
Flags: HW
LayerCount: 2
Back
Fore
SplineSet
125 499.75 m 1
 375 499.75 l 1
 375 624.75 l 1
 125 624.75 l 1
 125 499.75 l 1025
0 374.75 m 1
 250 374.75 l 1
 250 499.75 l 1
 0 499.75 l 1
 0 374.75 l 1025
0 249.75 m 1
 125 249.75 l 1
 125 374.75 l 1
 0 374.75 l 1
 0 249.75 l 1025
250 249.75 m 1
 375 249.75 l 1
 375 374.75 l 1
 250 374.75 l 1
 250 249.75 l 1025
0 124.75 m 1
 375 124.75 l 1
 375 249.75 l 1
 0 249.75 l 1
 0 124.75 l 1025
0 -0.25 m 1
 125 -0.25 l 1
 125 124.75 l 1
 0 124.75 l 1
 0 -0.25 l 1025
250 -0.25 m 1
 375 -0.25 l 1
 375 124.75 l 1
 250 124.75 l 1
 250 -0.25 l 1
EndSplineSet
EndChar

StartChar: Adieresis
Encoding: 196 196 132
Width: 500
VWidth: 0
Flags: HW
LayerCount: 2
Back
Fore
SplineSet
0 499.75 m 1
 125 499.75 l 1
 125 624.75 l 1
 0 624.75 l 1
 0 499.75 l 1025
250 499.75 m 1
 375 499.75 l 1
 375 624.75 l 1
 250 624.75 l 1
 250 499.75 l 1025
125 374.75 m 1
 250 374.75 l 1
 250 499.75 l 1
 125 499.75 l 1
 125 374.75 l 1025
0 249.75 m 1
 125 249.75 l 1
 125 374.75 l 1
 0 374.75 l 1
 0 249.75 l 1025
250 249.75 m 1
 375 249.75 l 1
 375 374.75 l 1
 250 374.75 l 1
 250 249.75 l 1025
0 124.75 m 1
 375 124.75 l 1
 375 249.75 l 1
 0 249.75 l 1
 0 124.75 l 1025
0 -0.25 m 1
 125 -0.25 l 1
 125 124.75 l 1
 0 124.75 l 1
 0 -0.25 l 1025
250 -0.25 m 1
 375 -0.25 l 1
 375 124.75 l 1
 250 124.75 l 1
 250 -0.25 l 1
EndSplineSet
EndChar

StartChar: Aring
Encoding: 197 197 133
Width: 500
VWidth: 0
Flags: HW
LayerCount: 2
Back
Fore
SplineSet
125 499.75 m 1
 250 499.75 l 1
 250 624.75 l 1
 125 624.75 l 1
 125 499.75 l 1025
125 374.75 m 1
 250 374.75 l 1
 250 499.75 l 1
 125 499.75 l 1
 125 374.75 l 1025
0 249.75 m 1
 125 249.75 l 1
 125 374.75 l 1
 0 374.75 l 1
 0 249.75 l 1025
250 249.75 m 1
 375 249.75 l 1
 375 374.75 l 1
 250 374.75 l 1
 250 249.75 l 1025
0 124.75 m 1
 375 124.75 l 1
 375 249.75 l 1
 0 249.75 l 1
 0 124.75 l 1025
0 -0.25 m 1
 125 -0.25 l 1
 125 124.75 l 1
 0 124.75 l 1
 0 -0.25 l 1025
250 -0.25 m 1
 375 -0.25 l 1
 375 124.75 l 1
 250 124.75 l 1
 250 -0.25 l 1
EndSplineSet
EndChar

StartChar: AE
Encoding: 198 198 134
Width: 500
VWidth: 0
Flags: HW
LayerCount: 2
Back
Fore
SplineSet
125 499.75 m 1
 500 499.75 l 1
 500 624.75 l 1
 125 624.75 l 1
 125 499.75 l 1025
0 374.75 m 1
 125 374.75 l 1
 125 499.75 l 1
 0 499.75 l 1
 0 374.75 l 1025
250 374.75 m 1
 375 374.75 l 1
 375 499.75 l 1
 250 499.75 l 1
 250 374.75 l 1025
0 249.75 m 1
 500 249.75 l 1
 500 374.75 l 1
 0 374.75 l 1
 0 249.75 l 1025
0 124.75 m 1
 125 124.75 l 1
 125 249.75 l 1
 0 249.75 l 1
 0 124.75 l 1025
250 124.75 m 1
 375 124.75 l 1
 375 249.75 l 1
 250 249.75 l 1
 250 124.75 l 1025
0 -0.25 m 1
 125 -0.25 l 1
 125 124.75 l 1
 0 124.75 l 1
 0 -0.25 l 1025
250 -0.25 m 1
 500 -0.25 l 1
 500 124.75 l 1
 250 124.75 l 1
 250 -0.25 l 1
EndSplineSet
EndChar

StartChar: Ccedilla
Encoding: 199 199 135
Width: 500
VWidth: 0
Flags: HW
LayerCount: 2
Back
Fore
SplineSet
125 499.75 m 1
 250 499.75 l 1
 250 624.75 l 1
 125 624.75 l 1
 125 499.75 l 1025
0 374.75 m 1
 125 374.75 l 1
 125 499.75 l 1
 0 499.75 l 1
 0 374.75 l 1025
250 374.75 m 1
 375 374.75 l 1
 375 499.75 l 1
 250 499.75 l 1
 250 374.75 l 1025
0 249.75 m 1
 125 249.75 l 1
 125 374.75 l 1
 0 374.75 l 1
 0 249.75 l 1025
0 124.75 m 1
 125 124.75 l 1
 125 249.75 l 1
 0 249.75 l 1
 0 124.75 l 1025
250 124.75 m 1
 375 124.75 l 1
 375 249.75 l 1
 250 249.75 l 1
 250 124.75 l 1025
125 -0.25 m 1
 250 -0.25 l 1
 250 124.75 l 1
 125 124.75 l 1
 125 -0.25 l 1025
0 -125.25 m 1
 125 -125.25 l 1
 125 -0.25 l 1
 0 -0.25 l 1
 0 -125.25 l 1
EndSplineSet
EndChar

StartChar: Egrave
Encoding: 200 200 136
Width: 500
VWidth: 0
Flags: HW
LayerCount: 2
Back
Fore
SplineSet
0 499.75 m 1
 125 499.75 l 1
 125 624.75 l 1
 0 624.75 l 1
 0 499.75 l 1025
0 374.75 m 1
 375 374.75 l 1
 375 499.75 l 1
 0 499.75 l 1
 0 374.75 l 1025
0 249.75 m 1
 250 249.75 l 1
 250 374.75 l 1
 0 374.75 l 1
 0 249.75 l 1025
0 124.75 m 1
 125 124.75 l 1
 125 249.75 l 1
 0 249.75 l 1
 0 124.75 l 1025
0 -0.25 m 1
 375 -0.25 l 1
 375 124.75 l 1
 0 124.75 l 1
 0 -0.25 l 1
EndSplineSet
EndChar

StartChar: Eacute
Encoding: 201 201 137
Width: 500
VWidth: 0
Flags: HW
LayerCount: 2
Back
Fore
SplineSet
250 499.75 m 1
 375 499.75 l 1
 375 624.75 l 1
 250 624.75 l 1
 250 499.75 l 1025
0 374.75 m 1
 375 374.75 l 1
 375 499.75 l 1
 0 499.75 l 1
 0 374.75 l 1025
0 249.75 m 1
 250 249.75 l 1
 250 374.75 l 1
 0 374.75 l 1
 0 249.75 l 1025
0 124.75 m 1
 125 124.75 l 1
 125 249.75 l 1
 0 249.75 l 1
 0 124.75 l 1025
0 -0.25 m 1
 375 -0.25 l 1
 375 124.75 l 1
 0 124.75 l 1
 0 -0.25 l 1
EndSplineSet
EndChar

StartChar: Ecircumflex
Encoding: 202 202 138
Width: 500
VWidth: 0
Flags: HW
LayerCount: 2
Back
Fore
SplineSet
125 499.75 m 1
 375 499.75 l 1
 375 624.75 l 1
 125 624.75 l 1
 125 499.75 l 1025
0 374.75 m 1
 375 374.75 l 1
 375 499.75 l 1
 0 499.75 l 1
 0 374.75 l 1025
0 249.75 m 1
 250 249.75 l 1
 250 374.75 l 1
 0 374.75 l 1
 0 249.75 l 1025
0 124.75 m 1
 125 124.75 l 1
 125 249.75 l 1
 0 249.75 l 1
 0 124.75 l 1025
0 -0.25 m 1
 375 -0.25 l 1
 375 124.75 l 1
 0 124.75 l 1
 0 -0.25 l 1
EndSplineSet
EndChar

StartChar: Edieresis
Encoding: 203 203 139
Width: 500
VWidth: 0
Flags: HW
LayerCount: 2
Back
Fore
SplineSet
0 499.75 m 1
 125 499.75 l 1
 125 624.75 l 1
 0 624.75 l 1
 0 499.75 l 1025
250 499.75 m 1
 375 499.75 l 1
 375 624.75 l 1
 250 624.75 l 1
 250 499.75 l 1025
0 374.75 m 1
 375 374.75 l 1
 375 499.75 l 1
 0 499.75 l 1
 0 374.75 l 1025
0 249.75 m 1
 250 249.75 l 1
 250 374.75 l 1
 0 374.75 l 1
 0 249.75 l 1025
0 124.75 m 1
 125 124.75 l 1
 125 249.75 l 1
 0 249.75 l 1
 0 124.75 l 1025
0 -0.25 m 1
 375 -0.25 l 1
 375 124.75 l 1
 0 124.75 l 1
 0 -0.25 l 1
EndSplineSet
EndChar

StartChar: Igrave
Encoding: 204 204 140
Width: 500
VWidth: 0
Flags: HW
LayerCount: 2
Back
Fore
SplineSet
0 499.75 m 1
 125 499.75 l 1
 125 624.75 l 1
 0 624.75 l 1
 0 499.75 l 1025
0 374.75 m 1
 375 374.75 l 1
 375 499.75 l 1
 0 499.75 l 1
 0 374.75 l 1025
125 249.75 m 1
 250 249.75 l 1
 250 374.75 l 1
 125 374.75 l 1
 125 249.75 l 1025
125 124.75 m 1
 250 124.75 l 1
 250 249.75 l 1
 125 249.75 l 1
 125 124.75 l 1025
0 -0.25 m 1
 375 -0.25 l 1
 375 124.75 l 1
 0 124.75 l 1
 0 -0.25 l 1
EndSplineSet
EndChar

StartChar: Iacute
Encoding: 205 205 141
Width: 500
VWidth: 0
Flags: HW
LayerCount: 2
Back
Fore
SplineSet
250 499.75 m 1
 375 499.75 l 1
 375 624.75 l 1
 250 624.75 l 1
 250 499.75 l 1025
0 374.75 m 1
 375 374.75 l 1
 375 499.75 l 1
 0 499.75 l 1
 0 374.75 l 1025
125 249.75 m 1
 250 249.75 l 1
 250 374.75 l 1
 125 374.75 l 1
 125 249.75 l 1025
125 124.75 m 1
 250 124.75 l 1
 250 249.75 l 1
 125 249.75 l 1
 125 124.75 l 1025
0 -0.25 m 1
 375 -0.25 l 1
 375 124.75 l 1
 0 124.75 l 1
 0 -0.25 l 1
EndSplineSet
EndChar

StartChar: Icircumflex
Encoding: 206 206 142
Width: 500
VWidth: 0
Flags: HW
LayerCount: 2
Back
Fore
SplineSet
125 499.75 m 1
 250 499.75 l 1
 250 624.75 l 1
 125 624.75 l 1
 125 499.75 l 1025
0 374.75 m 1
 375 374.75 l 1
 375 499.75 l 1
 0 499.75 l 1
 0 374.75 l 1025
125 249.75 m 1
 250 249.75 l 1
 250 374.75 l 1
 125 374.75 l 1
 125 249.75 l 1025
125 124.75 m 1
 250 124.75 l 1
 250 249.75 l 1
 125 249.75 l 1
 125 124.75 l 1025
0 -0.25 m 1
 375 -0.25 l 1
 375 124.75 l 1
 0 124.75 l 1
 0 -0.25 l 1
EndSplineSet
EndChar

StartChar: Idieresis
Encoding: 207 207 143
Width: 500
VWidth: 0
Flags: HW
LayerCount: 2
Back
Fore
SplineSet
0 499.75 m 1
 125 499.75 l 1
 125 624.75 l 1
 0 624.75 l 1
 0 499.75 l 1025
250 499.75 m 1
 375 499.75 l 1
 375 624.75 l 1
 250 624.75 l 1
 250 499.75 l 1025
125 374.75 m 1
 250 374.75 l 1
 250 499.75 l 1
 125 499.75 l 1
 125 374.75 l 1025
125 249.75 m 1
 250 249.75 l 1
 250 374.75 l 1
 125 374.75 l 1
 125 249.75 l 1025
125 124.75 m 1
 250 124.75 l 1
 250 249.75 l 1
 125 249.75 l 1
 125 124.75 l 1025
0 -0.25 m 1
 375 -0.25 l 1
 375 124.75 l 1
 0 124.75 l 1
 0 -0.25 l 1
EndSplineSet
EndChar

StartChar: Eth
Encoding: 208 208 144
Width: 500
VWidth: 0
Flags: HW
LayerCount: 2
Back
Fore
SplineSet
0 499.75 m 1
 375 499.75 l 1
 375 624.75 l 1
 0 624.75 l 1
 0 499.75 l 1025
125 374.75 m 1
 250 374.75 l 1
 250 499.75 l 1
 125 499.75 l 1
 125 374.75 l 1025
375 374.75 m 1
 500 374.75 l 1
 500 499.75 l 1
 375 499.75 l 1
 375 374.75 l 1025
0 249.75 m 1
 250 249.75 l 1
 250 374.75 l 1
 0 374.75 l 1
 0 249.75 l 1025
375 249.75 m 1
 500 249.75 l 1
 500 374.75 l 1
 375 374.75 l 1
 375 249.75 l 1025
125 124.75 m 1
 250 124.75 l 1
 250 249.75 l 1
 125 249.75 l 1
 125 124.75 l 1025
375 124.75 m 1
 500 124.75 l 1
 500 249.75 l 1
 375 249.75 l 1
 375 124.75 l 1025
0 -0.25 m 1
 375 -0.25 l 1
 375 124.75 l 1
 0 124.75 l 1
 0 -0.25 l 1
EndSplineSet
EndChar

StartChar: Ntilde
Encoding: 209 209 145
Width: 500
VWidth: 0
Flags: HW
LayerCount: 2
Back
Fore
SplineSet
125 499.75 m 1
 250 499.75 l 1
 250 624.75 l 1
 125 624.75 l 1
 125 499.75 l 1025
375 499.75 m 1
 500 499.75 l 1
 500 624.75 l 1
 375 624.75 l 1
 375 499.75 l 1025
0 374.75 m 1
 125 374.75 l 1
 125 499.75 l 1
 0 499.75 l 1
 0 374.75 l 1025
250 374.75 m 1
 375 374.75 l 1
 375 499.75 l 1
 250 499.75 l 1
 250 374.75 l 1025
0 249.75 m 1
 375 249.75 l 1
 375 374.75 l 1
 0 374.75 l 1
 0 249.75 l 1025
0 124.75 m 1
 375 124.75 l 1
 375 249.75 l 1
 0 249.75 l 1
 0 124.75 l 1025
0 -0.25 m 1
 125 -0.25 l 1
 125 124.75 l 1
 0 124.75 l 1
 0 -0.25 l 1025
250 -0.25 m 1
 375 -0.25 l 1
 375 124.75 l 1
 250 124.75 l 1
 250 -0.25 l 1
EndSplineSet
EndChar

StartChar: Ograve
Encoding: 210 210 146
Width: 500
VWidth: 0
Flags: HW
LayerCount: 2
Back
Fore
SplineSet
0 499.75 m 1
 125 499.75 l 1
 125 624.75 l 1
 0 624.75 l 1
 0 499.75 l 1025
125 374.75 m 1
 250 374.75 l 1
 250 499.75 l 1
 125 499.75 l 1
 125 374.75 l 1025
0 249.75 m 1
 125 249.75 l 1
 125 374.75 l 1
 0 374.75 l 1
 0 249.75 l 1025
250 249.75 m 1
 375 249.75 l 1
 375 374.75 l 1
 250 374.75 l 1
 250 249.75 l 1025
0 124.75 m 1
 125 124.75 l 1
 125 249.75 l 1
 0 249.75 l 1
 0 124.75 l 1025
250 124.75 m 1
 375 124.75 l 1
 375 249.75 l 1
 250 249.75 l 1
 250 124.75 l 1025
125 -0.25 m 1
 250 -0.25 l 1
 250 124.75 l 1
 125 124.75 l 1
 125 -0.25 l 1
EndSplineSet
EndChar

StartChar: Oacute
Encoding: 211 211 147
Width: 500
VWidth: 0
Flags: HW
LayerCount: 2
Back
Fore
SplineSet
250 499.75 m 1
 375 499.75 l 1
 375 624.75 l 1
 250 624.75 l 1
 250 499.75 l 1025
125 374.75 m 1
 250 374.75 l 1
 250 499.75 l 1
 125 499.75 l 1
 125 374.75 l 1025
0 249.75 m 1
 125 249.75 l 1
 125 374.75 l 1
 0 374.75 l 1
 0 249.75 l 1025
250 249.75 m 1
 375 249.75 l 1
 375 374.75 l 1
 250 374.75 l 1
 250 249.75 l 1025
0 124.75 m 1
 125 124.75 l 1
 125 249.75 l 1
 0 249.75 l 1
 0 124.75 l 1025
250 124.75 m 1
 375 124.75 l 1
 375 249.75 l 1
 250 249.75 l 1
 250 124.75 l 1025
125 -0.25 m 1
 250 -0.25 l 1
 250 124.75 l 1
 125 124.75 l 1
 125 -0.25 l 1
EndSplineSet
EndChar

StartChar: Ocircumflex
Encoding: 212 212 148
Width: 500
VWidth: 0
Flags: HW
LayerCount: 2
Back
Fore
SplineSet
125 499.75 m 1
 250 499.75 l 1
 250 624.75 l 1
 125 624.75 l 1
 125 499.75 l 1025
125 374.75 m 1
 250 374.75 l 1
 250 499.75 l 1
 125 499.75 l 1
 125 374.75 l 1025
0 249.75 m 1
 125 249.75 l 1
 125 374.75 l 1
 0 374.75 l 1
 0 249.75 l 1025
250 249.75 m 1
 375 249.75 l 1
 375 374.75 l 1
 250 374.75 l 1
 250 249.75 l 1025
0 124.75 m 1
 125 124.75 l 1
 125 249.75 l 1
 0 249.75 l 1
 0 124.75 l 1025
250 124.75 m 1
 375 124.75 l 1
 375 249.75 l 1
 250 249.75 l 1
 250 124.75 l 1025
125 -0.25 m 1
 250 -0.25 l 1
 250 124.75 l 1
 125 124.75 l 1
 125 -0.25 l 1
EndSplineSet
EndChar

StartChar: Otilde
Encoding: 213 213 149
Width: 500
VWidth: 0
Flags: HW
LayerCount: 2
Back
Fore
SplineSet
125 499.75 m 1
 500 499.75 l 1
 500 624.75 l 1
 125 624.75 l 1
 125 499.75 l 1025
0 374.75 m 1
 375 374.75 l 1
 375 499.75 l 1
 0 499.75 l 1
 0 374.75 l 1025
0 249.75 m 1
 125 249.75 l 1
 125 374.75 l 1
 0 374.75 l 1
 0 249.75 l 1025
250 249.75 m 1
 375 249.75 l 1
 375 374.75 l 1
 250 374.75 l 1
 250 249.75 l 1025
0 124.75 m 1
 125 124.75 l 1
 125 249.75 l 1
 0 249.75 l 1
 0 124.75 l 1025
250 124.75 m 1
 375 124.75 l 1
 375 249.75 l 1
 250 249.75 l 1
 250 124.75 l 1025
125 -0.25 m 1
 250 -0.25 l 1
 250 124.75 l 1
 125 124.75 l 1
 125 -0.25 l 1
EndSplineSet
EndChar

StartChar: Odieresis
Encoding: 214 214 150
Width: 500
VWidth: 0
Flags: HW
LayerCount: 2
Back
Fore
SplineSet
0 499.75 m 1
 125 499.75 l 1
 125 624.75 l 1
 0 624.75 l 1
 0 499.75 l 1025
250 499.75 m 1
 375 499.75 l 1
 375 624.75 l 1
 250 624.75 l 1
 250 499.75 l 1025
125 374.75 m 1
 250 374.75 l 1
 250 499.75 l 1
 125 499.75 l 1
 125 374.75 l 1025
0 249.75 m 1
 125 249.75 l 1
 125 374.75 l 1
 0 374.75 l 1
 0 249.75 l 1025
250 249.75 m 1
 375 249.75 l 1
 375 374.75 l 1
 250 374.75 l 1
 250 249.75 l 1025
0 124.75 m 1
 125 124.75 l 1
 125 249.75 l 1
 0 249.75 l 1
 0 124.75 l 1025
250 124.75 m 1
 375 124.75 l 1
 375 249.75 l 1
 250 249.75 l 1
 250 124.75 l 1025
125 -0.25 m 1
 250 -0.25 l 1
 250 124.75 l 1
 125 124.75 l 1
 125 -0.25 l 1
EndSplineSet
EndChar

StartChar: multiply
Encoding: 215 215 151
Width: 500
VWidth: 0
Flags: HW
LayerCount: 2
Back
Fore
SplineSet
0 374.75 m 1
 125 374.75 l 1
 125 499.75 l 1
 0 499.75 l 1
 0 374.75 l 1025
250 374.75 m 1
 375 374.75 l 1
 375 499.75 l 1
 250 499.75 l 1
 250 374.75 l 1025
125 249.75 m 1
 250 249.75 l 1
 250 374.75 l 1
 125 374.75 l 1
 125 249.75 l 1025
0 124.75 m 1
 125 124.75 l 1
 125 249.75 l 1
 0 249.75 l 1
 0 124.75 l 1025
250 124.75 m 1
 375 124.75 l 1
 375 249.75 l 1
 250 249.75 l 1
 250 124.75 l 1
EndSplineSet
EndChar

StartChar: Oslash
Encoding: 216 216 152
Width: 500
VWidth: 0
Flags: HW
LayerCount: 2
Back
Fore
SplineSet
125 499.75 m 1
 375 499.75 l 1
 375 624.75 l 1
 125 624.75 l 1
 125 499.75 l 1025
0 374.75 m 1
 125 374.75 l 1
 125 499.75 l 1
 0 499.75 l 1
 0 374.75 l 1025
250 374.75 m 1
 375 374.75 l 1
 375 499.75 l 1
 250 499.75 l 1
 250 374.75 l 1025
0 249.75 m 1
 375 249.75 l 1
 375 374.75 l 1
 0 374.75 l 1
 0 249.75 l 1025
0 124.75 m 1
 125 124.75 l 1
 125 249.75 l 1
 0 249.75 l 1
 0 124.75 l 1025
250 124.75 m 1
 375 124.75 l 1
 375 249.75 l 1
 250 249.75 l 1
 250 124.75 l 1025
0 -0.25 m 1
 250 -0.25 l 1
 250 124.75 l 1
 0 124.75 l 1
 0 -0.25 l 1
EndSplineSet
EndChar

StartChar: Ugrave
Encoding: 217 217 153
Width: 500
VWidth: 0
Flags: HW
LayerCount: 2
Back
Fore
SplineSet
0 499.75 m 1
 125 499.75 l 1
 125 624.75 l 1
 0 624.75 l 1
 0 499.75 l 1025
125 374.75 m 1
 250 374.75 l 1
 250 499.75 l 1
 125 499.75 l 1
 125 374.75 l 1025
0 249.75 m 1
 125 249.75 l 1
 125 374.75 l 1
 0 374.75 l 1
 0 249.75 l 1025
250 249.75 m 1
 375 249.75 l 1
 375 374.75 l 1
 250 374.75 l 1
 250 249.75 l 1025
0 124.75 m 1
 125 124.75 l 1
 125 249.75 l 1
 0 249.75 l 1
 0 124.75 l 1025
250 124.75 m 1
 375 124.75 l 1
 375 249.75 l 1
 250 249.75 l 1
 250 124.75 l 1025
0 -0.25 m 1
 375 -0.25 l 1
 375 124.75 l 1
 0 124.75 l 1
 0 -0.25 l 1
EndSplineSet
EndChar

StartChar: Uacute
Encoding: 218 218 154
Width: 500
VWidth: 0
Flags: HW
LayerCount: 2
Back
Fore
SplineSet
250 499.75 m 1
 375 499.75 l 1
 375 624.75 l 1
 250 624.75 l 1
 250 499.75 l 1025
125 374.75 m 1
 250 374.75 l 1
 250 499.75 l 1
 125 499.75 l 1
 125 374.75 l 1025
0 249.75 m 1
 125 249.75 l 1
 125 374.75 l 1
 0 374.75 l 1
 0 249.75 l 1025
250 249.75 m 1
 375 249.75 l 1
 375 374.75 l 1
 250 374.75 l 1
 250 249.75 l 1025
0 124.75 m 1
 125 124.75 l 1
 125 249.75 l 1
 0 249.75 l 1
 0 124.75 l 1025
250 124.75 m 1
 375 124.75 l 1
 375 249.75 l 1
 250 249.75 l 1
 250 124.75 l 1025
0 -0.25 m 1
 375 -0.25 l 1
 375 124.75 l 1
 0 124.75 l 1
 0 -0.25 l 1
EndSplineSet
EndChar

StartChar: Ucircumflex
Encoding: 219 219 155
Width: 500
VWidth: 0
Flags: HW
LayerCount: 2
Back
Fore
SplineSet
125 499.75 m 1
 250 499.75 l 1
 250 624.75 l 1
 125 624.75 l 1
 125 499.75 l 1025
0 249.75 m 1
 125 249.75 l 1
 125 374.75 l 1
 0 374.75 l 1
 0 249.75 l 1025
250 249.75 m 1
 375 249.75 l 1
 375 374.75 l 1
 250 374.75 l 1
 250 249.75 l 1025
0 124.75 m 1
 125 124.75 l 1
 125 249.75 l 1
 0 249.75 l 1
 0 124.75 l 1025
250 124.75 m 1
 375 124.75 l 1
 375 249.75 l 1
 250 249.75 l 1
 250 124.75 l 1025
0 -0.25 m 1
 375 -0.25 l 1
 375 124.75 l 1
 0 124.75 l 1
 0 -0.25 l 1
EndSplineSet
EndChar

StartChar: Udieresis
Encoding: 220 220 156
Width: 500
VWidth: 0
Flags: HW
LayerCount: 2
Back
Fore
SplineSet
0 499.75 m 1
 125 499.75 l 1
 125 624.75 l 1
 0 624.75 l 1
 0 499.75 l 1025
250 499.75 m 1
 375 499.75 l 1
 375 624.75 l 1
 250 624.75 l 1
 250 499.75 l 1025
0 249.75 m 1
 125 249.75 l 1
 125 374.75 l 1
 0 374.75 l 1
 0 249.75 l 1025
250 249.75 m 1
 375 249.75 l 1
 375 374.75 l 1
 250 374.75 l 1
 250 249.75 l 1025
0 124.75 m 1
 125 124.75 l 1
 125 249.75 l 1
 0 249.75 l 1
 0 124.75 l 1025
250 124.75 m 1
 375 124.75 l 1
 375 249.75 l 1
 250 249.75 l 1
 250 124.75 l 1025
0 -0.25 m 1
 375 -0.25 l 1
 375 124.75 l 1
 0 124.75 l 1
 0 -0.25 l 1
EndSplineSet
EndChar

StartChar: Yacute
Encoding: 221 221 157
Width: 500
VWidth: 0
Flags: HW
LayerCount: 2
Back
Fore
SplineSet
250 499.75 m 1
 375 499.75 l 1
 375 624.75 l 1
 250 624.75 l 1
 250 499.75 l 1025
0 249.75 m 1
 125 249.75 l 1
 125 374.75 l 1
 0 374.75 l 1
 0 249.75 l 1025
250 249.75 m 1
 375 249.75 l 1
 375 374.75 l 1
 250 374.75 l 1
 250 249.75 l 1025
125 124.75 m 1
 250 124.75 l 1
 250 249.75 l 1
 125 249.75 l 1
 125 124.75 l 1025
125 -0.25 m 1
 250 -0.25 l 1
 250 124.75 l 1
 125 124.75 l 1
 125 -0.25 l 1
EndSplineSet
EndChar

StartChar: Thorn
Encoding: 222 222 158
Width: 500
VWidth: 0
Flags: HW
LayerCount: 2
Back
Fore
SplineSet
0 499.75 m 1
 125 499.75 l 1
 125 624.75 l 1
 0 624.75 l 1
 0 499.75 l 1025
0 374.75 m 1
 250 374.75 l 1
 250 499.75 l 1
 0 499.75 l 1
 0 374.75 l 1025
0 249.75 m 1
 125 249.75 l 1
 125 374.75 l 1
 0 374.75 l 1
 0 249.75 l 1025
250 249.75 m 1
 375 249.75 l 1
 375 374.75 l 1
 250 374.75 l 1
 250 249.75 l 1025
0 124.75 m 1
 250 124.75 l 1
 250 249.75 l 1
 0 249.75 l 1
 0 124.75 l 1025
0 -0.25 m 1
 125 -0.25 l 1
 125 124.75 l 1
 0 124.75 l 1
 0 -0.25 l 1
EndSplineSet
EndChar

StartChar: germandbls
Encoding: 223 223 159
Width: 500
VWidth: 0
Flags: HW
LayerCount: 2
Back
Fore
SplineSet
125 499.75 m 1
 250 499.75 l 1
 250 624.75 l 1
 125 624.75 l 1
 125 499.75 l 1025
0 374.75 m 1
 125 374.75 l 1
 125 499.75 l 1
 0 499.75 l 1
 0 374.75 l 1025
250 374.75 m 1
 375 374.75 l 1
 375 499.75 l 1
 250 499.75 l 1
 250 374.75 l 1025
0 249.75 m 1
 250 249.75 l 1
 250 374.75 l 1
 0 374.75 l 1
 0 249.75 l 1025
0 124.75 m 1
 125 124.75 l 1
 125 249.75 l 1
 0 249.75 l 1
 0 124.75 l 1025
250 124.75 m 1
 375 124.75 l 1
 375 249.75 l 1
 250 249.75 l 1
 250 124.75 l 1025
0 -0.25 m 1
 375 -0.25 l 1
 375 124.75 l 1
 0 124.75 l 1
 0 -0.25 l 1025
0 -125.25 m 1
 125 -125.25 l 1
 125 -0.25 l 1
 0 -0.25 l 1
 0 -125.25 l 1
EndSplineSet
EndChar

StartChar: agrave
Encoding: 224 224 160
Width: 500
VWidth: 0
Flags: HW
LayerCount: 2
Back
Fore
SplineSet
0 499.75 m 1
 125 499.75 l 1
 125 624.75 l 1
 0 624.75 l 1
 0 499.75 l 1025
125 374.75 m 1
 250 374.75 l 1
 250 499.75 l 1
 125 499.75 l 1
 125 374.75 l 1025
125 249.75 m 1
 375 249.75 l 1
 375 374.75 l 1
 125 374.75 l 1
 125 249.75 l 1025
0 124.75 m 1
 125 124.75 l 1
 125 249.75 l 1
 0 249.75 l 1
 0 124.75 l 1025
250 124.75 m 1
 375 124.75 l 1
 375 249.75 l 1
 250 249.75 l 1
 250 124.75 l 1025
125 -0.25 m 1
 375 -0.25 l 1
 375 124.75 l 1
 125 124.75 l 1
 125 -0.25 l 1
EndSplineSet
EndChar

StartChar: aacute
Encoding: 225 225 161
Width: 500
VWidth: 0
Flags: HW
LayerCount: 2
Back
Fore
SplineSet
250 499.75 m 1
 375 499.75 l 1
 375 624.75 l 1
 250 624.75 l 1
 250 499.75 l 1025
125 374.75 m 1
 250 374.75 l 1
 250 499.75 l 1
 125 499.75 l 1
 125 374.75 l 1025
125 249.75 m 1
 375 249.75 l 1
 375 374.75 l 1
 125 374.75 l 1
 125 249.75 l 1025
0 124.75 m 1
 125 124.75 l 1
 125 249.75 l 1
 0 249.75 l 1
 0 124.75 l 1025
250 124.75 m 1
 375 124.75 l 1
 375 249.75 l 1
 250 249.75 l 1
 250 124.75 l 1025
125 -0.25 m 1
 375 -0.25 l 1
 375 124.75 l 1
 125 124.75 l 1
 125 -0.25 l 1
EndSplineSet
EndChar

StartChar: acircumflex
Encoding: 226 226 162
Width: 500
VWidth: 0
Flags: HW
LayerCount: 2
Back
Fore
SplineSet
125 499.75 m 1
 375 499.75 l 1
 375 624.75 l 1
 125 624.75 l 1
 125 499.75 l 1025
125 249.75 m 1
 375 249.75 l 1
 375 374.75 l 1
 125 374.75 l 1
 125 249.75 l 1025
0 124.75 m 1
 125 124.75 l 1
 125 249.75 l 1
 0 249.75 l 1
 0 124.75 l 1025
250 124.75 m 1
 375 124.75 l 1
 375 249.75 l 1
 250 249.75 l 1
 250 124.75 l 1025
125 -0.25 m 1
 375 -0.25 l 1
 375 124.75 l 1
 125 124.75 l 1
 125 -0.25 l 1
EndSplineSet
EndChar

StartChar: atilde
Encoding: 227 227 163
Width: 500
VWidth: 0
Flags: HW
LayerCount: 2
Back
Fore
SplineSet
125 499.75 m 1
 250 499.75 l 1
 250 624.75 l 1
 125 624.75 l 1
 125 499.75 l 1025
375 499.75 m 1
 500 499.75 l 1
 500 624.75 l 1
 375 624.75 l 1
 375 499.75 l 1025
0 374.75 m 1
 125 374.75 l 1
 125 499.75 l 1
 0 499.75 l 1
 0 374.75 l 1025
250 374.75 m 1
 375 374.75 l 1
 375 499.75 l 1
 250 499.75 l 1
 250 374.75 l 1025
125 249.75 m 1
 375 249.75 l 1
 375 374.75 l 1
 125 374.75 l 1
 125 249.75 l 1025
0 124.75 m 1
 125 124.75 l 1
 125 249.75 l 1
 0 249.75 l 1
 0 124.75 l 1025
250 124.75 m 1
 375 124.75 l 1
 375 249.75 l 1
 250 249.75 l 1
 250 124.75 l 1025
125 -0.25 m 1
 375 -0.25 l 1
 375 124.75 l 1
 125 124.75 l 1
 125 -0.25 l 1
EndSplineSet
EndChar

StartChar: adieresis
Encoding: 228 228 164
Width: 500
VWidth: 0
Flags: HW
LayerCount: 2
Back
Fore
SplineSet
0 499.75 m 1
 125 499.75 l 1
 125 624.75 l 1
 0 624.75 l 1
 0 499.75 l 1025
250 499.75 m 1
 375 499.75 l 1
 375 624.75 l 1
 250 624.75 l 1
 250 499.75 l 1025
125 249.75 m 1
 375 249.75 l 1
 375 374.75 l 1
 125 374.75 l 1
 125 249.75 l 1025
0 124.75 m 1
 125 124.75 l 1
 125 249.75 l 1
 0 249.75 l 1
 0 124.75 l 1025
250 124.75 m 1
 375 124.75 l 1
 375 249.75 l 1
 250 249.75 l 1
 250 124.75 l 1025
125 -0.25 m 1
 375 -0.25 l 1
 375 124.75 l 1
 125 124.75 l 1
 125 -0.25 l 1
EndSplineSet
EndChar

StartChar: aring
Encoding: 229 229 165
Width: 500
VWidth: 0
Flags: HW
LayerCount: 2
Back
Fore
SplineSet
125 499.75 m 1
 250 499.75 l 1
 250 624.75 l 1
 125 624.75 l 1
 125 499.75 l 1025
125 249.75 m 1
 375 249.75 l 1
 375 374.75 l 1
 125 374.75 l 1
 125 249.75 l 1025
0 124.75 m 1
 125 124.75 l 1
 125 249.75 l 1
 0 249.75 l 1
 0 124.75 l 1025
250 124.75 m 1
 375 124.75 l 1
 375 249.75 l 1
 250 249.75 l 1
 250 124.75 l 1025
125 -0.25 m 1
 375 -0.25 l 1
 375 124.75 l 1
 125 124.75 l 1
 125 -0.25 l 1
EndSplineSet
EndChar

StartChar: ae
Encoding: 230 230 166
Width: 500
VWidth: 0
Flags: HW
LayerCount: 2
Back
Fore
SplineSet
125 374.75 m 1
 500 374.75 l 1
 500 499.75 l 1
 125 499.75 l 1
 125 374.75 l 1025
0 249.75 m 1
 125 249.75 l 1
 125 374.75 l 1
 0 374.75 l 1
 0 249.75 l 1025
250 249.75 m 1
 500 249.75 l 1
 500 374.75 l 1
 250 374.75 l 1
 250 249.75 l 1025
0 124.75 m 1
 125 124.75 l 1
 125 249.75 l 1
 0 249.75 l 1
 0 124.75 l 1025
250 124.75 m 1
 375 124.75 l 1
 375 249.75 l 1
 250 249.75 l 1
 250 124.75 l 1025
125 -0.25 m 1
 500 -0.25 l 1
 500 124.75 l 1
 125 124.75 l 1
 125 -0.25 l 1
EndSplineSet
EndChar

StartChar: ccedilla
Encoding: 231 231 167
Width: 500
VWidth: 0
Flags: HW
LayerCount: 2
Back
Fore
SplineSet
125 374.75 m 1
 250 374.75 l 1
 250 499.75 l 1
 125 499.75 l 1
 125 374.75 l 1025
0 249.75 m 1
 125 249.75 l 1
 125 374.75 l 1
 0 374.75 l 1
 0 249.75 l 1025
250 249.75 m 1
 375 249.75 l 1
 375 374.75 l 1
 250 374.75 l 1
 250 249.75 l 1025
0 124.75 m 1
 125 124.75 l 1
 125 249.75 l 1
 0 249.75 l 1
 0 124.75 l 1025
125 -0.25 m 1
 375 -0.25 l 1
 375 124.75 l 1
 125 124.75 l 1
 125 -0.25 l 1025
125 -125.25 m 1
 250 -125.25 l 1
 250 -0.25 l 1
 125 -0.25 l 1
 125 -125.25 l 1
EndSplineSet
EndChar

StartChar: egrave
Encoding: 232 232 168
Width: 500
VWidth: 0
Flags: HW
LayerCount: 2
Back
Fore
SplineSet
0 499.75 m 1
 125 499.75 l 1
 125 624.75 l 1
 0 624.75 l 1
 0 499.75 l 1025
125 374.75 m 1
 250 374.75 l 1
 250 499.75 l 1
 125 499.75 l 1
 125 374.75 l 1025
0 249.75 m 1
 125 249.75 l 1
 125 374.75 l 1
 0 374.75 l 1
 0 249.75 l 1025
250 249.75 m 1
 375 249.75 l 1
 375 374.75 l 1
 250 374.75 l 1
 250 249.75 l 1025
0 124.75 m 1
 250 124.75 l 1
 250 249.75 l 1
 0 249.75 l 1
 0 124.75 l 1025
125 -0.25 m 1
 375 -0.25 l 1
 375 124.75 l 1
 125 124.75 l 1
 125 -0.25 l 1
EndSplineSet
EndChar

StartChar: eacute
Encoding: 233 233 169
Width: 500
VWidth: 0
Flags: HW
LayerCount: 2
Back
Fore
SplineSet
250 499.75 m 1
 375 499.75 l 1
 375 624.75 l 1
 250 624.75 l 1
 250 499.75 l 1025
125 374.75 m 1
 250 374.75 l 1
 250 499.75 l 1
 125 499.75 l 1
 125 374.75 l 1025
0 249.75 m 1
 125 249.75 l 1
 125 374.75 l 1
 0 374.75 l 1
 0 249.75 l 1025
250 249.75 m 1
 375 249.75 l 1
 375 374.75 l 1
 250 374.75 l 1
 250 249.75 l 1025
0 124.75 m 1
 250 124.75 l 1
 250 249.75 l 1
 0 249.75 l 1
 0 124.75 l 1025
125 -0.25 m 1
 375 -0.25 l 1
 375 124.75 l 1
 125 124.75 l 1
 125 -0.25 l 1
EndSplineSet
EndChar

StartChar: ecircumflex
Encoding: 234 234 170
Width: 500
VWidth: 0
Flags: HW
LayerCount: 2
Back
Fore
SplineSet
0 499.75 m 1
 250 499.75 l 1
 250 624.75 l 1
 0 624.75 l 1
 0 499.75 l 1025
125 374.75 m 1
 250 374.75 l 1
 250 499.75 l 1
 125 499.75 l 1
 125 374.75 l 1025
0 249.75 m 1
 125 249.75 l 1
 125 374.75 l 1
 0 374.75 l 1
 0 249.75 l 1025
250 249.75 m 1
 375 249.75 l 1
 375 374.75 l 1
 250 374.75 l 1
 250 249.75 l 1025
0 124.75 m 1
 250 124.75 l 1
 250 249.75 l 1
 0 249.75 l 1
 0 124.75 l 1025
125 -0.25 m 1
 375 -0.25 l 1
 375 124.75 l 1
 125 124.75 l 1
 125 -0.25 l 1
EndSplineSet
EndChar

StartChar: edieresis
Encoding: 235 235 171
Width: 500
VWidth: 0
Flags: HW
LayerCount: 2
Back
Fore
SplineSet
0 499.75 m 1
 125 499.75 l 1
 125 624.75 l 1
 0 624.75 l 1
 0 499.75 l 1025
250 499.75 m 1
 375 499.75 l 1
 375 624.75 l 1
 250 624.75 l 1
 250 499.75 l 1025
125 374.75 m 1
 250 374.75 l 1
 250 499.75 l 1
 125 499.75 l 1
 125 374.75 l 1025
0 249.75 m 1
 125 249.75 l 1
 125 374.75 l 1
 0 374.75 l 1
 0 249.75 l 1025
250 249.75 m 1
 375 249.75 l 1
 375 374.75 l 1
 250 374.75 l 1
 250 249.75 l 1025
0 124.75 m 1
 250 124.75 l 1
 250 249.75 l 1
 0 249.75 l 1
 0 124.75 l 1025
125 -0.25 m 1
 375 -0.25 l 1
 375 124.75 l 1
 125 124.75 l 1
 125 -0.25 l 1
EndSplineSet
EndChar

StartChar: igrave
Encoding: 236 236 172
Width: 500
VWidth: 0
Flags: HW
LayerCount: 2
Back
Fore
SplineSet
0 499.75 m 1
 125 499.75 l 1
 125 624.75 l 1
 0 624.75 l 1
 0 499.75 l 1025
125 374.75 m 1
 250 374.75 l 1
 250 499.75 l 1
 125 499.75 l 1
 125 374.75 l 1025
125 249.75 m 1
 250 249.75 l 1
 250 374.75 l 1
 125 374.75 l 1
 125 249.75 l 1025
125 124.75 m 1
 250 124.75 l 1
 250 249.75 l 1
 125 249.75 l 1
 125 124.75 l 1025
0 -0.25 m 1
 375 -0.25 l 1
 375 124.75 l 1
 0 124.75 l 1
 0 -0.25 l 1
EndSplineSet
EndChar

StartChar: iacute
Encoding: 237 237 173
Width: 500
VWidth: 0
Flags: HW
LayerCount: 2
Back
Fore
SplineSet
250 499.75 m 1
 375 499.75 l 1
 375 624.75 l 1
 250 624.75 l 1
 250 499.75 l 1025
0 374.75 m 1
 250 374.75 l 1
 250 499.75 l 1
 0 499.75 l 1
 0 374.75 l 1025
125 249.75 m 1
 250 249.75 l 1
 250 374.75 l 1
 125 374.75 l 1
 125 249.75 l 1025
125 124.75 m 1
 250 124.75 l 1
 250 249.75 l 1
 125 249.75 l 1
 125 124.75 l 1025
0 -0.25 m 1
 375 -0.25 l 1
 375 124.75 l 1
 0 124.75 l 1
 0 -0.25 l 1
EndSplineSet
EndChar

StartChar: icircumflex
Encoding: 238 238 174
Width: 500
VWidth: 0
Flags: HW
LayerCount: 2
Back
Fore
SplineSet
125 499.75 m 1
 250 499.75 l 1
 250 624.75 l 1
 125 624.75 l 1
 125 499.75 l 1025
0 374.75 m 1
 125 374.75 l 1
 125 499.75 l 1
 0 499.75 l 1
 0 374.75 l 1025
250 374.75 m 1
 375 374.75 l 1
 375 499.75 l 1
 250 499.75 l 1
 250 374.75 l 1025
125 249.75 m 1
 250 249.75 l 1
 250 374.75 l 1
 125 374.75 l 1
 125 249.75 l 1025
125 124.75 m 1
 250 124.75 l 1
 250 249.75 l 1
 125 249.75 l 1
 125 124.75 l 1025
0 -0.25 m 1
 375 -0.25 l 1
 375 124.75 l 1
 0 124.75 l 1
 0 -0.25 l 1
EndSplineSet
EndChar

StartChar: idieresis
Encoding: 239 239 175
Width: 500
VWidth: 0
Flags: HW
LayerCount: 2
Back
Fore
SplineSet
0 499.75 m 1
 125 499.75 l 1
 125 624.75 l 1
 0 624.75 l 1
 0 499.75 l 1025
250 499.75 m 1
 375 499.75 l 1
 375 624.75 l 1
 250 624.75 l 1
 250 499.75 l 1025
0 249.75 m 1
 250 249.75 l 1
 250 374.75 l 1
 0 374.75 l 1
 0 249.75 l 1025
125 124.75 m 1
 250 124.75 l 1
 250 249.75 l 1
 125 249.75 l 1
 125 124.75 l 1025
0 -0.25 m 1
 375 -0.25 l 1
 375 124.75 l 1
 0 124.75 l 1
 0 -0.25 l 1
EndSplineSet
EndChar

StartChar: eth
Encoding: 240 240 176
Width: 500
VWidth: 0
Flags: HW
LayerCount: 2
Back
Fore
SplineSet
0 499.75 m 1
 125 499.75 l 1
 125 624.75 l 1
 0 624.75 l 1
 0 499.75 l 1025
250 499.75 m 1
 375 499.75 l 1
 375 624.75 l 1
 250 624.75 l 1
 250 499.75 l 1025
125 374.75 m 1
 250 374.75 l 1
 250 499.75 l 1
 125 499.75 l 1
 125 374.75 l 1025
125 249.75 m 1
 375 249.75 l 1
 375 374.75 l 1
 125 374.75 l 1
 125 249.75 l 1025
0 124.75 m 1
 125 124.75 l 1
 125 249.75 l 1
 0 249.75 l 1
 0 124.75 l 1025
250 124.75 m 1
 375 124.75 l 1
 375 249.75 l 1
 250 249.75 l 1
 250 124.75 l 1025
125 -0.25 m 1
 250 -0.25 l 1
 250 124.75 l 1
 125 124.75 l 1
 125 -0.25 l 1
EndSplineSet
EndChar

StartChar: ntilde
Encoding: 241 241 177
Width: 500
VWidth: 0
Flags: HW
LayerCount: 2
Back
Fore
SplineSet
125 499.75 m 1
 250 499.75 l 1
 250 624.75 l 1
 125 624.75 l 1
 125 499.75 l 1025
375 499.75 m 1
 500 499.75 l 1
 500 624.75 l 1
 375 624.75 l 1
 375 499.75 l 1025
0 374.75 m 1
 125 374.75 l 1
 125 499.75 l 1
 0 499.75 l 1
 0 374.75 l 1025
250 374.75 m 1
 375 374.75 l 1
 375 499.75 l 1
 250 499.75 l 1
 250 374.75 l 1025
0 249.75 m 1
 250 249.75 l 1
 250 374.75 l 1
 0 374.75 l 1
 0 249.75 l 1025
0 124.75 m 1
 125 124.75 l 1
 125 249.75 l 1
 0 249.75 l 1
 0 124.75 l 1025
250 124.75 m 1
 375 124.75 l 1
 375 249.75 l 1
 250 249.75 l 1
 250 124.75 l 1025
0 -0.25 m 1
 125 -0.25 l 1
 125 124.75 l 1
 0 124.75 l 1
 0 -0.25 l 1025
250 -0.25 m 1
 375 -0.25 l 1
 375 124.75 l 1
 250 124.75 l 1
 250 -0.25 l 1
EndSplineSet
EndChar

StartChar: ograve
Encoding: 242 242 178
Width: 500
VWidth: 0
Flags: HW
LayerCount: 2
Back
Fore
SplineSet
0 499.75 m 1
 125 499.75 l 1
 125 624.75 l 1
 0 624.75 l 1
 0 499.75 l 1025
125 374.75 m 1
 250 374.75 l 1
 250 499.75 l 1
 125 499.75 l 1
 125 374.75 l 1025
125 249.75 m 1
 250 249.75 l 1
 250 374.75 l 1
 125 374.75 l 1
 125 249.75 l 1025
0 124.75 m 1
 125 124.75 l 1
 125 249.75 l 1
 0 249.75 l 1
 0 124.75 l 1025
250 124.75 m 1
 375 124.75 l 1
 375 249.75 l 1
 250 249.75 l 1
 250 124.75 l 1025
125 -0.25 m 1
 250 -0.25 l 1
 250 124.75 l 1
 125 124.75 l 1
 125 -0.25 l 1
EndSplineSet
EndChar

StartChar: oacute
Encoding: 243 243 179
Width: 500
VWidth: 0
Flags: HW
LayerCount: 2
Back
Fore
SplineSet
250 499.75 m 1
 375 499.75 l 1
 375 624.75 l 1
 250 624.75 l 1
 250 499.75 l 1025
125 374.75 m 1
 250 374.75 l 1
 250 499.75 l 1
 125 499.75 l 1
 125 374.75 l 1025
125 249.75 m 1
 250 249.75 l 1
 250 374.75 l 1
 125 374.75 l 1
 125 249.75 l 1025
0 124.75 m 1
 125 124.75 l 1
 125 249.75 l 1
 0 249.75 l 1
 0 124.75 l 1025
250 124.75 m 1
 375 124.75 l 1
 375 249.75 l 1
 250 249.75 l 1
 250 124.75 l 1025
125 -0.25 m 1
 250 -0.25 l 1
 250 124.75 l 1
 125 124.75 l 1
 125 -0.25 l 1
EndSplineSet
EndChar

StartChar: ocircumflex
Encoding: 244 244 180
Width: 500
VWidth: 0
Flags: HW
LayerCount: 2
Back
Fore
SplineSet
125 499.75 m 1
 250 499.75 l 1
 250 624.75 l 1
 125 624.75 l 1
 125 499.75 l 1025
125 249.75 m 1
 250 249.75 l 1
 250 374.75 l 1
 125 374.75 l 1
 125 249.75 l 1025
0 124.75 m 1
 125 124.75 l 1
 125 249.75 l 1
 0 249.75 l 1
 0 124.75 l 1025
250 124.75 m 1
 375 124.75 l 1
 375 249.75 l 1
 250 249.75 l 1
 250 124.75 l 1025
125 -0.25 m 1
 250 -0.25 l 1
 250 124.75 l 1
 125 124.75 l 1
 125 -0.25 l 1
EndSplineSet
EndChar

StartChar: otilde
Encoding: 245 245 181
Width: 500
VWidth: 0
Flags: HW
LayerCount: 2
Back
Fore
SplineSet
0 499.75 m 1
 375 499.75 l 1
 375 624.75 l 1
 0 624.75 l 1
 0 499.75 l 1025
125 249.75 m 1
 250 249.75 l 1
 250 374.75 l 1
 125 374.75 l 1
 125 249.75 l 1025
0 124.75 m 1
 125 124.75 l 1
 125 249.75 l 1
 0 249.75 l 1
 0 124.75 l 1025
250 124.75 m 1
 375 124.75 l 1
 375 249.75 l 1
 250 249.75 l 1
 250 124.75 l 1025
125 -0.25 m 1
 250 -0.25 l 1
 250 124.75 l 1
 125 124.75 l 1
 125 -0.25 l 1
EndSplineSet
EndChar

StartChar: odieresis
Encoding: 246 246 182
Width: 500
VWidth: 0
Flags: HW
LayerCount: 2
Back
Fore
SplineSet
0 499.75 m 1
 125 499.75 l 1
 125 624.75 l 1
 0 624.75 l 1
 0 499.75 l 1025
250 499.75 m 1
 375 499.75 l 1
 375 624.75 l 1
 250 624.75 l 1
 250 499.75 l 1025
125 249.75 m 1
 250 249.75 l 1
 250 374.75 l 1
 125 374.75 l 1
 125 249.75 l 1025
0 124.75 m 1
 125 124.75 l 1
 125 249.75 l 1
 0 249.75 l 1
 0 124.75 l 1025
250 124.75 m 1
 375 124.75 l 1
 375 249.75 l 1
 250 249.75 l 1
 250 124.75 l 1025
125 -0.25 m 1
 250 -0.25 l 1
 250 124.75 l 1
 125 124.75 l 1
 125 -0.25 l 1
EndSplineSet
EndChar

StartChar: divide
Encoding: 247 247 183
Width: 500
VWidth: 0
Flags: HW
LayerCount: 2
Back
Fore
SplineSet
125 499.75 m 1
 250 499.75 l 1
 250 624.75 l 1
 125 624.75 l 1
 125 499.75 l 1025
0 249.75 m 1
 375 249.75 l 1
 375 374.75 l 1
 0 374.75 l 1
 0 249.75 l 1025
125 -0.25 m 1
 250 -0.25 l 1
 250 124.75 l 1
 125 124.75 l 1
 125 -0.25 l 1
EndSplineSet
EndChar

StartChar: oslash
Encoding: 248 248 184
Width: 500
VWidth: 0
Flags: HW
LayerCount: 2
Back
Fore
SplineSet
125 374.75 m 1
 375 374.75 l 1
 375 499.75 l 1
 125 499.75 l 1
 125 374.75 l 1025
0 249.75 m 1
 125 249.75 l 1
 125 374.75 l 1
 0 374.75 l 1
 0 249.75 l 1025
250 249.75 m 1
 375 249.75 l 1
 375 374.75 l 1
 250 374.75 l 1
 250 249.75 l 1025
0 124.75 m 1
 125 124.75 l 1
 125 249.75 l 1
 0 249.75 l 1
 0 124.75 l 1025
250 124.75 m 1
 375 124.75 l 1
 375 249.75 l 1
 250 249.75 l 1
 250 124.75 l 1025
0 -0.25 m 1
 250 -0.25 l 1
 250 124.75 l 1
 0 124.75 l 1
 0 -0.25 l 1
EndSplineSet
EndChar

StartChar: ugrave
Encoding: 249 249 185
Width: 500
VWidth: 0
Flags: HW
LayerCount: 2
Back
Fore
SplineSet
0 499.75 m 1
 125 499.75 l 1
 125 624.75 l 1
 0 624.75 l 1
 0 499.75 l 1025
125 374.75 m 1
 250 374.75 l 1
 250 499.75 l 1
 125 499.75 l 1
 125 374.75 l 1025
0 249.75 m 1
 125 249.75 l 1
 125 374.75 l 1
 0 374.75 l 1
 0 249.75 l 1025
250 249.75 m 1
 375 249.75 l 1
 375 374.75 l 1
 250 374.75 l 1
 250 249.75 l 1025
0 124.75 m 1
 125 124.75 l 1
 125 249.75 l 1
 0 249.75 l 1
 0 124.75 l 1025
250 124.75 m 1
 375 124.75 l 1
 375 249.75 l 1
 250 249.75 l 1
 250 124.75 l 1025
125 -0.25 m 1
 375 -0.25 l 1
 375 124.75 l 1
 125 124.75 l 1
 125 -0.25 l 1
EndSplineSet
EndChar

StartChar: uacute
Encoding: 250 250 186
Width: 500
VWidth: 0
Flags: HW
LayerCount: 2
Back
Fore
SplineSet
250 499.75 m 1
 375 499.75 l 1
 375 624.75 l 1
 250 624.75 l 1
 250 499.75 l 1025
125 374.75 m 1
 250 374.75 l 1
 250 499.75 l 1
 125 499.75 l 1
 125 374.75 l 1025
0 249.75 m 1
 125 249.75 l 1
 125 374.75 l 1
 0 374.75 l 1
 0 249.75 l 1025
250 249.75 m 1
 375 249.75 l 1
 375 374.75 l 1
 250 374.75 l 1
 250 249.75 l 1025
0 124.75 m 1
 125 124.75 l 1
 125 249.75 l 1
 0 249.75 l 1
 0 124.75 l 1025
250 124.75 m 1
 375 124.75 l 1
 375 249.75 l 1
 250 249.75 l 1
 250 124.75 l 1025
125 -0.25 m 1
 375 -0.25 l 1
 375 124.75 l 1
 125 124.75 l 1
 125 -0.25 l 1
EndSplineSet
EndChar

StartChar: ucircumflex
Encoding: 251 251 187
Width: 500
VWidth: 0
Flags: HW
LayerCount: 2
Back
Fore
SplineSet
125 499.75 m 1
 250 499.75 l 1
 250 624.75 l 1
 125 624.75 l 1
 125 499.75 l 1025
0 249.75 m 1
 125 249.75 l 1
 125 374.75 l 1
 0 374.75 l 1
 0 249.75 l 1025
250 249.75 m 1
 375 249.75 l 1
 375 374.75 l 1
 250 374.75 l 1
 250 249.75 l 1025
0 124.75 m 1
 125 124.75 l 1
 125 249.75 l 1
 0 249.75 l 1
 0 124.75 l 1025
250 124.75 m 1
 375 124.75 l 1
 375 249.75 l 1
 250 249.75 l 1
 250 124.75 l 1025
125 -0.25 m 1
 375 -0.25 l 1
 375 124.75 l 1
 125 124.75 l 1
 125 -0.25 l 1
EndSplineSet
EndChar

StartChar: udieresis
Encoding: 252 252 188
Width: 500
VWidth: 0
Flags: HW
LayerCount: 2
Back
Fore
SplineSet
0 499.75 m 1
 125 499.75 l 1
 125 624.75 l 1
 0 624.75 l 1
 0 499.75 l 1025
250 499.75 m 1
 375 499.75 l 1
 375 624.75 l 1
 250 624.75 l 1
 250 499.75 l 1025
0 249.75 m 1
 125 249.75 l 1
 125 374.75 l 1
 0 374.75 l 1
 0 249.75 l 1025
250 249.75 m 1
 375 249.75 l 1
 375 374.75 l 1
 250 374.75 l 1
 250 249.75 l 1025
0 124.75 m 1
 125 124.75 l 1
 125 249.75 l 1
 0 249.75 l 1
 0 124.75 l 1025
250 124.75 m 1
 375 124.75 l 1
 375 249.75 l 1
 250 249.75 l 1
 250 124.75 l 1025
125 -0.25 m 1
 375 -0.25 l 1
 375 124.75 l 1
 125 124.75 l 1
 125 -0.25 l 1
EndSplineSet
EndChar

StartChar: yacute
Encoding: 253 253 189
Width: 500
VWidth: 0
Flags: HW
LayerCount: 2
Back
Fore
SplineSet
250 499.75 m 1
 375 499.75 l 1
 375 624.75 l 1
 250 624.75 l 1
 250 499.75 l 1025
125 374.75 m 1
 250 374.75 l 1
 250 499.75 l 1
 125 499.75 l 1
 125 374.75 l 1025
0 249.75 m 1
 125 249.75 l 1
 125 374.75 l 1
 0 374.75 l 1
 0 249.75 l 1025
250 249.75 m 1
 375 249.75 l 1
 375 374.75 l 1
 250 374.75 l 1
 250 249.75 l 1025
0 124.75 m 1
 375 124.75 l 1
 375 249.75 l 1
 0 249.75 l 1
 0 124.75 l 1025
250 -0.25 m 1
 375 -0.25 l 1
 375 124.75 l 1
 250 124.75 l 1
 250 -0.25 l 1025
0 -125.25 m 1
 250 -125.25 l 1
 250 -0.25 l 1
 0 -0.25 l 1
 0 -125.25 l 1
EndSplineSet
EndChar

StartChar: thorn
Encoding: 254 254 190
Width: 500
VWidth: 0
Flags: HW
LayerCount: 2
Back
Fore
SplineSet
0 499.75 m 1
 125 499.75 l 1
 125 624.75 l 1
 0 624.75 l 1
 0 499.75 l 1025
0 374.75 m 1
 125 374.75 l 1
 125 499.75 l 1
 0 499.75 l 1
 0 374.75 l 1025
0 249.75 m 1
 250 249.75 l 1
 250 374.75 l 1
 0 374.75 l 1
 0 249.75 l 1025
0 124.75 m 1
 125 124.75 l 1
 125 249.75 l 1
 0 249.75 l 1
 0 124.75 l 1025
250 124.75 m 1
 375 124.75 l 1
 375 249.75 l 1
 250 249.75 l 1
 250 124.75 l 1025
0 -0.25 m 1
 250 -0.25 l 1
 250 124.75 l 1
 0 124.75 l 1
 0 -0.25 l 1025
0 -125.25 m 1
 125 -125.25 l 1
 125 -0.25 l 1
 0 -0.25 l 1
 0 -125.25 l 1
EndSplineSet
EndChar

StartChar: ydieresis
Encoding: 255 255 191
Width: 500
VWidth: 0
Flags: HW
LayerCount: 2
Back
Fore
SplineSet
0 499.75 m 1
 125 499.75 l 1
 125 624.75 l 1
 0 624.75 l 1
 0 499.75 l 1025
250 499.75 m 1
 375 499.75 l 1
 375 624.75 l 1
 250 624.75 l 1
 250 499.75 l 1025
0 249.75 m 1
 125 249.75 l 1
 125 374.75 l 1
 0 374.75 l 1
 0 249.75 l 1025
250 249.75 m 1
 375 249.75 l 1
 375 374.75 l 1
 250 374.75 l 1
 250 249.75 l 1025
0 124.75 m 1
 375 124.75 l 1
 375 249.75 l 1
 0 249.75 l 1
 0 124.75 l 1025
250 -0.25 m 1
 375 -0.25 l 1
 375 124.75 l 1
 250 124.75 l 1
 250 -0.25 l 1025
0 -125.25 m 1
 250 -125.25 l 1
 250 -0.25 l 1
 0 -0.25 l 1
 0 -125.25 l 1
EndSplineSet
EndChar

StartChar: Amacron
Encoding: 256 256 192
Width: 500
VWidth: 0
Flags: HW
LayerCount: 2
Back
Fore
SplineSet
0 499.75 m 1
 375 499.75 l 1
 375 624.75 l 1
 0 624.75 l 1
 0 499.75 l 1025
125 374.75 m 1
 250 374.75 l 1
 250 499.75 l 1
 125 499.75 l 1
 125 374.75 l 1025
0 249.75 m 1
 125 249.75 l 1
 125 374.75 l 1
 0 374.75 l 1
 0 249.75 l 1025
250 249.75 m 1
 375 249.75 l 1
 375 374.75 l 1
 250 374.75 l 1
 250 249.75 l 1025
0 124.75 m 1
 375 124.75 l 1
 375 249.75 l 1
 0 249.75 l 1
 0 124.75 l 1025
0 -0.25 m 1
 125 -0.25 l 1
 125 124.75 l 1
 0 124.75 l 1
 0 -0.25 l 1025
250 -0.25 m 1
 375 -0.25 l 1
 375 124.75 l 1
 250 124.75 l 1
 250 -0.25 l 1
EndSplineSet
EndChar

StartChar: amacron
Encoding: 257 257 193
Width: 500
VWidth: 0
Flags: HW
LayerCount: 2
Back
Fore
SplineSet
0 499.75 m 1
 375 499.75 l 1
 375 624.75 l 1
 0 624.75 l 1
 0 499.75 l 1025
125 249.75 m 1
 375 249.75 l 1
 375 374.75 l 1
 125 374.75 l 1
 125 249.75 l 1025
0 124.75 m 1
 125 124.75 l 1
 125 249.75 l 1
 0 249.75 l 1
 0 124.75 l 1025
250 124.75 m 1
 375 124.75 l 1
 375 249.75 l 1
 250 249.75 l 1
 250 124.75 l 1025
125 -0.25 m 1
 375 -0.25 l 1
 375 124.75 l 1
 125 124.75 l 1
 125 -0.25 l 1
EndSplineSet
EndChar

StartChar: Abreve
Encoding: 258 258 194
Width: 500
VWidth: 0
Flags: HW
LayerCount: 2
Back
Fore
SplineSet
0 499.75 m 1
 125 499.75 l 1
 125 624.75 l 1
 0 624.75 l 1
 0 499.75 l 1025
250 499.75 m 1
 375 499.75 l 1
 375 624.75 l 1
 250 624.75 l 1
 250 499.75 l 1025
125 374.75 m 1
 250 374.75 l 1
 250 499.75 l 1
 125 499.75 l 1
 125 374.75 l 1025
0 249.75 m 1
 125 249.75 l 1
 125 374.75 l 1
 0 374.75 l 1
 0 249.75 l 1025
250 249.75 m 1
 375 249.75 l 1
 375 374.75 l 1
 250 374.75 l 1
 250 249.75 l 1025
0 124.75 m 1
 375 124.75 l 1
 375 249.75 l 1
 0 249.75 l 1
 0 124.75 l 1025
0 -0.25 m 1
 125 -0.25 l 1
 125 124.75 l 1
 0 124.75 l 1
 0 -0.25 l 1025
250 -0.25 m 1
 375 -0.25 l 1
 375 124.75 l 1
 250 124.75 l 1
 250 -0.25 l 1
EndSplineSet
EndChar

StartChar: abreve
Encoding: 259 259 195
Width: 500
VWidth: 0
Flags: HW
LayerCount: 2
Back
Fore
SplineSet
0 499.75 m 1
 125 499.75 l 1
 125 624.75 l 1
 0 624.75 l 1
 0 499.75 l 1025
250 499.75 m 1
 375 499.75 l 1
 375 624.75 l 1
 250 624.75 l 1
 250 499.75 l 1025
125 374.75 m 1
 250 374.75 l 1
 250 499.75 l 1
 125 499.75 l 1
 125 374.75 l 1025
125 249.75 m 1
 375 249.75 l 1
 375 374.75 l 1
 125 374.75 l 1
 125 249.75 l 1025
0 124.75 m 1
 125 124.75 l 1
 125 249.75 l 1
 0 249.75 l 1
 0 124.75 l 1025
250 124.75 m 1
 375 124.75 l 1
 375 249.75 l 1
 250 249.75 l 1
 250 124.75 l 1025
125 -0.25 m 1
 375 -0.25 l 1
 375 124.75 l 1
 125 124.75 l 1
 125 -0.25 l 1
EndSplineSet
EndChar

StartChar: Aogonek
Encoding: 260 260 196
Width: 500
VWidth: 0
Flags: HW
LayerCount: 2
Back
Fore
SplineSet
125 374.75 m 1
 250 374.75 l 1
 250 499.75 l 1
 125 499.75 l 1
 125 374.75 l 1025
0 249.75 m 1
 125 249.75 l 1
 125 374.75 l 1
 0 374.75 l 1
 0 249.75 l 1025
250 249.75 m 1
 375 249.75 l 1
 375 374.75 l 1
 250 374.75 l 1
 250 249.75 l 1025
0 124.75 m 1
 375 124.75 l 1
 375 249.75 l 1
 0 249.75 l 1
 0 124.75 l 1025
0 -0.25 m 1
 125 -0.25 l 1
 125 124.75 l 1
 0 124.75 l 1
 0 -0.25 l 1025
250 -0.25 m 1
 375 -0.25 l 1
 375 124.75 l 1
 250 124.75 l 1
 250 -0.25 l 1025
250 -125.25 m 1
 375 -125.25 l 1
 375 -0.25 l 1
 250 -0.25 l 1
 250 -125.25 l 1
EndSplineSet
EndChar

StartChar: aogonek
Encoding: 261 261 197
Width: 500
VWidth: 0
Flags: HW
LayerCount: 2
Back
Fore
SplineSet
125 249.75 m 1
 375 249.75 l 1
 375 374.75 l 1
 125 374.75 l 1
 125 249.75 l 1025
0 124.75 m 1
 125 124.75 l 1
 125 249.75 l 1
 0 249.75 l 1
 0 124.75 l 1025
250 124.75 m 1
 375 124.75 l 1
 375 249.75 l 1
 250 249.75 l 1
 250 124.75 l 1025
125 -0.25 m 1
 375 -0.25 l 1
 375 124.75 l 1
 125 124.75 l 1
 125 -0.25 l 1025
250 -125.25 m 1
 375 -125.25 l 1
 375 -0.25 l 1
 250 -0.25 l 1
 250 -125.25 l 1
EndSplineSet
EndChar

StartChar: Cacute
Encoding: 262 262 198
Width: 500
VWidth: 0
Flags: HW
LayerCount: 2
Back
Fore
SplineSet
125 499.75 m 1
 375 499.75 l 1
 375 624.75 l 1
 125 624.75 l 1
 125 499.75 l 1025
0 374.75 m 1
 125 374.75 l 1
 125 499.75 l 1
 0 499.75 l 1
 0 374.75 l 1025
250 374.75 m 1
 375 374.75 l 1
 375 499.75 l 1
 250 499.75 l 1
 250 374.75 l 1025
0 249.75 m 1
 125 249.75 l 1
 125 374.75 l 1
 0 374.75 l 1
 0 249.75 l 1025
0 124.75 m 1
 125 124.75 l 1
 125 249.75 l 1
 0 249.75 l 1
 0 124.75 l 1025
250 124.75 m 1
 375 124.75 l 1
 375 249.75 l 1
 250 249.75 l 1
 250 124.75 l 1025
125 -0.25 m 1
 250 -0.25 l 1
 250 124.75 l 1
 125 124.75 l 1
 125 -0.25 l 1
EndSplineSet
EndChar

StartChar: cacute
Encoding: 263 263 199
Width: 500
VWidth: 0
Flags: HW
LayerCount: 2
Back
Fore
SplineSet
250 499.75 m 1
 375 499.75 l 1
 375 624.75 l 1
 250 624.75 l 1
 250 499.75 l 1025
125 374.75 m 1
 250 374.75 l 1
 250 499.75 l 1
 125 499.75 l 1
 125 374.75 l 1025
0 249.75 m 1
 125 249.75 l 1
 125 374.75 l 1
 0 374.75 l 1
 0 249.75 l 1025
250 249.75 m 1
 375 249.75 l 1
 375 374.75 l 1
 250 374.75 l 1
 250 249.75 l 1025
0 124.75 m 1
 125 124.75 l 1
 125 249.75 l 1
 0 249.75 l 1
 0 124.75 l 1025
125 -0.25 m 1
 375 -0.25 l 1
 375 124.75 l 1
 125 124.75 l 1
 125 -0.25 l 1
EndSplineSet
EndChar

StartChar: Ccircumflex
Encoding: 264 264 200
Width: 500
VWidth: 0
Flags: HW
LayerCount: 2
Back
Fore
SplineSet
0 499.75 m 1
 375 499.75 l 1
 375 624.75 l 1
 0 624.75 l 1
 0 499.75 l 1025
0 374.75 m 1
 125 374.75 l 1
 125 499.75 l 1
 0 499.75 l 1
 0 374.75 l 1025
250 374.75 m 1
 375 374.75 l 1
 375 499.75 l 1
 250 499.75 l 1
 250 374.75 l 1025
0 249.75 m 1
 125 249.75 l 1
 125 374.75 l 1
 0 374.75 l 1
 0 249.75 l 1025
0 124.75 m 1
 125 124.75 l 1
 125 249.75 l 1
 0 249.75 l 1
 0 124.75 l 1025
250 124.75 m 1
 375 124.75 l 1
 375 249.75 l 1
 250 249.75 l 1
 250 124.75 l 1025
125 -0.25 m 1
 250 -0.25 l 1
 250 124.75 l 1
 125 124.75 l 1
 125 -0.25 l 1
EndSplineSet
EndChar

StartChar: ccircumflex
Encoding: 265 265 201
Width: 500
VWidth: 0
Flags: HW
LayerCount: 2
Back
Fore
SplineSet
125 499.75 m 1
 375 499.75 l 1
 375 624.75 l 1
 125 624.75 l 1
 125 499.75 l 1025
125 249.75 m 1
 375 249.75 l 1
 375 374.75 l 1
 125 374.75 l 1
 125 249.75 l 1025
0 124.75 m 1
 125 124.75 l 1
 125 249.75 l 1
 0 249.75 l 1
 0 124.75 l 1025
125 -0.25 m 1
 375 -0.25 l 1
 375 124.75 l 1
 125 124.75 l 1
 125 -0.25 l 1
EndSplineSet
EndChar

StartChar: Cdotaccent
Encoding: 266 266 202
Width: 500
VWidth: 0
Flags: HW
LayerCount: 2
Back
Fore
SplineSet
125 499.75 m 1
 250 499.75 l 1
 250 624.75 l 1
 125 624.75 l 1
 125 499.75 l 1025
0 374.75 m 1
 375 374.75 l 1
 375 499.75 l 1
 0 499.75 l 1
 0 374.75 l 1025
0 249.75 m 1
 125 249.75 l 1
 125 374.75 l 1
 0 374.75 l 1
 0 249.75 l 1025
0 124.75 m 1
 125 124.75 l 1
 125 249.75 l 1
 0 249.75 l 1
 0 124.75 l 1025
250 124.75 m 1
 375 124.75 l 1
 375 249.75 l 1
 250 249.75 l 1
 250 124.75 l 1025
125 -0.25 m 1
 250 -0.25 l 1
 250 124.75 l 1
 125 124.75 l 1
 125 -0.25 l 1
EndSplineSet
EndChar

StartChar: cdotaccent
Encoding: 267 267 203
Width: 500
VWidth: 0
Flags: HW
LayerCount: 2
Back
Fore
SplineSet
125 499.75 m 1
 250 499.75 l 1
 250 624.75 l 1
 125 624.75 l 1
 125 499.75 l 1025
125 249.75 m 1
 375 249.75 l 1
 375 374.75 l 1
 125 374.75 l 1
 125 249.75 l 1025
0 124.75 m 1
 125 124.75 l 1
 125 249.75 l 1
 0 249.75 l 1
 0 124.75 l 1025
125 -0.25 m 1
 375 -0.25 l 1
 375 124.75 l 1
 125 124.75 l 1
 125 -0.25 l 1
EndSplineSet
EndChar

StartChar: Ccaron
Encoding: 268 268 204
Width: 500
VWidth: 0
Flags: HW
LayerCount: 2
Back
Fore
SplineSet
0 499.75 m 1
 375 499.75 l 1
 375 624.75 l 1
 0 624.75 l 1
 0 499.75 l 1025
0 374.75 m 1
 125 374.75 l 1
 125 499.75 l 1
 0 499.75 l 1
 0 374.75 l 1025
250 374.75 m 1
 375 374.75 l 1
 375 499.75 l 1
 250 499.75 l 1
 250 374.75 l 1025
0 249.75 m 1
 125 249.75 l 1
 125 374.75 l 1
 0 374.75 l 1
 0 249.75 l 1025
0 124.75 m 1
 125 124.75 l 1
 125 249.75 l 1
 0 249.75 l 1
 0 124.75 l 1025
250 124.75 m 1
 375 124.75 l 1
 375 249.75 l 1
 250 249.75 l 1
 250 124.75 l 1025
125 -0.25 m 1
 250 -0.25 l 1
 250 124.75 l 1
 125 124.75 l 1
 125 -0.25 l 1
EndSplineSet
EndChar

StartChar: ccaron
Encoding: 269 269 205
Width: 500
VWidth: 0
Flags: HW
LayerCount: 2
Back
Fore
SplineSet
0 499.75 m 1
 125 499.75 l 1
 125 624.75 l 1
 0 624.75 l 1
 0 499.75 l 1025
250 499.75 m 1
 375 499.75 l 1
 375 624.75 l 1
 250 624.75 l 1
 250 499.75 l 1025
125 374.75 m 1
 250 374.75 l 1
 250 499.75 l 1
 125 499.75 l 1
 125 374.75 l 1025
125 249.75 m 1
 375 249.75 l 1
 375 374.75 l 1
 125 374.75 l 1
 125 249.75 l 1025
0 124.75 m 1
 125 124.75 l 1
 125 249.75 l 1
 0 249.75 l 1
 0 124.75 l 1025
125 -0.25 m 1
 375 -0.25 l 1
 375 124.75 l 1
 125 124.75 l 1
 125 -0.25 l 1
EndSplineSet
EndChar

StartChar: Dcaron
Encoding: 270 270 206
Width: 500
VWidth: 0
Flags: HW
LayerCount: 2
Back
Fore
SplineSet
0 499.75 m 1
 375 499.75 l 1
 375 624.75 l 1
 0 624.75 l 1
 0 499.75 l 1025
0 374.75 m 1
 250 374.75 l 1
 250 499.75 l 1
 0 499.75 l 1
 0 374.75 l 1025
0 249.75 m 1
 125 249.75 l 1
 125 374.75 l 1
 0 374.75 l 1
 0 249.75 l 1025
250 249.75 m 1
 375 249.75 l 1
 375 374.75 l 1
 250 374.75 l 1
 250 249.75 l 1025
0 124.75 m 1
 125 124.75 l 1
 125 249.75 l 1
 0 249.75 l 1
 0 124.75 l 1025
250 124.75 m 1
 375 124.75 l 1
 375 249.75 l 1
 250 249.75 l 1
 250 124.75 l 1025
0 -0.25 m 1
 250 -0.25 l 1
 250 124.75 l 1
 0 124.75 l 1
 0 -0.25 l 1
EndSplineSet
EndChar

StartChar: dcaron
Encoding: 271 271 207
Width: 500
VWidth: 0
Flags: HW
LayerCount: 2
Back
Fore
SplineSet
250 499.75 m 1
 500 499.75 l 1
 500 624.75 l 1
 250 624.75 l 1
 250 499.75 l 1025
250 374.75 m 1
 375 374.75 l 1
 375 499.75 l 1
 250 499.75 l 1
 250 374.75 l 1025
125 249.75 m 1
 375 249.75 l 1
 375 374.75 l 1
 125 374.75 l 1
 125 249.75 l 1025
0 124.75 m 1
 125 124.75 l 1
 125 249.75 l 1
 0 249.75 l 1
 0 124.75 l 1025
250 124.75 m 1
 375 124.75 l 1
 375 249.75 l 1
 250 249.75 l 1
 250 124.75 l 1025
125 -0.25 m 1
 375 -0.25 l 1
 375 124.75 l 1
 125 124.75 l 1
 125 -0.25 l 1
EndSplineSet
EndChar

StartChar: Dcroat
Encoding: 272 272 208
Width: 500
VWidth: 0
Flags: HW
LayerCount: 2
Back
Fore
SplineSet
0 499.75 m 1
 250 499.75 l 1
 250 624.75 l 1
 0 624.75 l 1
 0 499.75 l 1025
0 374.75 m 1
 125 374.75 l 1
 125 499.75 l 1
 0 499.75 l 1
 0 374.75 l 1025
250 374.75 m 1
 375 374.75 l 1
 375 499.75 l 1
 250 499.75 l 1
 250 374.75 l 1025
0 249.75 m 1
 375 249.75 l 1
 375 374.75 l 1
 0 374.75 l 1
 0 249.75 l 1025
0 124.75 m 1
 125 124.75 l 1
 125 249.75 l 1
 0 249.75 l 1
 0 124.75 l 1025
250 124.75 m 1
 375 124.75 l 1
 375 249.75 l 1
 250 249.75 l 1
 250 124.75 l 1025
0 -0.25 m 1
 250 -0.25 l 1
 250 124.75 l 1
 0 124.75 l 1
 0 -0.25 l 1
EndSplineSet
EndChar

StartChar: dcroat
Encoding: 273 273 209
Width: 500
VWidth: 0
Flags: HW
LayerCount: 2
Back
Fore
SplineSet
125 499.75 m 1
 375 499.75 l 1
 375 624.75 l 1
 125 624.75 l 1
 125 499.75 l 1025
250 374.75 m 1
 375 374.75 l 1
 375 499.75 l 1
 250 499.75 l 1
 250 374.75 l 1025
125 249.75 m 1
 375 249.75 l 1
 375 374.75 l 1
 125 374.75 l 1
 125 249.75 l 1025
0 124.75 m 1
 125 124.75 l 1
 125 249.75 l 1
 0 249.75 l 1
 0 124.75 l 1025
250 124.75 m 1
 375 124.75 l 1
 375 249.75 l 1
 250 249.75 l 1
 250 124.75 l 1025
125 -0.25 m 1
 375 -0.25 l 1
 375 124.75 l 1
 125 124.75 l 1
 125 -0.25 l 1
EndSplineSet
EndChar

StartChar: Emacron
Encoding: 274 274 210
Width: 500
VWidth: 0
Flags: HW
LayerCount: 2
Back
Fore
SplineSet
0 499.75 m 1
 375 499.75 l 1
 375 624.75 l 1
 0 624.75 l 1
 0 499.75 l 1025
0 374.75 m 1
 375 374.75 l 1
 375 499.75 l 1
 0 499.75 l 1
 0 374.75 l 1025
0 249.75 m 1
 250 249.75 l 1
 250 374.75 l 1
 0 374.75 l 1
 0 249.75 l 1025
0 124.75 m 1
 125 124.75 l 1
 125 249.75 l 1
 0 249.75 l 1
 0 124.75 l 1025
0 -0.25 m 1
 375 -0.25 l 1
 375 124.75 l 1
 0 124.75 l 1
 0 -0.25 l 1
EndSplineSet
EndChar

StartChar: emacron
Encoding: 275 275 211
Width: 500
VWidth: 0
Flags: HW
LayerCount: 2
Back
Fore
SplineSet
0 499.75 m 1
 375 499.75 l 1
 375 624.75 l 1
 0 624.75 l 1
 0 499.75 l 1025
125 374.75 m 1
 250 374.75 l 1
 250 499.75 l 1
 125 499.75 l 1
 125 374.75 l 1025
0 249.75 m 1
 125 249.75 l 1
 125 374.75 l 1
 0 374.75 l 1
 0 249.75 l 1025
250 249.75 m 1
 375 249.75 l 1
 375 374.75 l 1
 250 374.75 l 1
 250 249.75 l 1025
0 124.75 m 1
 250 124.75 l 1
 250 249.75 l 1
 0 249.75 l 1
 0 124.75 l 1025
125 -0.25 m 1
 375 -0.25 l 1
 375 124.75 l 1
 125 124.75 l 1
 125 -0.25 l 1
EndSplineSet
EndChar

StartChar: Ebreve
Encoding: 276 276 212
Width: 500
VWidth: 0
Flags: HW
LayerCount: 2
Back
Fore
SplineSet
0 499.75 m 1
 125 499.75 l 1
 125 624.75 l 1
 0 624.75 l 1
 0 499.75 l 1025
250 499.75 m 1
 375 499.75 l 1
 375 624.75 l 1
 250 624.75 l 1
 250 499.75 l 1025
0 374.75 m 1
 375 374.75 l 1
 375 499.75 l 1
 0 499.75 l 1
 0 374.75 l 1025
0 249.75 m 1
 250 249.75 l 1
 250 374.75 l 1
 0 374.75 l 1
 0 249.75 l 1025
0 124.75 m 1
 125 124.75 l 1
 125 249.75 l 1
 0 249.75 l 1
 0 124.75 l 1025
0 -0.25 m 1
 375 -0.25 l 1
 375 124.75 l 1
 0 124.75 l 1
 0 -0.25 l 1
EndSplineSet
EndChar

StartChar: ebreve
Encoding: 277 277 213
Width: 500
VWidth: 0
Flags: HW
LayerCount: 2
Back
Fore
SplineSet
0 499.75 m 1
 125 499.75 l 1
 125 624.75 l 1
 0 624.75 l 1
 0 499.75 l 1025
250 499.75 m 1
 375 499.75 l 1
 375 624.75 l 1
 250 624.75 l 1
 250 499.75 l 1025
125 374.75 m 1
 250 374.75 l 1
 250 499.75 l 1
 125 499.75 l 1
 125 374.75 l 1025
0 249.75 m 1
 125 249.75 l 1
 125 374.75 l 1
 0 374.75 l 1
 0 249.75 l 1025
250 249.75 m 1
 375 249.75 l 1
 375 374.75 l 1
 250 374.75 l 1
 250 249.75 l 1025
0 124.75 m 1
 250 124.75 l 1
 250 249.75 l 1
 0 249.75 l 1
 0 124.75 l 1025
125 -0.25 m 1
 375 -0.25 l 1
 375 124.75 l 1
 125 124.75 l 1
 125 -0.25 l 1
EndSplineSet
EndChar

StartChar: Edotaccent
Encoding: 278 278 214
Width: 500
VWidth: 0
Flags: HW
LayerCount: 2
Back
Fore
SplineSet
125 499.75 m 1
 250 499.75 l 1
 250 624.75 l 1
 125 624.75 l 1
 125 499.75 l 1025
0 374.75 m 1
 375 374.75 l 1
 375 499.75 l 1
 0 499.75 l 1
 0 374.75 l 1025
0 249.75 m 1
 250 249.75 l 1
 250 374.75 l 1
 0 374.75 l 1
 0 249.75 l 1025
0 124.75 m 1
 125 124.75 l 1
 125 249.75 l 1
 0 249.75 l 1
 0 124.75 l 1025
0 -0.25 m 1
 375 -0.25 l 1
 375 124.75 l 1
 0 124.75 l 1
 0 -0.25 l 1
EndSplineSet
EndChar

StartChar: edotaccent
Encoding: 279 279 215
Width: 500
VWidth: 0
Flags: HW
LayerCount: 2
Back
Fore
SplineSet
125 499.75 m 1
 250 499.75 l 1
 250 624.75 l 1
 125 624.75 l 1
 125 499.75 l 1025
125 374.75 m 1
 250 374.75 l 1
 250 499.75 l 1
 125 499.75 l 1
 125 374.75 l 1025
0 249.75 m 1
 125 249.75 l 1
 125 374.75 l 1
 0 374.75 l 1
 0 249.75 l 1025
250 249.75 m 1
 375 249.75 l 1
 375 374.75 l 1
 250 374.75 l 1
 250 249.75 l 1025
0 124.75 m 1
 250 124.75 l 1
 250 249.75 l 1
 0 249.75 l 1
 0 124.75 l 1025
125 -0.25 m 1
 375 -0.25 l 1
 375 124.75 l 1
 125 124.75 l 1
 125 -0.25 l 1
EndSplineSet
EndChar

StartChar: Eogonek
Encoding: 280 280 216
Width: 500
VWidth: 0
Flags: HW
LayerCount: 2
Back
Fore
SplineSet
0 499.75 m 1
 375 499.75 l 1
 375 624.75 l 1
 0 624.75 l 1
 0 499.75 l 1025
0 374.75 m 1
 125 374.75 l 1
 125 499.75 l 1
 0 499.75 l 1
 0 374.75 l 1025
0 249.75 m 1
 250 249.75 l 1
 250 374.75 l 1
 0 374.75 l 1
 0 249.75 l 1025
0 124.75 m 1
 125 124.75 l 1
 125 249.75 l 1
 0 249.75 l 1
 0 124.75 l 1025
0 -0.25 m 1
 375 -0.25 l 1
 375 124.75 l 1
 0 124.75 l 1
 0 -0.25 l 1025
250 -125.25 m 1
 375 -125.25 l 1
 375 -0.25 l 1
 250 -0.25 l 1
 250 -125.25 l 1
EndSplineSet
EndChar

StartChar: eogonek
Encoding: 281 281 217
Width: 500
VWidth: 0
Flags: HW
LayerCount: 2
Back
Fore
SplineSet
125 374.75 m 1
 250 374.75 l 1
 250 499.75 l 1
 125 499.75 l 1
 125 374.75 l 1025
0 249.75 m 1
 125 249.75 l 1
 125 374.75 l 1
 0 374.75 l 1
 0 249.75 l 1025
250 249.75 m 1
 375 249.75 l 1
 375 374.75 l 1
 250 374.75 l 1
 250 249.75 l 1025
0 124.75 m 1
 250 124.75 l 1
 250 249.75 l 1
 0 249.75 l 1
 0 124.75 l 1025
125 -0.25 m 1
 375 -0.25 l 1
 375 124.75 l 1
 125 124.75 l 1
 125 -0.25 l 1025
125 -125.25 m 1
 250 -125.25 l 1
 250 -0.25 l 1
 125 -0.25 l 1
 125 -125.25 l 1
EndSplineSet
EndChar

StartChar: Ecaron
Encoding: 282 282 218
Width: 500
VWidth: 0
Flags: HW
LayerCount: 2
Back
Fore
SplineSet
0 499.75 m 1
 125 499.75 l 1
 125 624.75 l 1
 0 624.75 l 1
 0 499.75 l 1025
250 499.75 m 1
 375 499.75 l 1
 375 624.75 l 1
 250 624.75 l 1
 250 499.75 l 1025
0 374.75 m 1
 375 374.75 l 1
 375 499.75 l 1
 0 499.75 l 1
 0 374.75 l 1025
0 249.75 m 1
 250 249.75 l 1
 250 374.75 l 1
 0 374.75 l 1
 0 249.75 l 1025
0 124.75 m 1
 125 124.75 l 1
 125 249.75 l 1
 0 249.75 l 1
 0 124.75 l 1025
0 -0.25 m 1
 375 -0.25 l 1
 375 124.75 l 1
 0 124.75 l 1
 0 -0.25 l 1
EndSplineSet
EndChar

StartChar: ecaron
Encoding: 283 283 219
Width: 500
VWidth: 0
Flags: HW
LayerCount: 2
Back
Fore
SplineSet
0 499.75 m 1
 125 499.75 l 1
 125 624.75 l 1
 0 624.75 l 1
 0 499.75 l 1025
250 499.75 m 1
 375 499.75 l 1
 375 624.75 l 1
 250 624.75 l 1
 250 499.75 l 1025
125 374.75 m 1
 250 374.75 l 1
 250 499.75 l 1
 125 499.75 l 1
 125 374.75 l 1025
0 249.75 m 1
 125 249.75 l 1
 125 374.75 l 1
 0 374.75 l 1
 0 249.75 l 1025
250 249.75 m 1
 375 249.75 l 1
 375 374.75 l 1
 250 374.75 l 1
 250 249.75 l 1025
0 124.75 m 1
 250 124.75 l 1
 250 249.75 l 1
 0 249.75 l 1
 0 124.75 l 1025
125 -0.25 m 1
 375 -0.25 l 1
 375 124.75 l 1
 125 124.75 l 1
 125 -0.25 l 1
EndSplineSet
EndChar

StartChar: Gcircumflex
Encoding: 284 284 220
Width: 500
VWidth: 0
Flags: HW
LayerCount: 2
Back
Fore
SplineSet
125 499.75 m 1
 375 499.75 l 1
 375 624.75 l 1
 125 624.75 l 1
 125 499.75 l 1025
125 374.75 m 1
 375 374.75 l 1
 375 499.75 l 1
 125 499.75 l 1
 125 374.75 l 1025
0 249.75 m 1
 125 249.75 l 1
 125 374.75 l 1
 0 374.75 l 1
 0 249.75 l 1025
0 124.75 m 1
 125 124.75 l 1
 125 249.75 l 1
 0 249.75 l 1
 0 124.75 l 1025
250 124.75 m 1
 375 124.75 l 1
 375 249.75 l 1
 250 249.75 l 1
 250 124.75 l 1025
125 -0.25 m 1
 375 -0.25 l 1
 375 124.75 l 1
 125 124.75 l 1
 125 -0.25 l 1
EndSplineSet
EndChar

StartChar: gcircumflex
Encoding: 285 285 221
Width: 500
VWidth: 0
Flags: HW
LayerCount: 2
Back
Fore
SplineSet
125 499.75 m 1
 375 499.75 l 1
 375 624.75 l 1
 125 624.75 l 1
 125 499.75 l 1025
125 374.75 m 1
 375 374.75 l 1
 375 499.75 l 1
 125 499.75 l 1
 125 374.75 l 1025
0 249.75 m 1
 125 249.75 l 1
 125 374.75 l 1
 0 374.75 l 1
 0 249.75 l 1025
250 249.75 m 1
 375 249.75 l 1
 375 374.75 l 1
 250 374.75 l 1
 250 249.75 l 1025
125 124.75 m 1
 375 124.75 l 1
 375 249.75 l 1
 125 249.75 l 1
 125 124.75 l 1025
250 -0.25 m 1
 375 -0.25 l 1
 375 124.75 l 1
 250 124.75 l 1
 250 -0.25 l 1025
0 -125.25 m 1
 250 -125.25 l 1
 250 -0.25 l 1
 0 -0.25 l 1
 0 -125.25 l 1
EndSplineSet
EndChar

StartChar: Gbreve
Encoding: 286 286 222
Width: 500
VWidth: 0
Flags: HW
LayerCount: 2
Back
Fore
SplineSet
0 499.75 m 1
 125 499.75 l 1
 125 624.75 l 1
 0 624.75 l 1
 0 499.75 l 1025
250 499.75 m 1
 375 499.75 l 1
 375 624.75 l 1
 250 624.75 l 1
 250 499.75 l 1025
125 374.75 m 1
 375 374.75 l 1
 375 499.75 l 1
 125 499.75 l 1
 125 374.75 l 1025
0 249.75 m 1
 125 249.75 l 1
 125 374.75 l 1
 0 374.75 l 1
 0 249.75 l 1025
0 124.75 m 1
 125 124.75 l 1
 125 249.75 l 1
 0 249.75 l 1
 0 124.75 l 1025
250 124.75 m 1
 375 124.75 l 1
 375 249.75 l 1
 250 249.75 l 1
 250 124.75 l 1025
125 -0.25 m 1
 375 -0.25 l 1
 375 124.75 l 1
 125 124.75 l 1
 125 -0.25 l 1
EndSplineSet
EndChar

StartChar: gbreve
Encoding: 287 287 223
Width: 500
VWidth: 0
Flags: HW
LayerCount: 2
Back
Fore
SplineSet
0 499.75 m 1
 125 499.75 l 1
 125 624.75 l 1
 0 624.75 l 1
 0 499.75 l 1025
250 499.75 m 1
 375 499.75 l 1
 375 624.75 l 1
 250 624.75 l 1
 250 499.75 l 1025
125 374.75 m 1
 250 374.75 l 1
 250 499.75 l 1
 125 499.75 l 1
 125 374.75 l 1025
0 249.75 m 1
 125 249.75 l 1
 125 374.75 l 1
 0 374.75 l 1
 0 249.75 l 1025
250 249.75 m 1
 375 249.75 l 1
 375 374.75 l 1
 250 374.75 l 1
 250 249.75 l 1025
125 124.75 m 1
 375 124.75 l 1
 375 249.75 l 1
 125 249.75 l 1
 125 124.75 l 1025
250 -0.25 m 1
 375 -0.25 l 1
 375 124.75 l 1
 250 124.75 l 1
 250 -0.25 l 1025
0 -125.25 m 1
 250 -125.25 l 1
 250 -0.25 l 1
 0 -0.25 l 1
 0 -125.25 l 1
EndSplineSet
EndChar

StartChar: Gdotaccent
Encoding: 288 288 224
Width: 500
VWidth: 0
Flags: HW
LayerCount: 2
Back
Fore
SplineSet
125 499.75 m 1
 250 499.75 l 1
 250 624.75 l 1
 125 624.75 l 1
 125 499.75 l 1025
125 374.75 m 1
 375 374.75 l 1
 375 499.75 l 1
 125 499.75 l 1
 125 374.75 l 1025
0 249.75 m 1
 125 249.75 l 1
 125 374.75 l 1
 0 374.75 l 1
 0 249.75 l 1025
0 124.75 m 1
 125 124.75 l 1
 125 249.75 l 1
 0 249.75 l 1
 0 124.75 l 1025
250 124.75 m 1
 375 124.75 l 1
 375 249.75 l 1
 250 249.75 l 1
 250 124.75 l 1025
125 -0.25 m 1
 375 -0.25 l 1
 375 124.75 l 1
 125 124.75 l 1
 125 -0.25 l 1
EndSplineSet
EndChar

StartChar: gdotaccent
Encoding: 289 289 225
Width: 500
VWidth: 0
Flags: HW
LayerCount: 2
Back
Fore
SplineSet
125 499.75 m 1
 250 499.75 l 1
 250 624.75 l 1
 125 624.75 l 1
 125 499.75 l 1025
125 374.75 m 1
 375 374.75 l 1
 375 499.75 l 1
 125 499.75 l 1
 125 374.75 l 1025
0 249.75 m 1
 125 249.75 l 1
 125 374.75 l 1
 0 374.75 l 1
 0 249.75 l 1025
250 249.75 m 1
 375 249.75 l 1
 375 374.75 l 1
 250 374.75 l 1
 250 249.75 l 1025
125 124.75 m 1
 375 124.75 l 1
 375 249.75 l 1
 125 249.75 l 1
 125 124.75 l 1025
250 -0.25 m 1
 375 -0.25 l 1
 375 124.75 l 1
 250 124.75 l 1
 250 -0.25 l 1025
0 -125.25 m 1
 250 -125.25 l 1
 250 -0.25 l 1
 0 -0.25 l 1
 0 -125.25 l 1
EndSplineSet
EndChar

StartChar: Gcommaaccent
Encoding: 290 290 226
Width: 500
VWidth: 0
Flags: HW
LayerCount: 2
Back
Fore
SplineSet
125 499.75 m 1
 375 499.75 l 1
 375 624.75 l 1
 125 624.75 l 1
 125 499.75 l 1025
0 374.75 m 1
 125 374.75 l 1
 125 499.75 l 1
 0 499.75 l 1
 0 374.75 l 1025
0 249.75 m 1
 125 249.75 l 1
 125 374.75 l 1
 0 374.75 l 1
 0 249.75 l 1025
250 249.75 m 1
 375 249.75 l 1
 375 374.75 l 1
 250 374.75 l 1
 250 249.75 l 1025
0 124.75 m 1
 125 124.75 l 1
 125 249.75 l 1
 0 249.75 l 1
 0 124.75 l 1025
250 124.75 m 1
 375 124.75 l 1
 375 249.75 l 1
 250 249.75 l 1
 250 124.75 l 1025
125 -0.25 m 1
 250 -0.25 l 1
 250 124.75 l 1
 125 124.75 l 1
 125 -0.25 l 1025
125 -125.25 m 1
 250 -125.25 l 1
 250 -0.25 l 1
 125 -0.25 l 1
 125 -125.25 l 1
EndSplineSet
EndChar

StartChar: gcommaaccent
Encoding: 291 291 227
Width: 500
VWidth: 0
Flags: HW
LayerCount: 2
Back
Fore
SplineSet
125 499.75 m 1
 250 499.75 l 1
 250 624.75 l 1
 125 624.75 l 1
 125 499.75 l 1025
125 374.75 m 1
 375 374.75 l 1
 375 499.75 l 1
 125 499.75 l 1
 125 374.75 l 1025
0 249.75 m 1
 125 249.75 l 1
 125 374.75 l 1
 0 374.75 l 1
 0 249.75 l 1025
250 249.75 m 1
 375 249.75 l 1
 375 374.75 l 1
 250 374.75 l 1
 250 249.75 l 1025
125 124.75 m 1
 375 124.75 l 1
 375 249.75 l 1
 125 249.75 l 1
 125 124.75 l 1025
250 -0.25 m 1
 375 -0.25 l 1
 375 124.75 l 1
 250 124.75 l 1
 250 -0.25 l 1025
0 -125.25 m 1
 250 -125.25 l 1
 250 -0.25 l 1
 0 -0.25 l 1
 0 -125.25 l 1
EndSplineSet
EndChar

StartChar: Hcircumflex
Encoding: 292 292 228
Width: 500
VWidth: 0
Flags: HW
LayerCount: 2
Back
Fore
SplineSet
125 499.75 m 1
 375 499.75 l 1
 375 624.75 l 1
 125 624.75 l 1
 125 499.75 l 1025
0 249.75 m 1
 125 249.75 l 1
 125 374.75 l 1
 0 374.75 l 1
 0 249.75 l 1025
250 249.75 m 1
 375 249.75 l 1
 375 374.75 l 1
 250 374.75 l 1
 250 249.75 l 1025
0 124.75 m 1
 375 124.75 l 1
 375 249.75 l 1
 0 249.75 l 1
 0 124.75 l 1025
0 -0.25 m 1
 125 -0.25 l 1
 125 124.75 l 1
 0 124.75 l 1
 0 -0.25 l 1025
250 -0.25 m 1
 375 -0.25 l 1
 375 124.75 l 1
 250 124.75 l 1
 250 -0.25 l 1
EndSplineSet
EndChar

StartChar: hcircumflex
Encoding: 293 293 229
Width: 500
VWidth: 0
Flags: HW
LayerCount: 2
Back
Fore
SplineSet
125 499.75 m 1
 250 499.75 l 1
 250 624.75 l 1
 125 624.75 l 1
 125 499.75 l 1025
0 374.75 m 1
 125 374.75 l 1
 125 499.75 l 1
 0 499.75 l 1
 0 374.75 l 1025
250 374.75 m 1
 375 374.75 l 1
 375 499.75 l 1
 250 499.75 l 1
 250 374.75 l 1025
0 249.75 m 1
 250 249.75 l 1
 250 374.75 l 1
 0 374.75 l 1
 0 249.75 l 1025
0 124.75 m 1
 125 124.75 l 1
 125 249.75 l 1
 0 249.75 l 1
 0 124.75 l 1025
250 124.75 m 1
 375 124.75 l 1
 375 249.75 l 1
 250 249.75 l 1
 250 124.75 l 1025
0 -0.25 m 1
 125 -0.25 l 1
 125 124.75 l 1
 0 124.75 l 1
 0 -0.25 l 1025
250 -0.25 m 1
 375 -0.25 l 1
 375 124.75 l 1
 250 124.75 l 1
 250 -0.25 l 1
EndSplineSet
EndChar

StartChar: Hbar
Encoding: 294 294 230
Width: 500
VWidth: 0
Flags: HW
LayerCount: 2
Back
Fore
SplineSet
0 499.75 m 1
 125 499.75 l 1
 125 624.75 l 1
 0 624.75 l 1
 0 499.75 l 1025
250 499.75 m 1
 375 499.75 l 1
 375 624.75 l 1
 250 624.75 l 1
 250 499.75 l 1025
0 374.75 m 1
 375 374.75 l 1
 375 499.75 l 1
 0 499.75 l 1
 0 374.75 l 1025
0 249.75 m 1
 125 249.75 l 1
 125 374.75 l 1
 0 374.75 l 1
 0 249.75 l 1025
250 249.75 m 1
 375 249.75 l 1
 375 374.75 l 1
 250 374.75 l 1
 250 249.75 l 1025
0 124.75 m 1
 375 124.75 l 1
 375 249.75 l 1
 0 249.75 l 1
 0 124.75 l 1025
0 -0.25 m 1
 125 -0.25 l 1
 125 124.75 l 1
 0 124.75 l 1
 0 -0.25 l 1025
250 -0.25 m 1
 375 -0.25 l 1
 375 124.75 l 1
 250 124.75 l 1
 250 -0.25 l 1
EndSplineSet
EndChar

StartChar: hbar
Encoding: 295 295 231
Width: 500
VWidth: 0
Flags: HW
LayerCount: 2
Back
Fore
SplineSet
0 499.75 m 1
 125 499.75 l 1
 125 624.75 l 1
 0 624.75 l 1
 0 499.75 l 1025
0 374.75 m 1
 250 374.75 l 1
 250 499.75 l 1
 0 499.75 l 1
 0 374.75 l 1025
0 249.75 m 1
 250 249.75 l 1
 250 374.75 l 1
 0 374.75 l 1
 0 249.75 l 1025
0 124.75 m 1
 125 124.75 l 1
 125 249.75 l 1
 0 249.75 l 1
 0 124.75 l 1025
250 124.75 m 1
 375 124.75 l 1
 375 249.75 l 1
 250 249.75 l 1
 250 124.75 l 1025
0 -0.25 m 1
 125 -0.25 l 1
 125 124.75 l 1
 0 124.75 l 1
 0 -0.25 l 1025
250 -0.25 m 1
 375 -0.25 l 1
 375 124.75 l 1
 250 124.75 l 1
 250 -0.25 l 1
EndSplineSet
EndChar

StartChar: Itilde
Encoding: 296 296 232
Width: 500
VWidth: 0
Flags: HW
LayerCount: 2
Back
Fore
SplineSet
125 499.75 m 1
 250 499.75 l 1
 250 624.75 l 1
 125 624.75 l 1
 125 499.75 l 1025
375 499.75 m 1
 500 499.75 l 1
 500 624.75 l 1
 375 624.75 l 1
 375 499.75 l 1025
0 374.75 m 1
 125 374.75 l 1
 125 499.75 l 1
 0 499.75 l 1
 0 374.75 l 1025
250 374.75 m 1
 375 374.75 l 1
 375 499.75 l 1
 250 499.75 l 1
 250 374.75 l 1025
125 249.75 m 1
 250 249.75 l 1
 250 374.75 l 1
 125 374.75 l 1
 125 249.75 l 1025
125 124.75 m 1
 250 124.75 l 1
 250 249.75 l 1
 125 249.75 l 1
 125 124.75 l 1025
0 -0.25 m 1
 375 -0.25 l 1
 375 124.75 l 1
 0 124.75 l 1
 0 -0.25 l 1
EndSplineSet
EndChar

StartChar: itilde
Encoding: 297 297 233
Width: 500
VWidth: 0
Flags: HW
LayerCount: 2
Back
Fore
SplineSet
125 499.75 m 1
 250 499.75 l 1
 250 624.75 l 1
 125 624.75 l 1
 125 499.75 l 1025
375 499.75 m 1
 500 499.75 l 1
 500 624.75 l 1
 375 624.75 l 1
 375 499.75 l 1025
0 374.75 m 1
 125 374.75 l 1
 125 499.75 l 1
 0 499.75 l 1
 0 374.75 l 1025
250 374.75 m 1
 375 374.75 l 1
 375 499.75 l 1
 250 499.75 l 1
 250 374.75 l 1025
0 249.75 m 1
 250 249.75 l 1
 250 374.75 l 1
 0 374.75 l 1
 0 249.75 l 1025
125 124.75 m 1
 250 124.75 l 1
 250 249.75 l 1
 125 249.75 l 1
 125 124.75 l 1025
0 -0.25 m 1
 375 -0.25 l 1
 375 124.75 l 1
 0 124.75 l 1
 0 -0.25 l 1
EndSplineSet
EndChar

StartChar: Imacron
Encoding: 298 298 234
Width: 500
VWidth: 0
Flags: HW
LayerCount: 2
Back
Fore
SplineSet
0 499.75 m 1
 375 499.75 l 1
 375 624.75 l 1
 0 624.75 l 1
 0 499.75 l 1025
0 249.75 m 1
 375 249.75 l 1
 375 374.75 l 1
 0 374.75 l 1
 0 249.75 l 1025
125 124.75 m 1
 250 124.75 l 1
 250 249.75 l 1
 125 249.75 l 1
 125 124.75 l 1025
0 -0.25 m 1
 375 -0.25 l 1
 375 124.75 l 1
 0 124.75 l 1
 0 -0.25 l 1
EndSplineSet
EndChar

StartChar: imacron
Encoding: 299 299 235
Width: 500
VWidth: 0
Flags: HW
LayerCount: 2
Back
Fore
SplineSet
0 499.75 m 1
 375 499.75 l 1
 375 624.75 l 1
 0 624.75 l 1
 0 499.75 l 1025
0 249.75 m 1
 250 249.75 l 1
 250 374.75 l 1
 0 374.75 l 1
 0 249.75 l 1025
125 124.75 m 1
 250 124.75 l 1
 250 249.75 l 1
 125 249.75 l 1
 125 124.75 l 1025
0 -0.25 m 1
 375 -0.25 l 1
 375 124.75 l 1
 0 124.75 l 1
 0 -0.25 l 1
EndSplineSet
EndChar

StartChar: Ibreve
Encoding: 300 300 236
Width: 500
VWidth: 0
Flags: HW
LayerCount: 2
Back
Fore
SplineSet
0 499.75 m 1
 125 499.75 l 1
 125 624.75 l 1
 0 624.75 l 1
 0 499.75 l 1025
250 499.75 m 1
 375 499.75 l 1
 375 624.75 l 1
 250 624.75 l 1
 250 499.75 l 1025
125 374.75 m 1
 250 374.75 l 1
 250 499.75 l 1
 125 499.75 l 1
 125 374.75 l 1025
0 249.75 m 1
 375 249.75 l 1
 375 374.75 l 1
 0 374.75 l 1
 0 249.75 l 1025
125 124.75 m 1
 250 124.75 l 1
 250 249.75 l 1
 125 249.75 l 1
 125 124.75 l 1025
0 -0.25 m 1
 375 -0.25 l 1
 375 124.75 l 1
 0 124.75 l 1
 0 -0.25 l 1
EndSplineSet
EndChar

StartChar: ibreve
Encoding: 301 301 237
Width: 500
VWidth: 0
Flags: HW
LayerCount: 2
Back
Fore
SplineSet
0 499.75 m 1
 125 499.75 l 1
 125 624.75 l 1
 0 624.75 l 1
 0 499.75 l 1025
250 499.75 m 1
 375 499.75 l 1
 375 624.75 l 1
 250 624.75 l 1
 250 499.75 l 1025
125 374.75 m 1
 250 374.75 l 1
 250 499.75 l 1
 125 499.75 l 1
 125 374.75 l 1025
0 249.75 m 1
 250 249.75 l 1
 250 374.75 l 1
 0 374.75 l 1
 0 249.75 l 1025
125 124.75 m 1
 250 124.75 l 1
 250 249.75 l 1
 125 249.75 l 1
 125 124.75 l 1025
0 -0.25 m 1
 375 -0.25 l 1
 375 124.75 l 1
 0 124.75 l 1
 0 -0.25 l 1
EndSplineSet
EndChar

StartChar: Iogonek
Encoding: 302 302 238
Width: 500
VWidth: 0
Flags: HW
LayerCount: 2
Back
Fore
SplineSet
0 499.75 m 1
 375 499.75 l 1
 375 624.75 l 1
 0 624.75 l 1
 0 499.75 l 1025
125 374.75 m 1
 250 374.75 l 1
 250 499.75 l 1
 125 499.75 l 1
 125 374.75 l 1025
125 249.75 m 1
 250 249.75 l 1
 250 374.75 l 1
 125 374.75 l 1
 125 249.75 l 1025
125 124.75 m 1
 250 124.75 l 1
 250 249.75 l 1
 125 249.75 l 1
 125 124.75 l 1025
0 -0.25 m 1
 375 -0.25 l 1
 375 124.75 l 1
 0 124.75 l 1
 0 -0.25 l 1025
250 -125.25 m 1
 375 -125.25 l 1
 375 -0.25 l 1
 250 -0.25 l 1
 250 -125.25 l 1
EndSplineSet
EndChar

StartChar: iogonek
Encoding: 303 303 239
Width: 500
VWidth: 0
Flags: HW
LayerCount: 2
Back
Fore
SplineSet
125 499.75 m 1
 250 499.75 l 1
 250 624.75 l 1
 125 624.75 l 1
 125 499.75 l 1025
0 249.75 m 1
 250 249.75 l 1
 250 374.75 l 1
 0 374.75 l 1
 0 249.75 l 1025
125 124.75 m 1
 250 124.75 l 1
 250 249.75 l 1
 125 249.75 l 1
 125 124.75 l 1025
0 -0.25 m 1
 375 -0.25 l 1
 375 124.75 l 1
 0 124.75 l 1
 0 -0.25 l 1025
250 -125.25 m 1
 375 -125.25 l 1
 375 -0.25 l 1
 250 -0.25 l 1
 250 -125.25 l 1
EndSplineSet
EndChar

StartChar: Idotaccent
Encoding: 304 304 240
Width: 500
VWidth: 0
Flags: HW
LayerCount: 2
Back
Fore
SplineSet
125 499.75 m 1
 250 499.75 l 1
 250 624.75 l 1
 125 624.75 l 1
 125 499.75 l 1025
0 249.75 m 1
 375 249.75 l 1
 375 374.75 l 1
 0 374.75 l 1
 0 249.75 l 1025
125 124.75 m 1
 250 124.75 l 1
 250 249.75 l 1
 125 249.75 l 1
 125 124.75 l 1025
0 -0.25 m 1
 375 -0.25 l 1
 375 124.75 l 1
 0 124.75 l 1
 0 -0.25 l 1
EndSplineSet
EndChar

StartChar: dotlessi
Encoding: 305 305 241
Width: 500
VWidth: 0
Flags: HW
LayerCount: 2
Back
Fore
SplineSet
0 249.75 m 1
 250 249.75 l 1
 250 374.75 l 1
 0 374.75 l 1
 0 249.75 l 1025
125 124.75 m 1
 250 124.75 l 1
 250 249.75 l 1
 125 249.75 l 1
 125 124.75 l 1025
0 -0.25 m 1
 375 -0.25 l 1
 375 124.75 l 1
 0 124.75 l 1
 0 -0.25 l 1
EndSplineSet
EndChar

StartChar: IJ
Encoding: 306 306 242
Width: 500
VWidth: 0
Flags: HW
LayerCount: 2
Back
Fore
SplineSet
0 499.75 m 1
 125 499.75 l 1
 125 624.75 l 1
 0 624.75 l 1
 0 499.75 l 1025
0 374.75 m 1
 125 374.75 l 1
 125 499.75 l 1
 0 499.75 l 1
 0 374.75 l 1025
250 374.75 m 1
 375 374.75 l 1
 375 499.75 l 1
 250 499.75 l 1
 250 374.75 l 1025
0 249.75 m 1
 125 249.75 l 1
 125 374.75 l 1
 0 374.75 l 1
 0 249.75 l 1025
250 249.75 m 1
 375 249.75 l 1
 375 374.75 l 1
 250 374.75 l 1
 250 249.75 l 1025
0 124.75 m 1
 125 124.75 l 1
 125 249.75 l 1
 0 249.75 l 1
 0 124.75 l 1025
250 124.75 m 1
 375 124.75 l 1
 375 249.75 l 1
 250 249.75 l 1
 250 124.75 l 1025
250 -0.25 m 1
 375 -0.25 l 1
 375 124.75 l 1
 250 124.75 l 1
 250 -0.25 l 1025
125 -125.25 m 1
 375 -125.25 l 1
 375 -0.25 l 1
 125 -0.25 l 1
 125 -125.25 l 1
EndSplineSet
EndChar

StartChar: ij
Encoding: 307 307 243
Width: 500
VWidth: 0
Flags: HW
LayerCount: 2
Back
Fore
SplineSet
0 499.75 m 1
 125 499.75 l 1
 125 624.75 l 1
 0 624.75 l 1
 0 499.75 l 1025
250 499.75 m 1
 375 499.75 l 1
 375 624.75 l 1
 250 624.75 l 1
 250 499.75 l 1025
0 249.75 m 1
 125 249.75 l 1
 125 374.75 l 1
 0 374.75 l 1
 0 249.75 l 1025
250 249.75 m 1
 375 249.75 l 1
 375 374.75 l 1
 250 374.75 l 1
 250 249.75 l 1025
0 124.75 m 1
 125 124.75 l 1
 125 249.75 l 1
 0 249.75 l 1
 0 124.75 l 1025
250 124.75 m 1
 375 124.75 l 1
 375 249.75 l 1
 250 249.75 l 1
 250 124.75 l 1025
250 -0.25 m 1
 375 -0.25 l 1
 375 124.75 l 1
 250 124.75 l 1
 250 -0.25 l 1025
125 -125.25 m 1
 250 -125.25 l 1
 250 -0.25 l 1
 125 -0.25 l 1
 125 -125.25 l 1
EndSplineSet
EndChar

StartChar: Jcircumflex
Encoding: 308 308 244
Width: 500
VWidth: 0
Flags: HW
LayerCount: 2
Back
Fore
SplineSet
125 499.75 m 1
 375 499.75 l 1
 375 624.75 l 1
 125 624.75 l 1
 125 499.75 l 1025
0 374.75 m 1
 125 374.75 l 1
 125 499.75 l 1
 0 499.75 l 1
 0 374.75 l 1025
250 374.75 m 1
 375 374.75 l 1
 375 499.75 l 1
 250 499.75 l 1
 250 374.75 l 1025
250 249.75 m 1
 375 249.75 l 1
 375 374.75 l 1
 250 374.75 l 1
 250 249.75 l 1025
0 124.75 m 1
 125 124.75 l 1
 125 249.75 l 1
 0 249.75 l 1
 0 124.75 l 1025
250 124.75 m 1
 375 124.75 l 1
 375 249.75 l 1
 250 249.75 l 1
 250 124.75 l 1025
125 -0.25 m 1
 250 -0.25 l 1
 250 124.75 l 1
 125 124.75 l 1
 125 -0.25 l 1
EndSplineSet
EndChar

StartChar: jcircumflex
Encoding: 309 309 245
Width: 500
VWidth: 0
Flags: HW
LayerCount: 2
Back
Fore
SplineSet
125 499.75 m 1
 250 499.75 l 1
 250 624.75 l 1
 125 624.75 l 1
 125 499.75 l 1025
0 374.75 m 1
 125 374.75 l 1
 125 499.75 l 1
 0 499.75 l 1
 0 374.75 l 1025
250 374.75 m 1
 375 374.75 l 1
 375 499.75 l 1
 250 499.75 l 1
 250 374.75 l 1025
250 124.75 m 1
 375 124.75 l 1
 375 249.75 l 1
 250 249.75 l 1
 250 124.75 l 1025
250 -0.25 m 1
 375 -0.25 l 1
 375 124.75 l 1
 250 124.75 l 1
 250 -0.25 l 1025
0 -125.25 m 1
 250 -125.25 l 1
 250 -0.25 l 1
 0 -0.25 l 1
 0 -125.25 l 1
EndSplineSet
EndChar

StartChar: Kcommaaccent
Encoding: 310 310 246
Width: 500
VWidth: 0
Flags: HW
LayerCount: 2
Back
Fore
SplineSet
0 499.75 m 1
 125 499.75 l 1
 125 624.75 l 1
 0 624.75 l 1
 0 499.75 l 1025
250 499.75 m 1
 375 499.75 l 1
 375 624.75 l 1
 250 624.75 l 1
 250 499.75 l 1025
0 374.75 m 1
 125 374.75 l 1
 125 499.75 l 1
 0 499.75 l 1
 0 374.75 l 1025
250 374.75 m 1
 375 374.75 l 1
 375 499.75 l 1
 250 499.75 l 1
 250 374.75 l 1025
0 249.75 m 1
 250 249.75 l 1
 250 374.75 l 1
 0 374.75 l 1
 0 249.75 l 1025
0 124.75 m 1
 125 124.75 l 1
 125 249.75 l 1
 0 249.75 l 1
 0 124.75 l 1025
250 124.75 m 1
 375 124.75 l 1
 375 249.75 l 1
 250 249.75 l 1
 250 124.75 l 1025
250 -0.25 m 1
 375 -0.25 l 1
 375 124.75 l 1
 250 124.75 l 1
 250 -0.25 l 1025
125 -125.25 m 1
 250 -125.25 l 1
 250 -0.25 l 1
 125 -0.25 l 1
 125 -125.25 l 1
EndSplineSet
EndChar

StartChar: kcommaaccent
Encoding: 311 311 247
Width: 500
VWidth: 0
Flags: HW
LayerCount: 2
Back
Fore
SplineSet
0 499.75 m 1
 125 499.75 l 1
 125 624.75 l 1
 0 624.75 l 1
 0 499.75 l 1025
0 374.75 m 1
 125 374.75 l 1
 125 499.75 l 1
 0 499.75 l 1
 0 374.75 l 1025
250 374.75 m 1
 375 374.75 l 1
 375 499.75 l 1
 250 499.75 l 1
 250 374.75 l 1025
0 249.75 m 1
 250 249.75 l 1
 250 374.75 l 1
 0 374.75 l 1
 0 249.75 l 1025
0 124.75 m 1
 125 124.75 l 1
 125 249.75 l 1
 0 249.75 l 1
 0 124.75 l 1025
250 124.75 m 1
 375 124.75 l 1
 375 249.75 l 1
 250 249.75 l 1
 250 124.75 l 1025
250 -0.25 m 1
 375 -0.25 l 1
 375 124.75 l 1
 250 124.75 l 1
 250 -0.25 l 1025
125 -125.25 m 1
 250 -125.25 l 1
 250 -0.25 l 1
 125 -0.25 l 1
 125 -125.25 l 1
EndSplineSet
EndChar

StartChar: kgreenlandic
Encoding: 312 312 248
Width: 500
VWidth: 0
Flags: HW
LayerCount: 2
Back
Fore
SplineSet
0 374.75 m 1
 125 374.75 l 1
 125 499.75 l 1
 0 499.75 l 1
 0 374.75 l 1025
250 374.75 m 1
 375 374.75 l 1
 375 499.75 l 1
 250 499.75 l 1
 250 374.75 l 1025
0 249.75 m 1
 125 249.75 l 1
 125 374.75 l 1
 0 374.75 l 1
 0 249.75 l 1025
250 249.75 m 1
 375 249.75 l 1
 375 374.75 l 1
 250 374.75 l 1
 250 249.75 l 1025
0 124.75 m 1
 250 124.75 l 1
 250 249.75 l 1
 0 249.75 l 1
 0 124.75 l 1025
0 -0.25 m 1
 125 -0.25 l 1
 125 124.75 l 1
 0 124.75 l 1
 0 -0.25 l 1025
250 -0.25 m 1
 375 -0.25 l 1
 375 124.75 l 1
 250 124.75 l 1
 250 -0.25 l 1
EndSplineSet
EndChar

StartChar: Lacute
Encoding: 313 313 249
Width: 500
VWidth: 0
Flags: HW
LayerCount: 2
Back
Fore
SplineSet
125 499.75 m 1
 250 499.75 l 1
 250 624.75 l 1
 125 624.75 l 1
 125 499.75 l 1025
0 374.75 m 1
 125 374.75 l 1
 125 499.75 l 1
 0 499.75 l 1
 0 374.75 l 1025
0 249.75 m 1
 125 249.75 l 1
 125 374.75 l 1
 0 374.75 l 1
 0 249.75 l 1025
0 124.75 m 1
 125 124.75 l 1
 125 249.75 l 1
 0 249.75 l 1
 0 124.75 l 1025
0 -0.25 m 1
 375 -0.25 l 1
 375 124.75 l 1
 0 124.75 l 1
 0 -0.25 l 1
EndSplineSet
EndChar

StartChar: lacute
Encoding: 314 314 250
Width: 500
VWidth: 0
Flags: HW
LayerCount: 2
Back
Fore
SplineSet
250 499.75 m 1
 375 499.75 l 1
 375 624.75 l 1
 250 624.75 l 1
 250 499.75 l 1025
0 374.75 m 1
 250 374.75 l 1
 250 499.75 l 1
 0 499.75 l 1
 0 374.75 l 1025
125 249.75 m 1
 250 249.75 l 1
 250 374.75 l 1
 125 374.75 l 1
 125 249.75 l 1025
125 124.75 m 1
 250 124.75 l 1
 250 249.75 l 1
 125 249.75 l 1
 125 124.75 l 1025
0 -0.25 m 1
 375 -0.25 l 1
 375 124.75 l 1
 0 124.75 l 1
 0 -0.25 l 1
EndSplineSet
EndChar

StartChar: Lcommaaccent
Encoding: 315 315 251
Width: 500
VWidth: 0
Flags: HW
LayerCount: 2
Back
Fore
SplineSet
0 499.75 m 1
 125 499.75 l 1
 125 624.75 l 1
 0 624.75 l 1
 0 499.75 l 1025
0 374.75 m 1
 125 374.75 l 1
 125 499.75 l 1
 0 499.75 l 1
 0 374.75 l 1025
0 249.75 m 1
 125 249.75 l 1
 125 374.75 l 1
 0 374.75 l 1
 0 249.75 l 1025
0 124.75 m 1
 125 124.75 l 1
 125 249.75 l 1
 0 249.75 l 1
 0 124.75 l 1025
0 -0.25 m 1
 375 -0.25 l 1
 375 124.75 l 1
 0 124.75 l 1
 0 -0.25 l 1025
250 -125.25 m 1
 375 -125.25 l 1
 375 -0.25 l 1
 250 -0.25 l 1
 250 -125.25 l 1
EndSplineSet
EndChar

StartChar: lcommaaccent
Encoding: 316 316 252
Width: 500
VWidth: 0
Flags: HW
LayerCount: 2
Back
Fore
SplineSet
0 499.75 m 1
 250 499.75 l 1
 250 624.75 l 1
 0 624.75 l 1
 0 499.75 l 1025
125 374.75 m 1
 250 374.75 l 1
 250 499.75 l 1
 125 499.75 l 1
 125 374.75 l 1025
125 249.75 m 1
 250 249.75 l 1
 250 374.75 l 1
 125 374.75 l 1
 125 249.75 l 1025
125 124.75 m 1
 250 124.75 l 1
 250 249.75 l 1
 125 249.75 l 1
 125 124.75 l 1025
0 -0.25 m 1
 375 -0.25 l 1
 375 124.75 l 1
 0 124.75 l 1
 0 -0.25 l 1025
250 -125.25 m 1
 375 -125.25 l 1
 375 -0.25 l 1
 250 -0.25 l 1
 250 -125.25 l 1
EndSplineSet
EndChar

StartChar: Lcaron
Encoding: 317 317 253
Width: 500
VWidth: 0
Flags: HW
LayerCount: 2
Back
Fore
SplineSet
0 499.75 m 1
 125 499.75 l 1
 125 624.75 l 1
 0 624.75 l 1
 0 499.75 l 1025
250 499.75 m 1
 375 499.75 l 1
 375 624.75 l 1
 250 624.75 l 1
 250 499.75 l 1025
0 374.75 m 1
 250 374.75 l 1
 250 499.75 l 1
 0 499.75 l 1
 0 374.75 l 1025
0 249.75 m 1
 125 249.75 l 1
 125 374.75 l 1
 0 374.75 l 1
 0 249.75 l 1025
0 124.75 m 1
 125 124.75 l 1
 125 249.75 l 1
 0 249.75 l 1
 0 124.75 l 1025
0 -0.25 m 1
 375 -0.25 l 1
 375 124.75 l 1
 0 124.75 l 1
 0 -0.25 l 1
EndSplineSet
EndChar

StartChar: lcaron
Encoding: 318 318 254
Width: 500
VWidth: 0
Flags: HW
LayerCount: 2
Back
Fore
SplineSet
0 499.75 m 1
 250 499.75 l 1
 250 624.75 l 1
 0 624.75 l 1
 0 499.75 l 1025
375 499.75 m 1
 500 499.75 l 1
 500 624.75 l 1
 375 624.75 l 1
 375 499.75 l 1025
125 374.75 m 1
 250 374.75 l 1
 250 499.75 l 1
 125 499.75 l 1
 125 374.75 l 1025
125 249.75 m 1
 250 249.75 l 1
 250 374.75 l 1
 125 374.75 l 1
 125 249.75 l 1025
125 124.75 m 1
 250 124.75 l 1
 250 249.75 l 1
 125 249.75 l 1
 125 124.75 l 1025
0 -0.25 m 1
 375 -0.25 l 1
 375 124.75 l 1
 0 124.75 l 1
 0 -0.25 l 1
EndSplineSet
EndChar

StartChar: Ldot
Encoding: 319 319 255
Width: 500
VWidth: 0
Flags: HW
LayerCount: 2
Back
Fore
SplineSet
0 499.75 m 1
 125 499.75 l 1
 125 624.75 l 1
 0 624.75 l 1
 0 499.75 l 1025
0 374.75 m 1
 125 374.75 l 1
 125 499.75 l 1
 0 499.75 l 1
 0 374.75 l 1025
0 249.75 m 1
 125 249.75 l 1
 125 374.75 l 1
 0 374.75 l 1
 0 249.75 l 1025
250 249.75 m 1
 375 249.75 l 1
 375 374.75 l 1
 250 374.75 l 1
 250 249.75 l 1025
0 124.75 m 1
 125 124.75 l 1
 125 249.75 l 1
 0 249.75 l 1
 0 124.75 l 1025
0 -0.25 m 1
 375 -0.25 l 1
 375 124.75 l 1
 0 124.75 l 1
 0 -0.25 l 1
EndSplineSet
EndChar

StartChar: ldot
Encoding: 320 320 256
Width: 500
VWidth: 0
Flags: HW
LayerCount: 2
Back
Fore
SplineSet
0 499.75 m 1
 250 499.75 l 1
 250 624.75 l 1
 0 624.75 l 1
 0 499.75 l 1025
125 374.75 m 1
 250 374.75 l 1
 250 499.75 l 1
 125 499.75 l 1
 125 374.75 l 1025
125 249.75 m 1
 250 249.75 l 1
 250 374.75 l 1
 125 374.75 l 1
 125 249.75 l 1025
375 249.75 m 1
 500 249.75 l 1
 500 374.75 l 1
 375 374.75 l 1
 375 249.75 l 1025
125 124.75 m 1
 250 124.75 l 1
 250 249.75 l 1
 125 249.75 l 1
 125 124.75 l 1025
0 -0.25 m 1
 375 -0.25 l 1
 375 124.75 l 1
 0 124.75 l 1
 0 -0.25 l 1
EndSplineSet
EndChar

StartChar: Lslash
Encoding: 321 321 257
Width: 500
VWidth: 0
Flags: HW
LayerCount: 2
Back
Fore
SplineSet
0 499.75 m 1
 125 499.75 l 1
 125 624.75 l 1
 0 624.75 l 1
 0 499.75 l 1025
0 374.75 m 1
 125 374.75 l 1
 125 499.75 l 1
 0 499.75 l 1
 0 374.75 l 1025
250 374.75 m 1
 375 374.75 l 1
 375 499.75 l 1
 250 499.75 l 1
 250 374.75 l 1025
0 249.75 m 1
 250 249.75 l 1
 250 374.75 l 1
 0 374.75 l 1
 0 249.75 l 1025
0 124.75 m 1
 125 124.75 l 1
 125 249.75 l 1
 0 249.75 l 1
 0 124.75 l 1025
0 -0.25 m 1
 375 -0.25 l 1
 375 124.75 l 1
 0 124.75 l 1
 0 -0.25 l 1
EndSplineSet
EndChar

StartChar: lslash
Encoding: 322 322 258
Width: 500
VWidth: 0
Flags: HW
LayerCount: 2
Back
Fore
SplineSet
0 499.75 m 1
 250 499.75 l 1
 250 624.75 l 1
 0 624.75 l 1
 0 499.75 l 1025
125 374.75 m 1
 375 374.75 l 1
 375 499.75 l 1
 125 499.75 l 1
 125 374.75 l 1025
0 249.75 m 1
 250 249.75 l 1
 250 374.75 l 1
 0 374.75 l 1
 0 249.75 l 1025
125 124.75 m 1
 250 124.75 l 1
 250 249.75 l 1
 125 249.75 l 1
 125 124.75 l 1025
0 -0.25 m 1
 375 -0.25 l 1
 375 124.75 l 1
 0 124.75 l 1
 0 -0.25 l 1
EndSplineSet
EndChar

StartChar: Nacute
Encoding: 323 323 259
Width: 500
VWidth: 0
Flags: HW
LayerCount: 2
Back
Fore
SplineSet
250 499.75 m 1
 375 499.75 l 1
 375 624.75 l 1
 250 624.75 l 1
 250 499.75 l 1025
0 374.75 m 1
 125 374.75 l 1
 125 499.75 l 1
 0 499.75 l 1
 0 374.75 l 1025
250 374.75 m 1
 375 374.75 l 1
 375 499.75 l 1
 250 499.75 l 1
 250 374.75 l 1025
0 249.75 m 1
 375 249.75 l 1
 375 374.75 l 1
 0 374.75 l 1
 0 249.75 l 1025
0 124.75 m 1
 125 124.75 l 1
 125 249.75 l 1
 0 249.75 l 1
 0 124.75 l 1025
250 124.75 m 1
 375 124.75 l 1
 375 249.75 l 1
 250 249.75 l 1
 250 124.75 l 1025
0 -0.25 m 1
 125 -0.25 l 1
 125 124.75 l 1
 0 124.75 l 1
 0 -0.25 l 1
EndSplineSet
EndChar

StartChar: nacute
Encoding: 324 324 260
Width: 500
VWidth: 0
Flags: HW
LayerCount: 2
Back
Fore
SplineSet
250 499.75 m 1
 375 499.75 l 1
 375 624.75 l 1
 250 624.75 l 1
 250 499.75 l 1025
125 374.75 m 1
 250 374.75 l 1
 250 499.75 l 1
 125 499.75 l 1
 125 374.75 l 1025
0 249.75 m 1
 250 249.75 l 1
 250 374.75 l 1
 0 374.75 l 1
 0 249.75 l 1025
0 124.75 m 1
 125 124.75 l 1
 125 249.75 l 1
 0 249.75 l 1
 0 124.75 l 1025
250 124.75 m 1
 375 124.75 l 1
 375 249.75 l 1
 250 249.75 l 1
 250 124.75 l 1025
0 -0.25 m 1
 125 -0.25 l 1
 125 124.75 l 1
 0 124.75 l 1
 0 -0.25 l 1025
250 -0.25 m 1
 375 -0.25 l 1
 375 124.75 l 1
 250 124.75 l 1
 250 -0.25 l 1
EndSplineSet
EndChar

StartChar: Ncommaaccent
Encoding: 325 325 261
Width: 500
VWidth: 0
Flags: HW
LayerCount: 2
Back
Fore
SplineSet
250 499.75 m 1
 375 499.75 l 1
 375 624.75 l 1
 250 624.75 l 1
 250 499.75 l 1025
0 374.75 m 1
 125 374.75 l 1
 125 499.75 l 1
 0 499.75 l 1
 0 374.75 l 1025
250 374.75 m 1
 375 374.75 l 1
 375 499.75 l 1
 250 499.75 l 1
 250 374.75 l 1025
0 249.75 m 1
 375 249.75 l 1
 375 374.75 l 1
 0 374.75 l 1
 0 249.75 l 1025
0 124.75 m 1
 125 124.75 l 1
 125 249.75 l 1
 0 249.75 l 1
 0 124.75 l 1025
250 124.75 m 1
 375 124.75 l 1
 375 249.75 l 1
 250 249.75 l 1
 250 124.75 l 1025
0 -0.25 m 1
 125 -0.25 l 1
 125 124.75 l 1
 0 124.75 l 1
 0 -0.25 l 1025
250 -125.25 m 1
 375 -125.25 l 1
 375 -0.25 l 1
 250 -0.25 l 1
 250 -125.25 l 1
EndSplineSet
EndChar

StartChar: ncommaaccent
Encoding: 326 326 262
Width: 500
VWidth: 0
Flags: HW
LayerCount: 2
Back
Fore
SplineSet
0 374.75 m 1
 250 374.75 l 1
 250 499.75 l 1
 0 499.75 l 1
 0 374.75 l 1025
0 249.75 m 1
 125 249.75 l 1
 125 374.75 l 1
 0 374.75 l 1
 0 249.75 l 1025
250 249.75 m 1
 375 249.75 l 1
 375 374.75 l 1
 250 374.75 l 1
 250 249.75 l 1025
0 124.75 m 1
 125 124.75 l 1
 125 249.75 l 1
 0 249.75 l 1
 0 124.75 l 1025
250 124.75 m 1
 375 124.75 l 1
 375 249.75 l 1
 250 249.75 l 1
 250 124.75 l 1025
125 -125.25 m 1
 250 -125.25 l 1
 250 -0.25 l 1
 125 -0.25 l 1
 125 -125.25 l 1
EndSplineSet
EndChar

StartChar: Ncaron
Encoding: 327 327 263
Width: 500
VWidth: 0
Flags: HW
LayerCount: 2
Back
Fore
SplineSet
250 499.75 m 1
 375 499.75 l 1
 375 624.75 l 1
 250 624.75 l 1
 250 499.75 l 1025
0 374.75 m 1
 125 374.75 l 1
 125 499.75 l 1
 0 499.75 l 1
 0 374.75 l 1025
250 374.75 m 1
 375 374.75 l 1
 375 499.75 l 1
 250 499.75 l 1
 250 374.75 l 1025
0 249.75 m 1
 375 249.75 l 1
 375 374.75 l 1
 0 374.75 l 1
 0 249.75 l 1025
0 124.75 m 1
 125 124.75 l 1
 125 249.75 l 1
 0 249.75 l 1
 0 124.75 l 1025
250 124.75 m 1
 375 124.75 l 1
 375 249.75 l 1
 250 249.75 l 1
 250 124.75 l 1025
0 -0.25 m 1
 125 -0.25 l 1
 125 124.75 l 1
 0 124.75 l 1
 0 -0.25 l 1
EndSplineSet
EndChar

StartChar: ncaron
Encoding: 328 328 264
Width: 500
VWidth: 0
Flags: HW
LayerCount: 2
Back
Fore
SplineSet
0 499.75 m 1
 125 499.75 l 1
 125 624.75 l 1
 0 624.75 l 1
 0 499.75 l 1025
250 499.75 m 1
 375 499.75 l 1
 375 624.75 l 1
 250 624.75 l 1
 250 499.75 l 1025
125 374.75 m 1
 250 374.75 l 1
 250 499.75 l 1
 125 499.75 l 1
 125 374.75 l 1025
0 249.75 m 1
 250 249.75 l 1
 250 374.75 l 1
 0 374.75 l 1
 0 249.75 l 1025
0 124.75 m 1
 125 124.75 l 1
 125 249.75 l 1
 0 249.75 l 1
 0 124.75 l 1025
250 124.75 m 1
 375 124.75 l 1
 375 249.75 l 1
 250 249.75 l 1
 250 124.75 l 1025
0 -0.25 m 1
 125 -0.25 l 1
 125 124.75 l 1
 0 124.75 l 1
 0 -0.25 l 1025
250 -0.25 m 1
 375 -0.25 l 1
 375 124.75 l 1
 250 124.75 l 1
 250 -0.25 l 1
EndSplineSet
EndChar

StartChar: napostrophe
Encoding: 329 329 265
Width: 500
VWidth: 0
Flags: HW
LayerCount: 2
Back
Fore
SplineSet
0 499.75 m 1
 125 499.75 l 1
 125 624.75 l 1
 0 624.75 l 1
 0 499.75 l 1025
0 249.75 m 1
 250 249.75 l 1
 250 374.75 l 1
 0 374.75 l 1
 0 249.75 l 1025
0 124.75 m 1
 125 124.75 l 1
 125 249.75 l 1
 0 249.75 l 1
 0 124.75 l 1025
250 124.75 m 1
 375 124.75 l 1
 375 249.75 l 1
 250 249.75 l 1
 250 124.75 l 1025
0 -0.25 m 1
 125 -0.25 l 1
 125 124.75 l 1
 0 124.75 l 1
 0 -0.25 l 1025
250 -0.25 m 1
 375 -0.25 l 1
 375 124.75 l 1
 250 124.75 l 1
 250 -0.25 l 1
EndSplineSet
EndChar

StartChar: Eng
Encoding: 330 330 266
Width: 500
VWidth: 0
Flags: HW
LayerCount: 2
Back
Fore
SplineSet
0 499.75 m 1
 125 499.75 l 1
 125 624.75 l 1
 0 624.75 l 1
 0 499.75 l 1025
250 499.75 m 1
 375 499.75 l 1
 375 624.75 l 1
 250 624.75 l 1
 250 499.75 l 1025
0 374.75 m 1
 375 374.75 l 1
 375 499.75 l 1
 0 499.75 l 1
 0 374.75 l 1025
0 249.75 m 1
 375 249.75 l 1
 375 374.75 l 1
 0 374.75 l 1
 0 249.75 l 1025
0 124.75 m 1
 125 124.75 l 1
 125 249.75 l 1
 0 249.75 l 1
 0 124.75 l 1025
250 124.75 m 1
 375 124.75 l 1
 375 249.75 l 1
 250 249.75 l 1
 250 124.75 l 1025
250 -0.25 m 1
 375 -0.25 l 1
 375 124.75 l 1
 250 124.75 l 1
 250 -0.25 l 1025
125 -125.25 m 1
 250 -125.25 l 1
 250 -0.25 l 1
 125 -0.25 l 1
 125 -125.25 l 1
EndSplineSet
EndChar

StartChar: eng
Encoding: 331 331 267
Width: 500
VWidth: 0
Flags: HW
LayerCount: 2
Back
Fore
SplineSet
0 374.75 m 1
 250 374.75 l 1
 250 499.75 l 1
 0 499.75 l 1
 0 374.75 l 1025
0 249.75 m 1
 125 249.75 l 1
 125 374.75 l 1
 0 374.75 l 1
 0 249.75 l 1025
250 249.75 m 1
 375 249.75 l 1
 375 374.75 l 1
 250 374.75 l 1
 250 249.75 l 1025
0 124.75 m 1
 125 124.75 l 1
 125 249.75 l 1
 0 249.75 l 1
 0 124.75 l 1025
250 124.75 m 1
 375 124.75 l 1
 375 249.75 l 1
 250 249.75 l 1
 250 124.75 l 1025
250 -0.25 m 1
 375 -0.25 l 1
 375 124.75 l 1
 250 124.75 l 1
 250 -0.25 l 1025
125 -125.25 m 1
 250 -125.25 l 1
 250 -0.25 l 1
 125 -0.25 l 1
 125 -125.25 l 1
EndSplineSet
EndChar

StartChar: Omacron
Encoding: 332 332 268
Width: 500
VWidth: 0
Flags: HW
LayerCount: 2
Back
Fore
SplineSet
0 499.75 m 1
 375 499.75 l 1
 375 624.75 l 1
 0 624.75 l 1
 0 499.75 l 1025
125 374.75 m 1
 250 374.75 l 1
 250 499.75 l 1
 125 499.75 l 1
 125 374.75 l 1025
0 249.75 m 1
 125 249.75 l 1
 125 374.75 l 1
 0 374.75 l 1
 0 249.75 l 1025
250 249.75 m 1
 375 249.75 l 1
 375 374.75 l 1
 250 374.75 l 1
 250 249.75 l 1025
0 124.75 m 1
 125 124.75 l 1
 125 249.75 l 1
 0 249.75 l 1
 0 124.75 l 1025
250 124.75 m 1
 375 124.75 l 1
 375 249.75 l 1
 250 249.75 l 1
 250 124.75 l 1025
125 -0.25 m 1
 250 -0.25 l 1
 250 124.75 l 1
 125 124.75 l 1
 125 -0.25 l 1
EndSplineSet
EndChar

StartChar: omacron
Encoding: 333 333 269
Width: 500
VWidth: 0
Flags: HW
LayerCount: 2
Back
Fore
SplineSet
0 499.75 m 1
 375 499.75 l 1
 375 624.75 l 1
 0 624.75 l 1
 0 499.75 l 1025
125 249.75 m 1
 250 249.75 l 1
 250 374.75 l 1
 125 374.75 l 1
 125 249.75 l 1025
0 124.75 m 1
 125 124.75 l 1
 125 249.75 l 1
 0 249.75 l 1
 0 124.75 l 1025
250 124.75 m 1
 375 124.75 l 1
 375 249.75 l 1
 250 249.75 l 1
 250 124.75 l 1025
125 -0.25 m 1
 250 -0.25 l 1
 250 124.75 l 1
 125 124.75 l 1
 125 -0.25 l 1
EndSplineSet
EndChar

StartChar: Obreve
Encoding: 334 334 270
Width: 500
VWidth: 0
Flags: HW
LayerCount: 2
Back
Fore
SplineSet
0 499.75 m 1
 125 499.75 l 1
 125 624.75 l 1
 0 624.75 l 1
 0 499.75 l 1025
250 499.75 m 1
 375 499.75 l 1
 375 624.75 l 1
 250 624.75 l 1
 250 499.75 l 1025
125 374.75 m 1
 250 374.75 l 1
 250 499.75 l 1
 125 499.75 l 1
 125 374.75 l 1025
0 249.75 m 1
 125 249.75 l 1
 125 374.75 l 1
 0 374.75 l 1
 0 249.75 l 1025
250 249.75 m 1
 375 249.75 l 1
 375 374.75 l 1
 250 374.75 l 1
 250 249.75 l 1025
0 124.75 m 1
 125 124.75 l 1
 125 249.75 l 1
 0 249.75 l 1
 0 124.75 l 1025
250 124.75 m 1
 375 124.75 l 1
 375 249.75 l 1
 250 249.75 l 1
 250 124.75 l 1025
125 -0.25 m 1
 250 -0.25 l 1
 250 124.75 l 1
 125 124.75 l 1
 125 -0.25 l 1
EndSplineSet
EndChar

StartChar: obreve
Encoding: 335 335 271
Width: 500
VWidth: 0
Flags: HW
LayerCount: 2
Back
Fore
SplineSet
0 499.75 m 1
 125 499.75 l 1
 125 624.75 l 1
 0 624.75 l 1
 0 499.75 l 1025
250 499.75 m 1
 375 499.75 l 1
 375 624.75 l 1
 250 624.75 l 1
 250 499.75 l 1025
125 374.75 m 1
 250 374.75 l 1
 250 499.75 l 1
 125 499.75 l 1
 125 374.75 l 1025
125 249.75 m 1
 250 249.75 l 1
 250 374.75 l 1
 125 374.75 l 1
 125 249.75 l 1025
0 124.75 m 1
 125 124.75 l 1
 125 249.75 l 1
 0 249.75 l 1
 0 124.75 l 1025
250 124.75 m 1
 375 124.75 l 1
 375 249.75 l 1
 250 249.75 l 1
 250 124.75 l 1025
125 -0.25 m 1
 250 -0.25 l 1
 250 124.75 l 1
 125 124.75 l 1
 125 -0.25 l 1
EndSplineSet
EndChar

StartChar: Ohungarumlaut
Encoding: 336 336 272
Width: 500
VWidth: 0
Flags: HW
LayerCount: 2
Back
Fore
SplineSet
0 499.75 m 1
 125 499.75 l 1
 125 624.75 l 1
 0 624.75 l 1
 0 499.75 l 1025
250 499.75 m 1
 375 499.75 l 1
 375 624.75 l 1
 250 624.75 l 1
 250 499.75 l 1025
125 374.75 m 1
 250 374.75 l 1
 250 499.75 l 1
 125 499.75 l 1
 125 374.75 l 1025
0 249.75 m 1
 125 249.75 l 1
 125 374.75 l 1
 0 374.75 l 1
 0 249.75 l 1025
250 249.75 m 1
 375 249.75 l 1
 375 374.75 l 1
 250 374.75 l 1
 250 249.75 l 1025
0 124.75 m 1
 125 124.75 l 1
 125 249.75 l 1
 0 249.75 l 1
 0 124.75 l 1025
250 124.75 m 1
 375 124.75 l 1
 375 249.75 l 1
 250 249.75 l 1
 250 124.75 l 1025
125 -0.25 m 1
 250 -0.25 l 1
 250 124.75 l 1
 125 124.75 l 1
 125 -0.25 l 1
EndSplineSet
EndChar

StartChar: ohungarumlaut
Encoding: 337 337 273
Width: 500
VWidth: 0
Flags: HW
LayerCount: 2
Back
Fore
SplineSet
0 499.75 m 1
 125 499.75 l 1
 125 624.75 l 1
 0 624.75 l 1
 0 499.75 l 1025
250 499.75 m 1
 375 499.75 l 1
 375 624.75 l 1
 250 624.75 l 1
 250 499.75 l 1025
0 374.75 m 1
 125 374.75 l 1
 125 499.75 l 1
 0 499.75 l 1
 0 374.75 l 1025
250 374.75 m 1
 375 374.75 l 1
 375 499.75 l 1
 250 499.75 l 1
 250 374.75 l 1025
125 249.75 m 1
 250 249.75 l 1
 250 374.75 l 1
 125 374.75 l 1
 125 249.75 l 1025
0 124.75 m 1
 125 124.75 l 1
 125 249.75 l 1
 0 249.75 l 1
 0 124.75 l 1025
250 124.75 m 1
 375 124.75 l 1
 375 249.75 l 1
 250 249.75 l 1
 250 124.75 l 1025
125 -0.25 m 1
 250 -0.25 l 1
 250 124.75 l 1
 125 124.75 l 1
 125 -0.25 l 1
EndSplineSet
EndChar

StartChar: OE
Encoding: 338 338 274
Width: 500
VWidth: 0
Flags: HW
LayerCount: 2
Back
Fore
SplineSet
125 499.75 m 1
 250 499.75 l 1
 250 624.75 l 1
 125 624.75 l 1
 125 499.75 l 1025
375 499.75 m 1
 500 499.75 l 1
 500 624.75 l 1
 375 624.75 l 1
 375 499.75 l 1025
0 374.75 m 1
 125 374.75 l 1
 125 499.75 l 1
 0 499.75 l 1
 0 374.75 l 1025
250 374.75 m 1
 375 374.75 l 1
 375 499.75 l 1
 250 499.75 l 1
 250 374.75 l 1025
0 249.75 m 1
 125 249.75 l 1
 125 374.75 l 1
 0 374.75 l 1
 0 249.75 l 1025
250 249.75 m 1
 500 249.75 l 1
 500 374.75 l 1
 250 374.75 l 1
 250 249.75 l 1025
0 124.75 m 1
 125 124.75 l 1
 125 249.75 l 1
 0 249.75 l 1
 0 124.75 l 1025
250 124.75 m 1
 375 124.75 l 1
 375 249.75 l 1
 250 249.75 l 1
 250 124.75 l 1025
125 -0.25 m 1
 500 -0.25 l 1
 500 124.75 l 1
 125 124.75 l 1
 125 -0.25 l 1
EndSplineSet
EndChar

StartChar: oe
Encoding: 339 339 275
Width: 500
VWidth: 0
Flags: HW
LayerCount: 2
Back
Fore
SplineSet
125 374.75 m 1
 500 374.75 l 1
 500 499.75 l 1
 125 499.75 l 1
 125 374.75 l 1025
0 249.75 m 1
 125 249.75 l 1
 125 374.75 l 1
 0 374.75 l 1
 0 249.75 l 1025
250 249.75 m 1
 500 249.75 l 1
 500 374.75 l 1
 250 374.75 l 1
 250 249.75 l 1025
0 124.75 m 1
 125 124.75 l 1
 125 249.75 l 1
 0 249.75 l 1
 0 124.75 l 1025
250 124.75 m 1
 375 124.75 l 1
 375 249.75 l 1
 250 249.75 l 1
 250 124.75 l 1025
125 -0.25 m 1
 500 -0.25 l 1
 500 124.75 l 1
 125 124.75 l 1
 125 -0.25 l 1
EndSplineSet
EndChar

StartChar: Racute
Encoding: 340 340 276
Width: 500
VWidth: 0
Flags: HW
LayerCount: 2
Back
Fore
SplineSet
250 499.75 m 1
 375 499.75 l 1
 375 624.75 l 1
 250 624.75 l 1
 250 499.75 l 1025
0 374.75 m 1
 250 374.75 l 1
 250 499.75 l 1
 0 499.75 l 1
 0 374.75 l 1025
0 249.75 m 1
 125 249.75 l 1
 125 374.75 l 1
 0 374.75 l 1
 0 249.75 l 1025
250 249.75 m 1
 375 249.75 l 1
 375 374.75 l 1
 250 374.75 l 1
 250 249.75 l 1025
0 124.75 m 1
 250 124.75 l 1
 250 249.75 l 1
 0 249.75 l 1
 0 124.75 l 1025
0 -0.25 m 1
 125 -0.25 l 1
 125 124.75 l 1
 0 124.75 l 1
 0 -0.25 l 1025
250 -0.25 m 1
 375 -0.25 l 1
 375 124.75 l 1
 250 124.75 l 1
 250 -0.25 l 1
EndSplineSet
EndChar

StartChar: racute
Encoding: 341 341 277
Width: 500
VWidth: 0
Flags: HW
LayerCount: 2
Back
Fore
SplineSet
250 499.75 m 1
 375 499.75 l 1
 375 624.75 l 1
 250 624.75 l 1
 250 499.75 l 1025
0 249.75 m 1
 125 249.75 l 1
 125 374.75 l 1
 0 374.75 l 1
 0 249.75 l 1025
250 249.75 m 1
 375 249.75 l 1
 375 374.75 l 1
 250 374.75 l 1
 250 249.75 l 1025
0 124.75 m 1
 250 124.75 l 1
 250 249.75 l 1
 0 249.75 l 1
 0 124.75 l 1025
0 -0.25 m 1
 125 -0.25 l 1
 125 124.75 l 1
 0 124.75 l 1
 0 -0.25 l 1
EndSplineSet
EndChar

StartChar: Rcommaaccent
Encoding: 342 342 278
Width: 500
VWidth: 0
Flags: HW
LayerCount: 2
Back
Fore
SplineSet
0 499.75 m 1
 250 499.75 l 1
 250 624.75 l 1
 0 624.75 l 1
 0 499.75 l 1025
0 374.75 m 1
 125 374.75 l 1
 125 499.75 l 1
 0 499.75 l 1
 0 374.75 l 1025
250 374.75 m 1
 375 374.75 l 1
 375 499.75 l 1
 250 499.75 l 1
 250 374.75 l 1025
0 249.75 m 1
 250 249.75 l 1
 250 374.75 l 1
 0 374.75 l 1
 0 249.75 l 1025
0 124.75 m 1
 125 124.75 l 1
 125 249.75 l 1
 0 249.75 l 1
 0 124.75 l 1025
250 124.75 m 1
 375 124.75 l 1
 375 249.75 l 1
 250 249.75 l 1
 250 124.75 l 1025
125 -125.25 m 1
 250 -125.25 l 1
 250 -0.25 l 1
 125 -0.25 l 1
 125 -125.25 l 1
EndSplineSet
EndChar

StartChar: rcommaaccent
Encoding: 343 343 279
Width: 500
VWidth: 0
Flags: HW
LayerCount: 2
Back
Fore
SplineSet
0 374.75 m 1
 125 374.75 l 1
 125 499.75 l 1
 0 499.75 l 1
 0 374.75 l 1025
250 374.75 m 1
 375 374.75 l 1
 375 499.75 l 1
 250 499.75 l 1
 250 374.75 l 1025
0 249.75 m 1
 250 249.75 l 1
 250 374.75 l 1
 0 374.75 l 1
 0 249.75 l 1025
0 124.75 m 1
 125 124.75 l 1
 125 249.75 l 1
 0 249.75 l 1
 0 124.75 l 1025
0 -0.25 m 1
 125 -0.25 l 1
 125 124.75 l 1
 0 124.75 l 1
 0 -0.25 l 1025
250 -125.25 m 1
 375 -125.25 l 1
 375 -0.25 l 1
 250 -0.25 l 1
 250 -125.25 l 1
EndSplineSet
EndChar

StartChar: Rcaron
Encoding: 344 344 280
Width: 500
VWidth: 0
Flags: HW
LayerCount: 2
Back
Fore
SplineSet
125 499.75 m 1
 375 499.75 l 1
 375 624.75 l 1
 125 624.75 l 1
 125 499.75 l 1025
0 374.75 m 1
 250 374.75 l 1
 250 499.75 l 1
 0 499.75 l 1
 0 374.75 l 1025
0 249.75 m 1
 125 249.75 l 1
 125 374.75 l 1
 0 374.75 l 1
 0 249.75 l 1025
250 249.75 m 1
 375 249.75 l 1
 375 374.75 l 1
 250 374.75 l 1
 250 249.75 l 1025
0 124.75 m 1
 250 124.75 l 1
 250 249.75 l 1
 0 249.75 l 1
 0 124.75 l 1025
0 -0.25 m 1
 125 -0.25 l 1
 125 124.75 l 1
 0 124.75 l 1
 0 -0.25 l 1025
250 -0.25 m 1
 375 -0.25 l 1
 375 124.75 l 1
 250 124.75 l 1
 250 -0.25 l 1
EndSplineSet
EndChar

StartChar: rcaron
Encoding: 345 345 281
Width: 500
VWidth: 0
Flags: HW
LayerCount: 2
Back
Fore
SplineSet
125 499.75 m 1
 375 499.75 l 1
 375 624.75 l 1
 125 624.75 l 1
 125 499.75 l 1025
0 249.75 m 1
 125 249.75 l 1
 125 374.75 l 1
 0 374.75 l 1
 0 249.75 l 1025
250 249.75 m 1
 375 249.75 l 1
 375 374.75 l 1
 250 374.75 l 1
 250 249.75 l 1025
0 124.75 m 1
 250 124.75 l 1
 250 249.75 l 1
 0 249.75 l 1
 0 124.75 l 1025
0 -0.25 m 1
 125 -0.25 l 1
 125 124.75 l 1
 0 124.75 l 1
 0 -0.25 l 1
EndSplineSet
EndChar

StartChar: Sacute
Encoding: 346 346 282
Width: 500
VWidth: 0
Flags: HW
LayerCount: 2
Back
Fore
SplineSet
250 499.75 m 1
 375 499.75 l 1
 375 624.75 l 1
 250 624.75 l 1
 250 499.75 l 1025
125 374.75 m 1
 375 374.75 l 1
 375 499.75 l 1
 125 499.75 l 1
 125 374.75 l 1025
0 249.75 m 1
 250 249.75 l 1
 250 374.75 l 1
 0 374.75 l 1
 0 249.75 l 1025
250 124.75 m 1
 375 124.75 l 1
 375 249.75 l 1
 250 249.75 l 1
 250 124.75 l 1025
0 -0.25 m 1
 250 -0.25 l 1
 250 124.75 l 1
 0 124.75 l 1
 0 -0.25 l 1
EndSplineSet
EndChar

StartChar: sacute
Encoding: 347 347 283
Width: 500
VWidth: 0
Flags: HW
LayerCount: 2
Back
Fore
SplineSet
250 499.75 m 1
 375 499.75 l 1
 375 624.75 l 1
 250 624.75 l 1
 250 499.75 l 1025
125 374.75 m 1
 375 374.75 l 1
 375 499.75 l 1
 125 499.75 l 1
 125 374.75 l 1025
0 249.75 m 1
 250 249.75 l 1
 250 374.75 l 1
 0 374.75 l 1
 0 249.75 l 1025
250 124.75 m 1
 375 124.75 l 1
 375 249.75 l 1
 250 249.75 l 1
 250 124.75 l 1025
0 -0.25 m 1
 250 -0.25 l 1
 250 124.75 l 1
 0 124.75 l 1
 0 -0.25 l 1
EndSplineSet
EndChar

StartChar: Scircumflex
Encoding: 348 348 284
Width: 500
VWidth: 0
Flags: HW
LayerCount: 2
Back
Fore
SplineSet
125 499.75 m 1
 375 499.75 l 1
 375 624.75 l 1
 125 624.75 l 1
 125 499.75 l 1025
125 374.75 m 1
 375 374.75 l 1
 375 499.75 l 1
 125 499.75 l 1
 125 374.75 l 1025
0 249.75 m 1
 250 249.75 l 1
 250 374.75 l 1
 0 374.75 l 1
 0 249.75 l 1025
250 124.75 m 1
 375 124.75 l 1
 375 249.75 l 1
 250 249.75 l 1
 250 124.75 l 1025
0 -0.25 m 1
 250 -0.25 l 1
 250 124.75 l 1
 0 124.75 l 1
 0 -0.25 l 1
EndSplineSet
EndChar

StartChar: scircumflex
Encoding: 349 349 285
Width: 500
VWidth: 0
Flags: HW
LayerCount: 2
Back
Fore
SplineSet
125 499.75 m 1
 375 499.75 l 1
 375 624.75 l 1
 125 624.75 l 1
 125 499.75 l 1025
125 374.75 m 1
 375 374.75 l 1
 375 499.75 l 1
 125 499.75 l 1
 125 374.75 l 1025
0 249.75 m 1
 250 249.75 l 1
 250 374.75 l 1
 0 374.75 l 1
 0 249.75 l 1025
250 124.75 m 1
 375 124.75 l 1
 375 249.75 l 1
 250 249.75 l 1
 250 124.75 l 1025
0 -0.25 m 1
 250 -0.25 l 1
 250 124.75 l 1
 0 124.75 l 1
 0 -0.25 l 1
EndSplineSet
EndChar

StartChar: Scedilla
Encoding: 350 350 286
Width: 500
VWidth: 0
Flags: HW
LayerCount: 2
Back
Fore
SplineSet
125 499.75 m 1
 375 499.75 l 1
 375 624.75 l 1
 125 624.75 l 1
 125 499.75 l 1025
0 374.75 m 1
 125 374.75 l 1
 125 499.75 l 1
 0 499.75 l 1
 0 374.75 l 1025
125 249.75 m 1
 250 249.75 l 1
 250 374.75 l 1
 125 374.75 l 1
 125 249.75 l 1025
250 124.75 m 1
 375 124.75 l 1
 375 249.75 l 1
 250 249.75 l 1
 250 124.75 l 1025
0 -0.25 m 1
 250 -0.25 l 1
 250 124.75 l 1
 0 124.75 l 1
 0 -0.25 l 1025
125 -125.25 m 1
 250 -125.25 l 1
 250 -0.25 l 1
 125 -0.25 l 1
 125 -125.25 l 1
EndSplineSet
EndChar

StartChar: scedilla
Encoding: 351 351 287
Width: 500
VWidth: 0
Flags: HW
LayerCount: 2
Back
Fore
SplineSet
125 374.75 m 1
 375 374.75 l 1
 375 499.75 l 1
 125 499.75 l 1
 125 374.75 l 1025
0 249.75 m 1
 250 249.75 l 1
 250 374.75 l 1
 0 374.75 l 1
 0 249.75 l 1025
250 124.75 m 1
 375 124.75 l 1
 375 249.75 l 1
 250 249.75 l 1
 250 124.75 l 1025
0 -0.25 m 1
 375 -0.25 l 1
 375 124.75 l 1
 0 124.75 l 1
 0 -0.25 l 1025
125 -125.25 m 1
 250 -125.25 l 1
 250 -0.25 l 1
 125 -0.25 l 1
 125 -125.25 l 1
EndSplineSet
EndChar

StartChar: Scaron
Encoding: 352 352 288
Width: 500
VWidth: 0
Flags: HW
LayerCount: 2
Back
Fore
SplineSet
125 499.75 m 1
 375 499.75 l 1
 375 624.75 l 1
 125 624.75 l 1
 125 499.75 l 1025
125 374.75 m 1
 375 374.75 l 1
 375 499.75 l 1
 125 499.75 l 1
 125 374.75 l 1025
0 249.75 m 1
 250 249.75 l 1
 250 374.75 l 1
 0 374.75 l 1
 0 249.75 l 1025
250 124.75 m 1
 375 124.75 l 1
 375 249.75 l 1
 250 249.75 l 1
 250 124.75 l 1025
0 -0.25 m 1
 375 -0.25 l 1
 375 124.75 l 1
 0 124.75 l 1
 0 -0.25 l 1
EndSplineSet
EndChar

StartChar: scaron
Encoding: 353 353 289
Width: 500
VWidth: 0
Flags: HW
LayerCount: 2
Back
Fore
SplineSet
125 499.75 m 1
 375 499.75 l 1
 375 624.75 l 1
 125 624.75 l 1
 125 499.75 l 1025
125 374.75 m 1
 375 374.75 l 1
 375 499.75 l 1
 125 499.75 l 1
 125 374.75 l 1025
0 249.75 m 1
 250 249.75 l 1
 250 374.75 l 1
 0 374.75 l 1
 0 249.75 l 1025
250 124.75 m 1
 375 124.75 l 1
 375 249.75 l 1
 250 249.75 l 1
 250 124.75 l 1025
0 -0.25 m 1
 250 -0.25 l 1
 250 124.75 l 1
 0 124.75 l 1
 0 -0.25 l 1
EndSplineSet
EndChar

StartChar: Tcommaaccent
Encoding: 354 354 290
Width: 500
VWidth: 0
Flags: HW
LayerCount: 2
Back
Fore
SplineSet
0 499.75 m 1
 375 499.75 l 1
 375 624.75 l 1
 0 624.75 l 1
 0 499.75 l 1025
125 374.75 m 1
 250 374.75 l 1
 250 499.75 l 1
 125 499.75 l 1
 125 374.75 l 1025
125 249.75 m 1
 250 249.75 l 1
 250 374.75 l 1
 125 374.75 l 1
 125 249.75 l 1025
125 124.75 m 1
 250 124.75 l 1
 250 249.75 l 1
 125 249.75 l 1
 125 124.75 l 1025
250 -0.25 m 1
 375 -0.25 l 1
 375 124.75 l 1
 250 124.75 l 1
 250 -0.25 l 1025
125 -125.25 m 1
 250 -125.25 l 1
 250 -0.25 l 1
 125 -0.25 l 1
 125 -125.25 l 1
EndSplineSet
EndChar

StartChar: tcommaaccent
Encoding: 355 355 291
Width: 500
VWidth: 0
Flags: HW
LayerCount: 2
Back
Fore
SplineSet
125 499.75 m 1
 250 499.75 l 1
 250 624.75 l 1
 125 624.75 l 1
 125 499.75 l 1025
0 374.75 m 1
 375 374.75 l 1
 375 499.75 l 1
 0 499.75 l 1
 0 374.75 l 1025
125 249.75 m 1
 250 249.75 l 1
 250 374.75 l 1
 125 374.75 l 1
 125 249.75 l 1025
125 124.75 m 1
 250 124.75 l 1
 250 249.75 l 1
 125 249.75 l 1
 125 124.75 l 1025
250 -0.25 m 1
 375 -0.25 l 1
 375 124.75 l 1
 250 124.75 l 1
 250 -0.25 l 1025
125 -125.25 m 1
 250 -125.25 l 1
 250 -0.25 l 1
 125 -0.25 l 1
 125 -125.25 l 1
EndSplineSet
EndChar

StartChar: Tcaron
Encoding: 356 356 292
Width: 500
VWidth: 0
Flags: HW
LayerCount: 2
Back
Fore
SplineSet
0 499.75 m 1
 125 499.75 l 1
 125 624.75 l 1
 0 624.75 l 1
 0 499.75 l 1025
250 499.75 m 1
 375 499.75 l 1
 375 624.75 l 1
 250 624.75 l 1
 250 499.75 l 1025
125 374.75 m 1
 250 374.75 l 1
 250 499.75 l 1
 125 499.75 l 1
 125 374.75 l 1025
0 249.75 m 1
 375 249.75 l 1
 375 374.75 l 1
 0 374.75 l 1
 0 249.75 l 1025
125 124.75 m 1
 250 124.75 l 1
 250 249.75 l 1
 125 249.75 l 1
 125 124.75 l 1025
125 -0.25 m 1
 250 -0.25 l 1
 250 124.75 l 1
 125 124.75 l 1
 125 -0.25 l 1
EndSplineSet
EndChar

StartChar: tcaron
Encoding: 357 357 293
Width: 500
VWidth: 0
Flags: HW
LayerCount: 2
Back
Fore
SplineSet
0 499.75 m 1
 125 499.75 l 1
 125 624.75 l 1
 0 624.75 l 1
 0 499.75 l 1025
250 499.75 m 1
 375 499.75 l 1
 375 624.75 l 1
 250 624.75 l 1
 250 499.75 l 1025
125 374.75 m 1
 250 374.75 l 1
 250 499.75 l 1
 125 499.75 l 1
 125 374.75 l 1025
0 249.75 m 1
 375 249.75 l 1
 375 374.75 l 1
 0 374.75 l 1
 0 249.75 l 1025
125 124.75 m 1
 250 124.75 l 1
 250 249.75 l 1
 125 249.75 l 1
 125 124.75 l 1025
250 -0.25 m 1
 375 -0.25 l 1
 375 124.75 l 1
 250 124.75 l 1
 250 -0.25 l 1
EndSplineSet
EndChar

StartChar: Tbar
Encoding: 358 358 294
Width: 500
VWidth: 0
Flags: HW
LayerCount: 2
Back
Fore
SplineSet
0 499.75 m 1
 375 499.75 l 1
 375 624.75 l 1
 0 624.75 l 1
 0 499.75 l 1025
125 374.75 m 1
 250 374.75 l 1
 250 499.75 l 1
 125 499.75 l 1
 125 374.75 l 1025
0 249.75 m 1
 375 249.75 l 1
 375 374.75 l 1
 0 374.75 l 1
 0 249.75 l 1025
125 124.75 m 1
 250 124.75 l 1
 250 249.75 l 1
 125 249.75 l 1
 125 124.75 l 1025
125 -0.25 m 1
 250 -0.25 l 1
 250 124.75 l 1
 125 124.75 l 1
 125 -0.25 l 1
EndSplineSet
EndChar

StartChar: tbar
Encoding: 359 359 295
Width: 500
VWidth: 0
Flags: HW
LayerCount: 2
Back
Fore
SplineSet
0 499.75 m 1
 375 499.75 l 1
 375 624.75 l 1
 0 624.75 l 1
 0 499.75 l 1025
125 374.75 m 1
 250 374.75 l 1
 250 499.75 l 1
 125 499.75 l 1
 125 374.75 l 1025
0 249.75 m 1
 375 249.75 l 1
 375 374.75 l 1
 0 374.75 l 1
 0 249.75 l 1025
125 124.75 m 1
 250 124.75 l 1
 250 249.75 l 1
 125 249.75 l 1
 125 124.75 l 1025
250 -0.25 m 1
 375 -0.25 l 1
 375 124.75 l 1
 250 124.75 l 1
 250 -0.25 l 1
EndSplineSet
EndChar

StartChar: Utilde
Encoding: 360 360 296
Width: 500
VWidth: 0
Flags: HW
LayerCount: 2
Back
Fore
SplineSet
0 499.75 m 1
 250 499.75 l 1
 250 624.75 l 1
 0 624.75 l 1
 0 499.75 l 1025
375 499.75 m 1
 500 499.75 l 1
 500 624.75 l 1
 375 624.75 l 1
 375 499.75 l 1025
250 374.75 m 1
 375 374.75 l 1
 375 499.75 l 1
 250 499.75 l 1
 250 374.75 l 1025
0 249.75 m 1
 125 249.75 l 1
 125 374.75 l 1
 0 374.75 l 1
 0 249.75 l 1025
250 249.75 m 1
 375 249.75 l 1
 375 374.75 l 1
 250 374.75 l 1
 250 249.75 l 1025
0 124.75 m 1
 125 124.75 l 1
 125 249.75 l 1
 0 249.75 l 1
 0 124.75 l 1025
250 124.75 m 1
 375 124.75 l 1
 375 249.75 l 1
 250 249.75 l 1
 250 124.75 l 1025
0 -0.25 m 1
 375 -0.25 l 1
 375 124.75 l 1
 0 124.75 l 1
 0 -0.25 l 1
EndSplineSet
EndChar

StartChar: utilde
Encoding: 361 361 297
Width: 500
VWidth: 0
Flags: HW
LayerCount: 2
Back
Fore
SplineSet
125 499.75 m 1
 250 499.75 l 1
 250 624.75 l 1
 125 624.75 l 1
 125 499.75 l 1025
375 499.75 m 1
 500 499.75 l 1
 500 624.75 l 1
 375 624.75 l 1
 375 499.75 l 1025
0 374.75 m 1
 125 374.75 l 1
 125 499.75 l 1
 0 499.75 l 1
 0 374.75 l 1025
250 374.75 m 1
 375 374.75 l 1
 375 499.75 l 1
 250 499.75 l 1
 250 374.75 l 1025
0 124.75 m 1
 125 124.75 l 1
 125 249.75 l 1
 0 249.75 l 1
 0 124.75 l 1025
250 124.75 m 1
 375 124.75 l 1
 375 249.75 l 1
 250 249.75 l 1
 250 124.75 l 1025
125 -0.25 m 1
 375 -0.25 l 1
 375 124.75 l 1
 125 124.75 l 1
 125 -0.25 l 1
EndSplineSet
EndChar

StartChar: Umacron
Encoding: 362 362 298
Width: 500
VWidth: 0
Flags: HW
LayerCount: 2
Back
Fore
SplineSet
0 499.75 m 1
 375 499.75 l 1
 375 624.75 l 1
 0 624.75 l 1
 0 499.75 l 1025
0 249.75 m 1
 125 249.75 l 1
 125 374.75 l 1
 0 374.75 l 1
 0 249.75 l 1025
250 249.75 m 1
 375 249.75 l 1
 375 374.75 l 1
 250 374.75 l 1
 250 249.75 l 1025
0 124.75 m 1
 125 124.75 l 1
 125 249.75 l 1
 0 249.75 l 1
 0 124.75 l 1025
250 124.75 m 1
 375 124.75 l 1
 375 249.75 l 1
 250 249.75 l 1
 250 124.75 l 1025
0 -0.25 m 1
 375 -0.25 l 1
 375 124.75 l 1
 0 124.75 l 1
 0 -0.25 l 1
EndSplineSet
EndChar

StartChar: umacron
Encoding: 363 363 299
Width: 500
VWidth: 0
Flags: HW
LayerCount: 2
Back
Fore
SplineSet
0 499.75 m 1
 375 499.75 l 1
 375 624.75 l 1
 0 624.75 l 1
 0 499.75 l 1025
0 249.75 m 1
 125 249.75 l 1
 125 374.75 l 1
 0 374.75 l 1
 0 249.75 l 1025
250 249.75 m 1
 375 249.75 l 1
 375 374.75 l 1
 250 374.75 l 1
 250 249.75 l 1025
0 124.75 m 1
 125 124.75 l 1
 125 249.75 l 1
 0 249.75 l 1
 0 124.75 l 1025
250 124.75 m 1
 375 124.75 l 1
 375 249.75 l 1
 250 249.75 l 1
 250 124.75 l 1025
125 -0.25 m 1
 375 -0.25 l 1
 375 124.75 l 1
 125 124.75 l 1
 125 -0.25 l 1
EndSplineSet
EndChar

StartChar: Ubreve
Encoding: 364 364 300
Width: 500
VWidth: 0
Flags: HW
LayerCount: 2
Back
Fore
SplineSet
0 499.75 m 1
 125 499.75 l 1
 125 624.75 l 1
 0 624.75 l 1
 0 499.75 l 1025
250 499.75 m 1
 375 499.75 l 1
 375 624.75 l 1
 250 624.75 l 1
 250 499.75 l 1025
125 374.75 m 1
 250 374.75 l 1
 250 499.75 l 1
 125 499.75 l 1
 125 374.75 l 1025
0 249.75 m 1
 125 249.75 l 1
 125 374.75 l 1
 0 374.75 l 1
 0 249.75 l 1025
250 249.75 m 1
 375 249.75 l 1
 375 374.75 l 1
 250 374.75 l 1
 250 249.75 l 1025
0 124.75 m 1
 125 124.75 l 1
 125 249.75 l 1
 0 249.75 l 1
 0 124.75 l 1025
250 124.75 m 1
 375 124.75 l 1
 375 249.75 l 1
 250 249.75 l 1
 250 124.75 l 1025
0 -0.25 m 1
 375 -0.25 l 1
 375 124.75 l 1
 0 124.75 l 1
 0 -0.25 l 1
EndSplineSet
EndChar

StartChar: ubreve
Encoding: 365 365 301
Width: 500
VWidth: 0
Flags: HW
LayerCount: 2
Back
Fore
SplineSet
0 499.75 m 1
 125 499.75 l 1
 125 624.75 l 1
 0 624.75 l 1
 0 499.75 l 1025
250 499.75 m 1
 375 499.75 l 1
 375 624.75 l 1
 250 624.75 l 1
 250 499.75 l 1025
125 374.75 m 1
 250 374.75 l 1
 250 499.75 l 1
 125 499.75 l 1
 125 374.75 l 1025
0 124.75 m 1
 125 124.75 l 1
 125 249.75 l 1
 0 249.75 l 1
 0 124.75 l 1025
250 124.75 m 1
 375 124.75 l 1
 375 249.75 l 1
 250 249.75 l 1
 250 124.75 l 1025
125 -0.25 m 1
 375 -0.25 l 1
 375 124.75 l 1
 125 124.75 l 1
 125 -0.25 l 1
EndSplineSet
EndChar

StartChar: Uring
Encoding: 366 366 302
Width: 500
VWidth: 0
Flags: HW
LayerCount: 2
Back
Fore
SplineSet
125 499.75 m 1
 250 499.75 l 1
 250 624.75 l 1
 125 624.75 l 1
 125 499.75 l 1025
0 249.75 m 1
 125 249.75 l 1
 125 374.75 l 1
 0 374.75 l 1
 0 249.75 l 1025
250 249.75 m 1
 375 249.75 l 1
 375 374.75 l 1
 250 374.75 l 1
 250 249.75 l 1025
0 124.75 m 1
 125 124.75 l 1
 125 249.75 l 1
 0 249.75 l 1
 0 124.75 l 1025
250 124.75 m 1
 375 124.75 l 1
 375 249.75 l 1
 250 249.75 l 1
 250 124.75 l 1025
0 -0.25 m 1
 375 -0.25 l 1
 375 124.75 l 1
 0 124.75 l 1
 0 -0.25 l 1
EndSplineSet
EndChar

StartChar: uring
Encoding: 367 367 303
Width: 500
VWidth: 0
Flags: HW
LayerCount: 2
Back
Fore
SplineSet
125 499.75 m 1
 250 499.75 l 1
 250 624.75 l 1
 125 624.75 l 1
 125 499.75 l 1025
0 249.75 m 1
 125 249.75 l 1
 125 374.75 l 1
 0 374.75 l 1
 0 249.75 l 1025
250 249.75 m 1
 375 249.75 l 1
 375 374.75 l 1
 250 374.75 l 1
 250 249.75 l 1025
0 124.75 m 1
 125 124.75 l 1
 125 249.75 l 1
 0 249.75 l 1
 0 124.75 l 1025
250 124.75 m 1
 375 124.75 l 1
 375 249.75 l 1
 250 249.75 l 1
 250 124.75 l 1025
125 -0.25 m 1
 375 -0.25 l 1
 375 124.75 l 1
 125 124.75 l 1
 125 -0.25 l 1
EndSplineSet
EndChar

StartChar: Uhungarumlaut
Encoding: 368 368 304
Width: 500
VWidth: 0
Flags: HW
LayerCount: 2
Back
Fore
SplineSet
0 499.75 m 1
 125 499.75 l 1
 125 624.75 l 1
 0 624.75 l 1
 0 499.75 l 1025
250 499.75 m 1
 375 499.75 l 1
 375 624.75 l 1
 250 624.75 l 1
 250 499.75 l 1025
0 249.75 m 1
 125 249.75 l 1
 125 374.75 l 1
 0 374.75 l 1
 0 249.75 l 1025
250 249.75 m 1
 375 249.75 l 1
 375 374.75 l 1
 250 374.75 l 1
 250 249.75 l 1025
0 124.75 m 1
 125 124.75 l 1
 125 249.75 l 1
 0 249.75 l 1
 0 124.75 l 1025
250 124.75 m 1
 375 124.75 l 1
 375 249.75 l 1
 250 249.75 l 1
 250 124.75 l 1025
0 -0.25 m 1
 375 -0.25 l 1
 375 124.75 l 1
 0 124.75 l 1
 0 -0.25 l 1
EndSplineSet
EndChar

StartChar: uhungarumlaut
Encoding: 369 369 305
Width: 500
VWidth: 0
Flags: HW
LayerCount: 2
Back
Fore
SplineSet
0 499.75 m 1
 125 499.75 l 1
 125 624.75 l 1
 0 624.75 l 1
 0 499.75 l 1025
250 499.75 m 1
 375 499.75 l 1
 375 624.75 l 1
 250 624.75 l 1
 250 499.75 l 1025
0 249.75 m 1
 125 249.75 l 1
 125 374.75 l 1
 0 374.75 l 1
 0 249.75 l 1025
250 249.75 m 1
 375 249.75 l 1
 375 374.75 l 1
 250 374.75 l 1
 250 249.75 l 1025
0 124.75 m 1
 125 124.75 l 1
 125 249.75 l 1
 0 249.75 l 1
 0 124.75 l 1025
250 124.75 m 1
 375 124.75 l 1
 375 249.75 l 1
 250 249.75 l 1
 250 124.75 l 1025
125 -0.25 m 1
 375 -0.25 l 1
 375 124.75 l 1
 125 124.75 l 1
 125 -0.25 l 1
EndSplineSet
EndChar

StartChar: Uogonek
Encoding: 370 370 306
Width: 500
VWidth: 0
Flags: HW
LayerCount: 2
Back
Fore
SplineSet
0 374.75 m 1
 125 374.75 l 1
 125 499.75 l 1
 0 499.75 l 1
 0 374.75 l 1025
250 374.75 m 1
 375 374.75 l 1
 375 499.75 l 1
 250 499.75 l 1
 250 374.75 l 1025
0 249.75 m 1
 125 249.75 l 1
 125 374.75 l 1
 0 374.75 l 1
 0 249.75 l 1025
250 249.75 m 1
 375 249.75 l 1
 375 374.75 l 1
 250 374.75 l 1
 250 249.75 l 1025
0 124.75 m 1
 125 124.75 l 1
 125 249.75 l 1
 0 249.75 l 1
 0 124.75 l 1025
250 124.75 m 1
 375 124.75 l 1
 375 249.75 l 1
 250 249.75 l 1
 250 124.75 l 1025
125 -0.25 m 1
 250 -0.25 l 1
 250 124.75 l 1
 125 124.75 l 1
 125 -0.25 l 1025
250 -125.25 m 1
 375 -125.25 l 1
 375 -0.25 l 1
 250 -0.25 l 1
 250 -125.25 l 1
EndSplineSet
EndChar

StartChar: uogonek
Encoding: 371 371 307
Width: 500
VWidth: 0
Flags: HW
LayerCount: 2
Back
Fore
SplineSet
0 374.75 m 1
 125 374.75 l 1
 125 499.75 l 1
 0 499.75 l 1
 0 374.75 l 1025
250 374.75 m 1
 375 374.75 l 1
 375 499.75 l 1
 250 499.75 l 1
 250 374.75 l 1025
0 249.75 m 1
 125 249.75 l 1
 125 374.75 l 1
 0 374.75 l 1
 0 249.75 l 1025
250 249.75 m 1
 375 249.75 l 1
 375 374.75 l 1
 250 374.75 l 1
 250 249.75 l 1025
0 124.75 m 1
 125 124.75 l 1
 125 249.75 l 1
 0 249.75 l 1
 0 124.75 l 1025
250 124.75 m 1
 375 124.75 l 1
 375 249.75 l 1
 250 249.75 l 1
 250 124.75 l 1025
125 -0.25 m 1
 375 -0.25 l 1
 375 124.75 l 1
 125 124.75 l 1
 125 -0.25 l 1025
125 -125.25 m 1
 250 -125.25 l 1
 250 -0.25 l 1
 125 -0.25 l 1
 125 -125.25 l 1
EndSplineSet
EndChar

StartChar: Wcircumflex
Encoding: 372 372 308
Width: 500
VWidth: 0
Flags: HW
LayerCount: 2
Back
Fore
SplineSet
125 499.75 m 1
 250 499.75 l 1
 250 624.75 l 1
 125 624.75 l 1
 125 499.75 l 1025
0 374.75 m 1
 125 374.75 l 1
 125 499.75 l 1
 0 499.75 l 1
 0 374.75 l 1025
250 374.75 m 1
 375 374.75 l 1
 375 499.75 l 1
 250 499.75 l 1
 250 374.75 l 1025
0 249.75 m 1
 125 249.75 l 1
 125 374.75 l 1
 0 374.75 l 1
 0 249.75 l 1025
250 249.75 m 1
 375 249.75 l 1
 375 374.75 l 1
 250 374.75 l 1
 250 249.75 l 1025
0 124.75 m 1
 375 124.75 l 1
 375 249.75 l 1
 0 249.75 l 1
 0 124.75 l 1025
0 -0.25 m 1
 125 -0.25 l 1
 125 124.75 l 1
 0 124.75 l 1
 0 -0.25 l 1025
250 -0.25 m 1
 375 -0.25 l 1
 375 124.75 l 1
 250 124.75 l 1
 250 -0.25 l 1
EndSplineSet
EndChar

StartChar: wcircumflex
Encoding: 373 373 309
Width: 500
VWidth: 0
Flags: HW
LayerCount: 2
Back
Fore
SplineSet
125 499.75 m 1
 250 499.75 l 1
 250 624.75 l 1
 125 624.75 l 1
 125 499.75 l 1025
0 249.75 m 1
 125 249.75 l 1
 125 374.75 l 1
 0 374.75 l 1
 0 249.75 l 1025
250 249.75 m 1
 375 249.75 l 1
 375 374.75 l 1
 250 374.75 l 1
 250 249.75 l 1025
0 124.75 m 1
 375 124.75 l 1
 375 249.75 l 1
 0 249.75 l 1
 0 124.75 l 1025
0 -0.25 m 1
 375 -0.25 l 1
 375 124.75 l 1
 0 124.75 l 1
 0 -0.25 l 1
EndSplineSet
EndChar

StartChar: Ycircumflex
Encoding: 374 374 310
Width: 500
VWidth: 0
Flags: HW
LayerCount: 2
Back
Fore
SplineSet
125 499.75 m 1
 375 499.75 l 1
 375 624.75 l 1
 125 624.75 l 1
 125 499.75 l 1025
0 249.75 m 1
 125 249.75 l 1
 125 374.75 l 1
 0 374.75 l 1
 0 249.75 l 1025
250 249.75 m 1
 375 249.75 l 1
 375 374.75 l 1
 250 374.75 l 1
 250 249.75 l 1025
125 124.75 m 1
 250 124.75 l 1
 250 249.75 l 1
 125 249.75 l 1
 125 124.75 l 1025
125 -0.25 m 1
 250 -0.25 l 1
 250 124.75 l 1
 125 124.75 l 1
 125 -0.25 l 1
EndSplineSet
EndChar

StartChar: ycircumflex
Encoding: 375 375 311
Width: 500
VWidth: 0
Flags: HW
LayerCount: 2
Back
Fore
SplineSet
125 499.75 m 1
 250 499.75 l 1
 250 624.75 l 1
 125 624.75 l 1
 125 499.75 l 1025
0 249.75 m 1
 125 249.75 l 1
 125 374.75 l 1
 0 374.75 l 1
 0 249.75 l 1025
250 249.75 m 1
 375 249.75 l 1
 375 374.75 l 1
 250 374.75 l 1
 250 249.75 l 1025
125 124.75 m 1
 250 124.75 l 1
 250 249.75 l 1
 125 249.75 l 1
 125 124.75 l 1025
0 -0.25 m 1
 125 -0.25 l 1
 125 124.75 l 1
 0 124.75 l 1
 0 -0.25 l 1
EndSplineSet
EndChar

StartChar: Ydieresis
Encoding: 376 376 312
Width: 500
VWidth: 0
Flags: HW
LayerCount: 2
Back
Fore
SplineSet
0 499.75 m 1
 125 499.75 l 1
 125 624.75 l 1
 0 624.75 l 1
 0 499.75 l 1025
250 499.75 m 1
 375 499.75 l 1
 375 624.75 l 1
 250 624.75 l 1
 250 499.75 l 1025
0 249.75 m 1
 125 249.75 l 1
 125 374.75 l 1
 0 374.75 l 1
 0 249.75 l 1025
250 249.75 m 1
 375 249.75 l 1
 375 374.75 l 1
 250 374.75 l 1
 250 249.75 l 1025
125 124.75 m 1
 250 124.75 l 1
 250 249.75 l 1
 125 249.75 l 1
 125 124.75 l 1025
125 -0.25 m 1
 250 -0.25 l 1
 250 124.75 l 1
 125 124.75 l 1
 125 -0.25 l 1
EndSplineSet
EndChar

StartChar: Zacute
Encoding: 377 377 313
Width: 500
VWidth: 0
Flags: HW
LayerCount: 2
Back
Fore
SplineSet
125 499.75 m 1
 250 499.75 l 1
 250 624.75 l 1
 125 624.75 l 1
 125 499.75 l 1025
0 374.75 m 1
 375 374.75 l 1
 375 499.75 l 1
 0 499.75 l 1
 0 374.75 l 1025
125 249.75 m 1
 250 249.75 l 1
 250 374.75 l 1
 125 374.75 l 1
 125 249.75 l 1025
0 124.75 m 1
 125 124.75 l 1
 125 249.75 l 1
 0 249.75 l 1
 0 124.75 l 1025
0 -0.25 m 1
 375 -0.25 l 1
 375 124.75 l 1
 0 124.75 l 1
 0 -0.25 l 1
EndSplineSet
EndChar

StartChar: zacute
Encoding: 378 378 314
Width: 500
VWidth: 0
Flags: HW
LayerCount: 2
Back
Fore
SplineSet
125 499.75 m 1
 250 499.75 l 1
 250 624.75 l 1
 125 624.75 l 1
 125 499.75 l 1025
0 374.75 m 1
 375 374.75 l 1
 375 499.75 l 1
 0 499.75 l 1
 0 374.75 l 1025
125 249.75 m 1
 250 249.75 l 1
 250 374.75 l 1
 125 374.75 l 1
 125 249.75 l 1025
0 124.75 m 1
 125 124.75 l 1
 125 249.75 l 1
 0 249.75 l 1
 0 124.75 l 1025
0 -0.25 m 1
 375 -0.25 l 1
 375 124.75 l 1
 0 124.75 l 1
 0 -0.25 l 1
EndSplineSet
EndChar

StartChar: Zdotaccent
Encoding: 379 379 315
Width: 500
VWidth: 0
Flags: HW
LayerCount: 2
Back
Fore
SplineSet
125 499.75 m 1
 250 499.75 l 1
 250 624.75 l 1
 125 624.75 l 1
 125 499.75 l 1025
0 374.75 m 1
 375 374.75 l 1
 375 499.75 l 1
 0 499.75 l 1
 0 374.75 l 1025
125 249.75 m 1
 250 249.75 l 1
 250 374.75 l 1
 125 374.75 l 1
 125 249.75 l 1025
0 124.75 m 1
 125 124.75 l 1
 125 249.75 l 1
 0 249.75 l 1
 0 124.75 l 1025
0 -0.25 m 1
 375 -0.25 l 1
 375 124.75 l 1
 0 124.75 l 1
 0 -0.25 l 1
EndSplineSet
EndChar

StartChar: zdotaccent
Encoding: 380 380 316
Width: 500
VWidth: 0
Flags: HW
LayerCount: 2
Back
Fore
SplineSet
125 499.75 m 1
 250 499.75 l 1
 250 624.75 l 1
 125 624.75 l 1
 125 499.75 l 1025
0 374.75 m 1
 375 374.75 l 1
 375 499.75 l 1
 0 499.75 l 1
 0 374.75 l 1025
125 249.75 m 1
 250 249.75 l 1
 250 374.75 l 1
 125 374.75 l 1
 125 249.75 l 1025
0 124.75 m 1
 125 124.75 l 1
 125 249.75 l 1
 0 249.75 l 1
 0 124.75 l 1025
0 -0.25 m 1
 375 -0.25 l 1
 375 124.75 l 1
 0 124.75 l 1
 0 -0.25 l 1
EndSplineSet
EndChar

StartChar: Zcaron
Encoding: 381 381 317
Width: 500
VWidth: 0
Flags: HW
LayerCount: 2
Back
Fore
SplineSet
0 499.75 m 1
 125 499.75 l 1
 125 624.75 l 1
 0 624.75 l 1
 0 499.75 l 1025
250 499.75 m 1
 375 499.75 l 1
 375 624.75 l 1
 250 624.75 l 1
 250 499.75 l 1025
0 374.75 m 1
 375 374.75 l 1
 375 499.75 l 1
 0 499.75 l 1
 0 374.75 l 1025
125 249.75 m 1
 250 249.75 l 1
 250 374.75 l 1
 125 374.75 l 1
 125 249.75 l 1025
0 124.75 m 1
 125 124.75 l 1
 125 249.75 l 1
 0 249.75 l 1
 0 124.75 l 1025
0 -0.25 m 1
 375 -0.25 l 1
 375 124.75 l 1
 0 124.75 l 1
 0 -0.25 l 1
EndSplineSet
EndChar

StartChar: zcaron
Encoding: 382 382 318
Width: 500
VWidth: 0
Flags: HW
LayerCount: 2
Back
Fore
SplineSet
0 499.75 m 1
 125 499.75 l 1
 125 624.75 l 1
 0 624.75 l 1
 0 499.75 l 1025
250 499.75 m 1
 375 499.75 l 1
 375 624.75 l 1
 250 624.75 l 1
 250 499.75 l 1025
0 374.75 m 1
 375 374.75 l 1
 375 499.75 l 1
 0 499.75 l 1
 0 374.75 l 1025
125 249.75 m 1
 250 249.75 l 1
 250 374.75 l 1
 125 374.75 l 1
 125 249.75 l 1025
0 124.75 m 1
 125 124.75 l 1
 125 249.75 l 1
 0 249.75 l 1
 0 124.75 l 1025
0 -0.25 m 1
 375 -0.25 l 1
 375 124.75 l 1
 0 124.75 l 1
 0 -0.25 l 1
EndSplineSet
EndChar

StartChar: longs
Encoding: 383 383 319
Width: 500
VWidth: 0
Flags: HW
LayerCount: 2
Back
Fore
SplineSet
250 499.75 m 1
 375 499.75 l 1
 375 624.75 l 1
 250 624.75 l 1
 250 499.75 l 1025
125 374.75 m 1
 250 374.75 l 1
 250 499.75 l 1
 125 499.75 l 1
 125 374.75 l 1025
0 249.75 m 1
 250 249.75 l 1
 250 374.75 l 1
 0 374.75 l 1
 0 249.75 l 1025
125 124.75 m 1
 250 124.75 l 1
 250 249.75 l 1
 125 249.75 l 1
 125 124.75 l 1025
125 -0.25 m 1
 250 -0.25 l 1
 250 124.75 l 1
 125 124.75 l 1
 125 -0.25 l 1
EndSplineSet
EndChar

StartChar: uni018F
Encoding: 399 399 320
Width: 500
VWidth: 0
Flags: HW
LayerCount: 2
Back
Fore
SplineSet
0 374.75 m 1
 250 374.75 l 1
 250 499.75 l 1
 0 499.75 l 1
 0 374.75 l 1025
125 249.75 m 1
 375 249.75 l 1
 375 374.75 l 1
 125 374.75 l 1
 125 249.75 l 1025
0 124.75 m 1
 125 124.75 l 1
 125 249.75 l 1
 0 249.75 l 1
 0 124.75 l 1025
250 124.75 m 1
 375 124.75 l 1
 375 249.75 l 1
 250 249.75 l 1
 250 124.75 l 1025
125 -0.25 m 1
 250 -0.25 l 1
 250 124.75 l 1
 125 124.75 l 1
 125 -0.25 l 1
EndSplineSet
EndChar

StartChar: florin
Encoding: 402 402 321
Width: 500
VWidth: 0
Flags: HW
LayerCount: 2
Back
Fore
SplineSet
250 499.75 m 1
 375 499.75 l 1
 375 624.75 l 1
 250 624.75 l 1
 250 499.75 l 1025
125 374.75 m 1
 250 374.75 l 1
 250 499.75 l 1
 125 499.75 l 1
 125 374.75 l 1025
0 249.75 m 1
 375 249.75 l 1
 375 374.75 l 1
 0 374.75 l 1
 0 249.75 l 1025
125 124.75 m 1
 250 124.75 l 1
 250 249.75 l 1
 125 249.75 l 1
 125 124.75 l 1025
125 -0.25 m 1
 250 -0.25 l 1
 250 124.75 l 1
 125 124.75 l 1
 125 -0.25 l 1025
0 -125.25 m 1
 125 -125.25 l 1
 125 -0.25 l 1
 0 -0.25 l 1
 0 -125.25 l 1
EndSplineSet
EndChar

StartChar: Scommaaccent
Encoding: 536 536 322
Width: 500
VWidth: 0
Flags: HW
LayerCount: 2
Back
Fore
SplineSet
125 499.75 m 1
 375 499.75 l 1
 375 624.75 l 1
 125 624.75 l 1
 125 499.75 l 1025
0 374.75 m 1
 125 374.75 l 1
 125 499.75 l 1
 0 499.75 l 1
 0 374.75 l 1025
125 249.75 m 1
 250 249.75 l 1
 250 374.75 l 1
 125 374.75 l 1
 125 249.75 l 1025
250 124.75 m 1
 375 124.75 l 1
 375 249.75 l 1
 250 249.75 l 1
 250 124.75 l 1025
0 -0.25 m 1
 250 -0.25 l 1
 250 124.75 l 1
 0 124.75 l 1
 0 -0.25 l 1025
125 -125.25 m 1
 250 -125.25 l 1
 250 -0.25 l 1
 125 -0.25 l 1
 125 -125.25 l 1
EndSplineSet
EndChar

StartChar: scommaaccent
Encoding: 537 537 323
Width: 500
VWidth: 0
Flags: HW
LayerCount: 2
Back
Fore
SplineSet
125 374.75 m 1
 375 374.75 l 1
 375 499.75 l 1
 125 499.75 l 1
 125 374.75 l 1025
0 249.75 m 1
 250 249.75 l 1
 250 374.75 l 1
 0 374.75 l 1
 0 249.75 l 1025
250 124.75 m 1
 375 124.75 l 1
 375 249.75 l 1
 250 249.75 l 1
 250 124.75 l 1025
0 -0.25 m 1
 375 -0.25 l 1
 375 124.75 l 1
 0 124.75 l 1
 0 -0.25 l 1025
125 -125.25 m 1
 250 -125.25 l 1
 250 -0.25 l 1
 125 -0.25 l 1
 125 -125.25 l 1
EndSplineSet
EndChar

StartChar: Tcommaaccent
Encoding: 354 354 324
Width: 500
VWidth: 0
Flags: HW
LayerCount: 2
Back
Fore
SplineSet
0 499.75 m 1
 375 499.75 l 1
 375 624.75 l 1
 0 624.75 l 1
 0 499.75 l 1025
125 374.75 m 1
 250 374.75 l 1
 250 499.75 l 1
 125 499.75 l 1
 125 374.75 l 1025
125 249.75 m 1
 250 249.75 l 1
 250 374.75 l 1
 125 374.75 l 1
 125 249.75 l 1025
125 124.75 m 1
 250 124.75 l 1
 250 249.75 l 1
 125 249.75 l 1
 125 124.75 l 1025
125 -125.25 m 1
 250 -125.25 l 1
 250 -0.25 l 1
 125 -0.25 l 1
 125 -125.25 l 1
EndSplineSet
EndChar

StartChar: tcommaaccent
Encoding: 355 355 325
Width: 500
VWidth: 0
Flags: HW
LayerCount: 2
Back
Fore
SplineSet
125 499.75 m 1
 250 499.75 l 1
 250 624.75 l 1
 125 624.75 l 1
 125 499.75 l 1025
0 374.75 m 1
 375 374.75 l 1
 375 499.75 l 1
 0 499.75 l 1
 0 374.75 l 1025
125 249.75 m 1
 250 249.75 l 1
 250 374.75 l 1
 125 374.75 l 1
 125 249.75 l 1025
125 124.75 m 1
 250 124.75 l 1
 250 249.75 l 1
 125 249.75 l 1
 125 124.75 l 1025
250 -0.25 m 1
 375 -0.25 l 1
 375 124.75 l 1
 250 124.75 l 1
 250 -0.25 l 1025
125 -125.25 m 1
 250 -125.25 l 1
 250 -0.25 l 1
 125 -0.25 l 1
 125 -125.25 l 1
EndSplineSet
EndChar

StartChar: uni0259
Encoding: 601 601 326
Width: 500
VWidth: 0
Flags: HW
LayerCount: 2
Back
Fore
SplineSet
0 374.75 m 1
 250 374.75 l 1
 250 499.75 l 1
 0 499.75 l 1
 0 374.75 l 1025
125 249.75 m 1
 375 249.75 l 1
 375 374.75 l 1
 125 374.75 l 1
 125 249.75 l 1025
0 124.75 m 1
 125 124.75 l 1
 125 249.75 l 1
 0 249.75 l 1
 0 124.75 l 1025
250 124.75 m 1
 375 124.75 l 1
 375 249.75 l 1
 250 249.75 l 1
 250 124.75 l 1025
125 -0.25 m 1
 250 -0.25 l 1
 250 124.75 l 1
 125 124.75 l 1
 125 -0.25 l 1
EndSplineSet
EndChar

StartChar: circumflex
Encoding: 710 710 327
Width: 500
VWidth: 0
Flags: HW
LayerCount: 2
Back
Fore
SplineSet
125 499.75 m 1
 250 499.75 l 1
 250 624.75 l 1
 125 624.75 l 1
 125 499.75 l 1025
0 374.75 m 1
 125 374.75 l 1
 125 499.75 l 1
 0 499.75 l 1
 0 374.75 l 1025
250 374.75 m 1
 375 374.75 l 1
 375 499.75 l 1
 250 499.75 l 1
 250 374.75 l 1
EndSplineSet
EndChar

StartChar: caron
Encoding: 711 711 328
Width: 500
VWidth: 0
Flags: HW
LayerCount: 2
Back
Fore
SplineSet
0 499.75 m 1
 125 499.75 l 1
 125 624.75 l 1
 0 624.75 l 1
 0 499.75 l 1025
250 499.75 m 1
 375 499.75 l 1
 375 624.75 l 1
 250 624.75 l 1
 250 499.75 l 1025
125 374.75 m 1
 250 374.75 l 1
 250 499.75 l 1
 125 499.75 l 1
 125 374.75 l 1
EndSplineSet
EndChar

StartChar: macron
Encoding: 175 175 329
Width: 500
VWidth: 0
Flags: HW
LayerCount: 2
Back
Fore
SplineSet
0 499.75 m 1
 375 499.75 l 1
 375 624.75 l 1
 0 624.75 l 1
 0 499.75 l 1
EndSplineSet
EndChar

StartChar: breve
Encoding: 728 728 330
Width: 500
VWidth: 0
Flags: HW
LayerCount: 2
Back
Fore
SplineSet
0 499.75 m 1
 125 499.75 l 1
 125 624.75 l 1
 0 624.75 l 1
 0 499.75 l 1025
375 499.75 m 1
 500 499.75 l 1
 500 624.75 l 1
 375 624.75 l 1
 375 499.75 l 1025
125 374.75 m 1
 375 374.75 l 1
 375 499.75 l 1
 125 499.75 l 1
 125 374.75 l 1
EndSplineSet
EndChar

StartChar: dotaccent
Encoding: 729 729 331
Width: 500
VWidth: 0
Flags: HW
LayerCount: 2
Back
Fore
SplineSet
125 499.75 m 1
 250 499.75 l 1
 250 624.75 l 1
 125 624.75 l 1
 125 499.75 l 1
EndSplineSet
EndChar

StartChar: ring
Encoding: 730 730 332
Width: 500
VWidth: 0
Flags: HW
LayerCount: 2
Back
Fore
SplineSet
125 499.75 m 1
 250 499.75 l 1
 250 624.75 l 1
 125 624.75 l 1
 125 499.75 l 1025
0 374.75 m 1
 125 374.75 l 1
 125 499.75 l 1
 0 499.75 l 1
 0 374.75 l 1025
250 374.75 m 1
 375 374.75 l 1
 375 499.75 l 1
 250 499.75 l 1
 250 374.75 l 1025
125 249.75 m 1
 250 249.75 l 1
 250 374.75 l 1
 125 374.75 l 1
 125 249.75 l 1
EndSplineSet
EndChar

StartChar: ogonek
Encoding: 731 731 333
Width: 500
VWidth: 0
Flags: HW
LayerCount: 2
Back
Fore
SplineSet
125 124.75 m 1
 250 124.75 l 1
 250 249.75 l 1
 125 249.75 l 1
 125 124.75 l 1025
0 -0.25 m 1
 125 -0.25 l 1
 125 124.75 l 1
 0 124.75 l 1
 0 -0.25 l 1025
0 -125.25 m 1
 250 -125.25 l 1
 250 -0.25 l 1
 0 -0.25 l 1
 0 -125.25 l 1
EndSplineSet
EndChar

StartChar: tilde
Encoding: 732 732 334
Width: 500
VWidth: 0
Flags: HW
LayerCount: 2
Back
Fore
SplineSet
125 499.75 m 1
 250 499.75 l 1
 250 624.75 l 1
 125 624.75 l 1
 125 499.75 l 1025
375 499.75 m 1
 500 499.75 l 1
 500 624.75 l 1
 375 624.75 l 1
 375 499.75 l 1025
0 374.75 m 1
 125 374.75 l 1
 125 499.75 l 1
 0 499.75 l 1
 0 374.75 l 1025
250 374.75 m 1
 375 374.75 l 1
 375 499.75 l 1
 250 499.75 l 1
 250 374.75 l 1
EndSplineSet
EndChar

StartChar: hungarumlaut
Encoding: 733 733 335
Width: 500
VWidth: 0
Flags: HW
LayerCount: 2
Back
Fore
SplineSet
0 499.75 m 1
 125 499.75 l 1
 125 624.75 l 1
 0 624.75 l 1
 0 499.75 l 1025
250 499.75 m 1
 375 499.75 l 1
 375 624.75 l 1
 250 624.75 l 1
 250 499.75 l 1025
0 374.75 m 1
 125 374.75 l 1
 125 499.75 l 1
 0 499.75 l 1
 0 374.75 l 1025
250 374.75 m 1
 375 374.75 l 1
 375 499.75 l 1
 250 499.75 l 1
 250 374.75 l 1
EndSplineSet
EndChar

StartChar: uni0374
Encoding: 884 884 336
Width: 500
VWidth: 0
Flags: HW
LayerCount: 2
Back
Fore
SplineSet
250 499.75 m 1
 375 499.75 l 1
 375 624.75 l 1
 250 624.75 l 1
 250 499.75 l 1025
125 374.75 m 1
 250 374.75 l 1
 250 499.75 l 1
 125 499.75 l 1
 125 374.75 l 1
EndSplineSet
EndChar

StartChar: uni0375
Encoding: 885 885 337
Width: 500
VWidth: 0
Flags: HW
LayerCount: 2
Back
Fore
SplineSet
125 -0.25 m 1
 250 -0.25 l 1
 250 124.75 l 1
 125 124.75 l 1
 125 -0.25 l 1025
0 -125.25 m 1
 125 -125.25 l 1
 125 -0.25 l 1
 0 -0.25 l 1
 0 -125.25 l 1
EndSplineSet
EndChar

StartChar: uni037A
Encoding: 890 890 338
Width: 500
VWidth: 0
Flags: HW
LayerCount: 2
Back
Fore
SplineSet
125 -0.25 m 1
 250 -0.25 l 1
 250 124.75 l 1
 125 124.75 l 1
 125 -0.25 l 1025
125 -125.25 m 1
 375 -125.25 l 1
 375 -0.25 l 1
 125 -0.25 l 1
 125 -125.25 l 1
EndSplineSet
EndChar

StartChar: uni037E
Encoding: 894 894 339
Width: 500
VWidth: 0
Flags: HW
LayerCount: 2
Back
Fore
SplineSet
125 374.75 m 1
 250 374.75 l 1
 250 499.75 l 1
 125 499.75 l 1
 125 374.75 l 1025
125 -0.25 m 1
 250 -0.25 l 1
 250 124.75 l 1
 125 124.75 l 1
 125 -0.25 l 1025
0 -125.25 m 1
 125 -125.25 l 1
 125 -0.25 l 1
 0 -0.25 l 1
 0 -125.25 l 1
EndSplineSet
EndChar

StartChar: tonos
Encoding: 900 900 340
Width: 500
VWidth: 0
Flags: HW
LayerCount: 2
Back
Fore
SplineSet
250 499.75 m 1
 375 499.75 l 1
 375 624.75 l 1
 250 624.75 l 1
 250 499.75 l 1025
125 374.75 m 1
 250 374.75 l 1
 250 499.75 l 1
 125 499.75 l 1
 125 374.75 l 1
EndSplineSet
EndChar

StartChar: dieresistonos
Encoding: 901 901 341
Width: 500
VWidth: 0
Flags: HW
LayerCount: 2
Back
Fore
SplineSet
0 499.75 m 1
 125 499.75 l 1
 125 624.75 l 1
 0 624.75 l 1
 0 499.75 l 1025
250 499.75 m 1
 500 499.75 l 1
 500 624.75 l 1
 250 624.75 l 1
 250 499.75 l 1025
125 374.75 m 1
 250 374.75 l 1
 250 499.75 l 1
 125 499.75 l 1
 125 374.75 l 1
EndSplineSet
EndChar

StartChar: Alphatonos
Encoding: 902 902 342
Width: 500
VWidth: 0
Flags: HW
LayerCount: 2
Back
Fore
SplineSet
0 499.75 m 1
 250 499.75 l 1
 250 624.75 l 1
 0 624.75 l 1
 0 499.75 l 1025
0 374.75 m 1
 125 374.75 l 1
 125 499.75 l 1
 0 499.75 l 1
 0 374.75 l 1025
250 374.75 m 1
 375 374.75 l 1
 375 499.75 l 1
 250 499.75 l 1
 250 374.75 l 1025
0 249.75 m 1
 375 249.75 l 1
 375 374.75 l 1
 0 374.75 l 1
 0 249.75 l 1025
0 124.75 m 1
 125 124.75 l 1
 125 249.75 l 1
 0 249.75 l 1
 0 124.75 l 1025
250 124.75 m 1
 375 124.75 l 1
 375 249.75 l 1
 250 249.75 l 1
 250 124.75 l 1025
0 -0.25 m 1
 125 -0.25 l 1
 125 124.75 l 1
 0 124.75 l 1
 0 -0.25 l 1025
250 -0.25 m 1
 375 -0.25 l 1
 375 124.75 l 1
 250 124.75 l 1
 250 -0.25 l 1
EndSplineSet
EndChar

